<?xml version="1.0" encoding="UTF-8" standalone="no"?>
<!-- This is a Stata 19.5 generated SVG file (http://www.stata.com) -->

<svg version="1.1" width="1600px" height="960px" viewBox="0 0 5400 3240" xmlns="http://www.w3.org/2000/svg" xmlns:xlink="http://www.w3.org/1999/xlink">
	<desc>Stata Graph - Graph</desc>
	<rect x="0" y="0" width="5400" height="3240" style="fill:#FFFFFF;stroke:none"/>
	<rect x="0.00" y="0.00" width="5400.00" height="3240.00" style="fill:#FFFFFF"/>
	<rect x="3.24" y="3.24" width="5393.52" height="3233.52" style="fill:none;stroke:#FFFFFF;stroke-width:6.48"/>
	<rect x="492.08" y="113.40" width="4794.53" height="2524.33" style="fill:#FFFFFF"/>
	<rect x="495.32" y="116.64" width="4788.05" height="2517.85" style="fill:none;stroke:#FFFFFF;stroke-width:6.48"/>
	<line x1="492.08" y1="2566.52" x2="556.88" y2="2566.52" style="stroke:#F0F0F0;stroke-width:9.72"/>
	<line x1="589.28" y1="2566.52" x2="654.08" y2="2566.52" style="stroke:#F0F0F0;stroke-width:9.72"/>
	<line x1="686.48" y1="2566.52" x2="751.28" y2="2566.52" style="stroke:#F0F0F0;stroke-width:9.72"/>
	<line x1="783.68" y1="2566.52" x2="848.48" y2="2566.52" style="stroke:#F0F0F0;stroke-width:9.72"/>
	<line x1="880.88" y1="2566.52" x2="945.68" y2="2566.52" style="stroke:#F0F0F0;stroke-width:9.72"/>
	<line x1="978.08" y1="2566.52" x2="1042.88" y2="2566.52" style="stroke:#F0F0F0;stroke-width:9.72"/>
	<line x1="1075.28" y1="2566.52" x2="1140.08" y2="2566.52" style="stroke:#F0F0F0;stroke-width:9.72"/>
	<line x1="1172.47" y1="2566.52" x2="1237.28" y2="2566.52" style="stroke:#F0F0F0;stroke-width:9.72"/>
	<line x1="1269.68" y1="2566.52" x2="1334.48" y2="2566.52" style="stroke:#F0F0F0;stroke-width:9.72"/>
	<line x1="1366.88" y1="2566.52" x2="1431.68" y2="2566.52" style="stroke:#F0F0F0;stroke-width:9.72"/>
	<line x1="1464.08" y1="2566.52" x2="1528.88" y2="2566.52" style="stroke:#F0F0F0;stroke-width:9.72"/>
	<line x1="1561.28" y1="2566.52" x2="1626.08" y2="2566.52" style="stroke:#F0F0F0;stroke-width:9.72"/>
	<line x1="1658.48" y1="2566.52" x2="1723.28" y2="2566.52" style="stroke:#F0F0F0;stroke-width:9.72"/>
	<line x1="1755.68" y1="2566.52" x2="1820.48" y2="2566.52" style="stroke:#F0F0F0;stroke-width:9.72"/>
	<line x1="1852.88" y1="2566.52" x2="1917.68" y2="2566.52" style="stroke:#F0F0F0;stroke-width:9.72"/>
	<line x1="1950.08" y1="2566.52" x2="2014.88" y2="2566.52" style="stroke:#F0F0F0;stroke-width:9.72"/>
	<line x1="2047.28" y1="2566.52" x2="2112.07" y2="2566.52" style="stroke:#F0F0F0;stroke-width:9.72"/>
	<line x1="2144.48" y1="2566.52" x2="2209.28" y2="2566.52" style="stroke:#F0F0F0;stroke-width:9.72"/>
	<line x1="2241.68" y1="2566.52" x2="2306.48" y2="2566.52" style="stroke:#F0F0F0;stroke-width:9.72"/>
	<line x1="2338.88" y1="2566.52" x2="2403.68" y2="2566.52" style="stroke:#F0F0F0;stroke-width:9.72"/>
	<line x1="2436.07" y1="2566.52" x2="2500.88" y2="2566.52" style="stroke:#F0F0F0;stroke-width:9.72"/>
	<line x1="2533.28" y1="2566.52" x2="2598.07" y2="2566.52" style="stroke:#F0F0F0;stroke-width:9.72"/>
	<line x1="2630.48" y1="2566.52" x2="2695.28" y2="2566.52" style="stroke:#F0F0F0;stroke-width:9.72"/>
	<line x1="2727.68" y1="2566.52" x2="2792.48" y2="2566.52" style="stroke:#F0F0F0;stroke-width:9.72"/>
	<line x1="2824.88" y1="2566.52" x2="2889.68" y2="2566.52" style="stroke:#F0F0F0;stroke-width:9.72"/>
	<line x1="2922.08" y1="2566.52" x2="2986.88" y2="2566.52" style="stroke:#F0F0F0;stroke-width:9.72"/>
	<line x1="3019.28" y1="2566.52" x2="3084.08" y2="2566.52" style="stroke:#F0F0F0;stroke-width:9.72"/>
	<line x1="3116.48" y1="2566.52" x2="3181.28" y2="2566.52" style="stroke:#F0F0F0;stroke-width:9.72"/>
	<line x1="3213.68" y1="2566.52" x2="3278.48" y2="2566.52" style="stroke:#F0F0F0;stroke-width:9.72"/>
	<line x1="3310.88" y1="2566.52" x2="3375.68" y2="2566.52" style="stroke:#F0F0F0;stroke-width:9.72"/>
	<line x1="3408.08" y1="2566.52" x2="3472.88" y2="2566.52" style="stroke:#F0F0F0;stroke-width:9.72"/>
	<line x1="3505.28" y1="2566.52" x2="3570.08" y2="2566.52" style="stroke:#F0F0F0;stroke-width:9.72"/>
	<line x1="3602.48" y1="2566.52" x2="3667.28" y2="2566.52" style="stroke:#F0F0F0;stroke-width:9.72"/>
	<line x1="3699.68" y1="2566.52" x2="3764.48" y2="2566.52" style="stroke:#F0F0F0;stroke-width:9.72"/>
	<line x1="3796.88" y1="2566.52" x2="3861.68" y2="2566.52" style="stroke:#F0F0F0;stroke-width:9.72"/>
	<line x1="3894.08" y1="2566.52" x2="3958.88" y2="2566.52" style="stroke:#F0F0F0;stroke-width:9.72"/>
	<line x1="3991.28" y1="2566.52" x2="4056.08" y2="2566.52" style="stroke:#F0F0F0;stroke-width:9.72"/>
	<line x1="4088.48" y1="2566.52" x2="4153.27" y2="2566.52" style="stroke:#F0F0F0;stroke-width:9.72"/>
	<line x1="4185.68" y1="2566.52" x2="4250.48" y2="2566.52" style="stroke:#F0F0F0;stroke-width:9.72"/>
	<line x1="4282.88" y1="2566.52" x2="4347.68" y2="2566.52" style="stroke:#F0F0F0;stroke-width:9.72"/>
	<line x1="4380.08" y1="2566.52" x2="4444.88" y2="2566.52" style="stroke:#F0F0F0;stroke-width:9.72"/>
	<line x1="4477.27" y1="2566.52" x2="4542.08" y2="2566.52" style="stroke:#F0F0F0;stroke-width:9.72"/>
	<line x1="4574.48" y1="2566.52" x2="4639.27" y2="2566.52" style="stroke:#F0F0F0;stroke-width:9.72"/>
	<line x1="4671.68" y1="2566.52" x2="4736.48" y2="2566.52" style="stroke:#F0F0F0;stroke-width:9.72"/>
	<line x1="4768.88" y1="2566.52" x2="4833.68" y2="2566.52" style="stroke:#F0F0F0;stroke-width:9.72"/>
	<line x1="4866.08" y1="2566.52" x2="4930.88" y2="2566.52" style="stroke:#F0F0F0;stroke-width:9.72"/>
	<line x1="4963.27" y1="2566.52" x2="5028.08" y2="2566.52" style="stroke:#F0F0F0;stroke-width:9.72"/>
	<line x1="5060.48" y1="2566.52" x2="5125.27" y2="2566.52" style="stroke:#F0F0F0;stroke-width:9.72"/>
	<line x1="5157.68" y1="2566.52" x2="5222.48" y2="2566.52" style="stroke:#F0F0F0;stroke-width:9.72"/>
	<line x1="5254.88" y1="2566.52" x2="5286.60" y2="2566.52" style="stroke:#F0F0F0;stroke-width:9.72"/>
	<line x1="492.08" y1="2090.14" x2="556.88" y2="2090.14" style="stroke:#F0F0F0;stroke-width:9.72"/>
	<line x1="589.28" y1="2090.14" x2="654.08" y2="2090.14" style="stroke:#F0F0F0;stroke-width:9.72"/>
	<line x1="686.48" y1="2090.14" x2="751.28" y2="2090.14" style="stroke:#F0F0F0;stroke-width:9.72"/>
	<line x1="783.68" y1="2090.14" x2="848.48" y2="2090.14" style="stroke:#F0F0F0;stroke-width:9.72"/>
	<line x1="880.88" y1="2090.14" x2="945.68" y2="2090.14" style="stroke:#F0F0F0;stroke-width:9.72"/>
	<line x1="978.08" y1="2090.14" x2="1042.88" y2="2090.14" style="stroke:#F0F0F0;stroke-width:9.72"/>
	<line x1="1075.28" y1="2090.14" x2="1140.08" y2="2090.14" style="stroke:#F0F0F0;stroke-width:9.72"/>
	<line x1="1172.47" y1="2090.14" x2="1237.28" y2="2090.14" style="stroke:#F0F0F0;stroke-width:9.72"/>
	<line x1="1269.68" y1="2090.14" x2="1334.48" y2="2090.14" style="stroke:#F0F0F0;stroke-width:9.72"/>
	<line x1="1366.88" y1="2090.14" x2="1431.68" y2="2090.14" style="stroke:#F0F0F0;stroke-width:9.72"/>
	<line x1="1464.08" y1="2090.14" x2="1528.88" y2="2090.14" style="stroke:#F0F0F0;stroke-width:9.72"/>
	<line x1="1561.28" y1="2090.14" x2="1626.08" y2="2090.14" style="stroke:#F0F0F0;stroke-width:9.72"/>
	<line x1="1658.48" y1="2090.14" x2="1723.28" y2="2090.14" style="stroke:#F0F0F0;stroke-width:9.72"/>
	<line x1="1755.68" y1="2090.14" x2="1820.48" y2="2090.14" style="stroke:#F0F0F0;stroke-width:9.72"/>
	<line x1="1852.88" y1="2090.14" x2="1917.68" y2="2090.14" style="stroke:#F0F0F0;stroke-width:9.72"/>
	<line x1="1950.08" y1="2090.14" x2="2014.88" y2="2090.14" style="stroke:#F0F0F0;stroke-width:9.72"/>
	<line x1="2047.28" y1="2090.14" x2="2112.07" y2="2090.14" style="stroke:#F0F0F0;stroke-width:9.72"/>
	<line x1="2144.48" y1="2090.14" x2="2209.28" y2="2090.14" style="stroke:#F0F0F0;stroke-width:9.72"/>
	<line x1="2241.68" y1="2090.14" x2="2306.48" y2="2090.14" style="stroke:#F0F0F0;stroke-width:9.72"/>
	<line x1="2338.88" y1="2090.14" x2="2403.68" y2="2090.14" style="stroke:#F0F0F0;stroke-width:9.72"/>
	<line x1="2436.07" y1="2090.14" x2="2500.88" y2="2090.14" style="stroke:#F0F0F0;stroke-width:9.72"/>
	<line x1="2533.28" y1="2090.14" x2="2598.07" y2="2090.14" style="stroke:#F0F0F0;stroke-width:9.72"/>
	<line x1="2630.48" y1="2090.14" x2="2695.28" y2="2090.14" style="stroke:#F0F0F0;stroke-width:9.72"/>
	<line x1="2727.68" y1="2090.14" x2="2792.48" y2="2090.14" style="stroke:#F0F0F0;stroke-width:9.72"/>
	<line x1="2824.88" y1="2090.14" x2="2889.68" y2="2090.14" style="stroke:#F0F0F0;stroke-width:9.72"/>
	<line x1="2922.08" y1="2090.14" x2="2986.88" y2="2090.14" style="stroke:#F0F0F0;stroke-width:9.72"/>
	<line x1="3019.28" y1="2090.14" x2="3084.08" y2="2090.14" style="stroke:#F0F0F0;stroke-width:9.72"/>
	<line x1="3116.48" y1="2090.14" x2="3181.28" y2="2090.14" style="stroke:#F0F0F0;stroke-width:9.72"/>
	<line x1="3213.68" y1="2090.14" x2="3278.48" y2="2090.14" style="stroke:#F0F0F0;stroke-width:9.72"/>
	<line x1="3310.88" y1="2090.14" x2="3375.68" y2="2090.14" style="stroke:#F0F0F0;stroke-width:9.72"/>
	<line x1="3408.08" y1="2090.14" x2="3472.88" y2="2090.14" style="stroke:#F0F0F0;stroke-width:9.72"/>
	<line x1="3505.28" y1="2090.14" x2="3570.08" y2="2090.14" style="stroke:#F0F0F0;stroke-width:9.72"/>
	<line x1="3602.48" y1="2090.14" x2="3667.28" y2="2090.14" style="stroke:#F0F0F0;stroke-width:9.72"/>
	<line x1="3699.68" y1="2090.14" x2="3764.48" y2="2090.14" style="stroke:#F0F0F0;stroke-width:9.72"/>
	<line x1="3796.88" y1="2090.14" x2="3861.68" y2="2090.14" style="stroke:#F0F0F0;stroke-width:9.72"/>
	<line x1="3894.08" y1="2090.14" x2="3958.88" y2="2090.14" style="stroke:#F0F0F0;stroke-width:9.72"/>
	<line x1="3991.28" y1="2090.14" x2="4056.08" y2="2090.14" style="stroke:#F0F0F0;stroke-width:9.72"/>
	<line x1="4088.48" y1="2090.14" x2="4153.27" y2="2090.14" style="stroke:#F0F0F0;stroke-width:9.72"/>
	<line x1="4185.68" y1="2090.14" x2="4250.48" y2="2090.14" style="stroke:#F0F0F0;stroke-width:9.72"/>
	<line x1="4282.88" y1="2090.14" x2="4347.68" y2="2090.14" style="stroke:#F0F0F0;stroke-width:9.72"/>
	<line x1="4380.08" y1="2090.14" x2="4444.88" y2="2090.14" style="stroke:#F0F0F0;stroke-width:9.72"/>
	<line x1="4477.27" y1="2090.14" x2="4542.08" y2="2090.14" style="stroke:#F0F0F0;stroke-width:9.72"/>
	<line x1="4574.48" y1="2090.14" x2="4639.27" y2="2090.14" style="stroke:#F0F0F0;stroke-width:9.72"/>
	<line x1="4671.68" y1="2090.14" x2="4736.48" y2="2090.14" style="stroke:#F0F0F0;stroke-width:9.72"/>
	<line x1="4768.88" y1="2090.14" x2="4833.68" y2="2090.14" style="stroke:#F0F0F0;stroke-width:9.72"/>
	<line x1="4866.08" y1="2090.14" x2="4930.88" y2="2090.14" style="stroke:#F0F0F0;stroke-width:9.72"/>
	<line x1="4963.27" y1="2090.14" x2="5028.08" y2="2090.14" style="stroke:#F0F0F0;stroke-width:9.72"/>
	<line x1="5060.48" y1="2090.14" x2="5125.27" y2="2090.14" style="stroke:#F0F0F0;stroke-width:9.72"/>
	<line x1="5157.68" y1="2090.14" x2="5222.48" y2="2090.14" style="stroke:#F0F0F0;stroke-width:9.72"/>
	<line x1="5254.88" y1="2090.14" x2="5286.60" y2="2090.14" style="stroke:#F0F0F0;stroke-width:9.72"/>
	<line x1="492.08" y1="1613.76" x2="556.88" y2="1613.76" style="stroke:#F0F0F0;stroke-width:9.72"/>
	<line x1="589.28" y1="1613.76" x2="654.08" y2="1613.76" style="stroke:#F0F0F0;stroke-width:9.72"/>
	<line x1="686.48" y1="1613.76" x2="751.28" y2="1613.76" style="stroke:#F0F0F0;stroke-width:9.72"/>
	<line x1="783.68" y1="1613.76" x2="848.48" y2="1613.76" style="stroke:#F0F0F0;stroke-width:9.72"/>
	<line x1="880.88" y1="1613.76" x2="945.68" y2="1613.76" style="stroke:#F0F0F0;stroke-width:9.72"/>
	<line x1="978.08" y1="1613.76" x2="1042.88" y2="1613.76" style="stroke:#F0F0F0;stroke-width:9.72"/>
	<line x1="1075.28" y1="1613.76" x2="1140.08" y2="1613.76" style="stroke:#F0F0F0;stroke-width:9.72"/>
	<line x1="1172.47" y1="1613.76" x2="1237.28" y2="1613.76" style="stroke:#F0F0F0;stroke-width:9.72"/>
	<line x1="1269.68" y1="1613.76" x2="1334.48" y2="1613.76" style="stroke:#F0F0F0;stroke-width:9.72"/>
	<line x1="1366.88" y1="1613.76" x2="1431.68" y2="1613.76" style="stroke:#F0F0F0;stroke-width:9.72"/>
	<line x1="1464.08" y1="1613.76" x2="1528.88" y2="1613.76" style="stroke:#F0F0F0;stroke-width:9.72"/>
	<line x1="1561.28" y1="1613.76" x2="1626.08" y2="1613.76" style="stroke:#F0F0F0;stroke-width:9.72"/>
	<line x1="1658.48" y1="1613.76" x2="1723.28" y2="1613.76" style="stroke:#F0F0F0;stroke-width:9.72"/>
	<line x1="1755.68" y1="1613.76" x2="1820.48" y2="1613.76" style="stroke:#F0F0F0;stroke-width:9.72"/>
	<line x1="1852.88" y1="1613.76" x2="1917.68" y2="1613.76" style="stroke:#F0F0F0;stroke-width:9.72"/>
	<line x1="1950.08" y1="1613.76" x2="2014.88" y2="1613.76" style="stroke:#F0F0F0;stroke-width:9.72"/>
	<line x1="2047.28" y1="1613.76" x2="2112.07" y2="1613.76" style="stroke:#F0F0F0;stroke-width:9.72"/>
	<line x1="2144.48" y1="1613.76" x2="2209.28" y2="1613.76" style="stroke:#F0F0F0;stroke-width:9.72"/>
	<line x1="2241.68" y1="1613.76" x2="2306.48" y2="1613.76" style="stroke:#F0F0F0;stroke-width:9.72"/>
	<line x1="2338.88" y1="1613.76" x2="2403.68" y2="1613.76" style="stroke:#F0F0F0;stroke-width:9.72"/>
	<line x1="2436.07" y1="1613.76" x2="2500.88" y2="1613.76" style="stroke:#F0F0F0;stroke-width:9.72"/>
	<line x1="2533.28" y1="1613.76" x2="2598.07" y2="1613.76" style="stroke:#F0F0F0;stroke-width:9.72"/>
	<line x1="2630.48" y1="1613.76" x2="2695.28" y2="1613.76" style="stroke:#F0F0F0;stroke-width:9.72"/>
	<line x1="2727.68" y1="1613.76" x2="2792.48" y2="1613.76" style="stroke:#F0F0F0;stroke-width:9.72"/>
	<line x1="2824.88" y1="1613.76" x2="2889.68" y2="1613.76" style="stroke:#F0F0F0;stroke-width:9.72"/>
	<line x1="2922.08" y1="1613.76" x2="2986.88" y2="1613.76" style="stroke:#F0F0F0;stroke-width:9.72"/>
	<line x1="3019.28" y1="1613.76" x2="3084.08" y2="1613.76" style="stroke:#F0F0F0;stroke-width:9.72"/>
	<line x1="3116.48" y1="1613.76" x2="3181.28" y2="1613.76" style="stroke:#F0F0F0;stroke-width:9.72"/>
	<line x1="3213.68" y1="1613.76" x2="3278.48" y2="1613.76" style="stroke:#F0F0F0;stroke-width:9.72"/>
	<line x1="3310.88" y1="1613.76" x2="3375.68" y2="1613.76" style="stroke:#F0F0F0;stroke-width:9.72"/>
	<line x1="3408.08" y1="1613.76" x2="3472.88" y2="1613.76" style="stroke:#F0F0F0;stroke-width:9.72"/>
	<line x1="3505.28" y1="1613.76" x2="3570.08" y2="1613.76" style="stroke:#F0F0F0;stroke-width:9.72"/>
	<line x1="3602.48" y1="1613.76" x2="3667.28" y2="1613.76" style="stroke:#F0F0F0;stroke-width:9.72"/>
	<line x1="3699.68" y1="1613.76" x2="3764.48" y2="1613.76" style="stroke:#F0F0F0;stroke-width:9.72"/>
	<line x1="3796.88" y1="1613.76" x2="3861.68" y2="1613.76" style="stroke:#F0F0F0;stroke-width:9.72"/>
	<line x1="3894.08" y1="1613.76" x2="3958.88" y2="1613.76" style="stroke:#F0F0F0;stroke-width:9.72"/>
	<line x1="3991.28" y1="1613.76" x2="4056.08" y2="1613.76" style="stroke:#F0F0F0;stroke-width:9.72"/>
	<line x1="4088.48" y1="1613.76" x2="4153.27" y2="1613.76" style="stroke:#F0F0F0;stroke-width:9.72"/>
	<line x1="4185.68" y1="1613.76" x2="4250.48" y2="1613.76" style="stroke:#F0F0F0;stroke-width:9.72"/>
	<line x1="4282.88" y1="1613.76" x2="4347.68" y2="1613.76" style="stroke:#F0F0F0;stroke-width:9.72"/>
	<line x1="4380.08" y1="1613.76" x2="4444.88" y2="1613.76" style="stroke:#F0F0F0;stroke-width:9.72"/>
	<line x1="4477.27" y1="1613.76" x2="4542.08" y2="1613.76" style="stroke:#F0F0F0;stroke-width:9.72"/>
	<line x1="4574.48" y1="1613.76" x2="4639.27" y2="1613.76" style="stroke:#F0F0F0;stroke-width:9.72"/>
	<line x1="4671.68" y1="1613.76" x2="4736.48" y2="1613.76" style="stroke:#F0F0F0;stroke-width:9.72"/>
	<line x1="4768.88" y1="1613.76" x2="4833.68" y2="1613.76" style="stroke:#F0F0F0;stroke-width:9.72"/>
	<line x1="4866.08" y1="1613.76" x2="4930.88" y2="1613.76" style="stroke:#F0F0F0;stroke-width:9.72"/>
	<line x1="4963.27" y1="1613.76" x2="5028.08" y2="1613.76" style="stroke:#F0F0F0;stroke-width:9.72"/>
	<line x1="5060.48" y1="1613.76" x2="5125.27" y2="1613.76" style="stroke:#F0F0F0;stroke-width:9.72"/>
	<line x1="5157.68" y1="1613.76" x2="5222.48" y2="1613.76" style="stroke:#F0F0F0;stroke-width:9.72"/>
	<line x1="5254.88" y1="1613.76" x2="5286.60" y2="1613.76" style="stroke:#F0F0F0;stroke-width:9.72"/>
	<line x1="492.08" y1="1137.38" x2="556.88" y2="1137.38" style="stroke:#F0F0F0;stroke-width:9.72"/>
	<line x1="589.28" y1="1137.38" x2="654.08" y2="1137.38" style="stroke:#F0F0F0;stroke-width:9.72"/>
	<line x1="686.48" y1="1137.38" x2="751.28" y2="1137.38" style="stroke:#F0F0F0;stroke-width:9.72"/>
	<line x1="783.68" y1="1137.38" x2="848.48" y2="1137.38" style="stroke:#F0F0F0;stroke-width:9.72"/>
	<line x1="880.88" y1="1137.38" x2="945.68" y2="1137.38" style="stroke:#F0F0F0;stroke-width:9.72"/>
	<line x1="978.08" y1="1137.38" x2="1042.88" y2="1137.38" style="stroke:#F0F0F0;stroke-width:9.72"/>
	<line x1="1075.28" y1="1137.38" x2="1140.08" y2="1137.38" style="stroke:#F0F0F0;stroke-width:9.72"/>
	<line x1="1172.47" y1="1137.38" x2="1237.28" y2="1137.38" style="stroke:#F0F0F0;stroke-width:9.72"/>
	<line x1="1269.68" y1="1137.38" x2="1334.48" y2="1137.38" style="stroke:#F0F0F0;stroke-width:9.72"/>
	<line x1="1366.88" y1="1137.38" x2="1431.68" y2="1137.38" style="stroke:#F0F0F0;stroke-width:9.72"/>
	<line x1="1464.08" y1="1137.38" x2="1528.88" y2="1137.38" style="stroke:#F0F0F0;stroke-width:9.72"/>
	<line x1="1561.28" y1="1137.38" x2="1626.08" y2="1137.38" style="stroke:#F0F0F0;stroke-width:9.72"/>
	<line x1="1658.48" y1="1137.38" x2="1723.28" y2="1137.38" style="stroke:#F0F0F0;stroke-width:9.72"/>
	<line x1="1755.68" y1="1137.38" x2="1820.48" y2="1137.38" style="stroke:#F0F0F0;stroke-width:9.72"/>
	<line x1="1852.88" y1="1137.38" x2="1917.68" y2="1137.38" style="stroke:#F0F0F0;stroke-width:9.72"/>
	<line x1="1950.08" y1="1137.38" x2="2014.88" y2="1137.38" style="stroke:#F0F0F0;stroke-width:9.72"/>
	<line x1="2047.28" y1="1137.38" x2="2112.07" y2="1137.38" style="stroke:#F0F0F0;stroke-width:9.72"/>
	<line x1="2144.48" y1="1137.38" x2="2209.28" y2="1137.38" style="stroke:#F0F0F0;stroke-width:9.72"/>
	<line x1="2241.68" y1="1137.38" x2="2306.48" y2="1137.38" style="stroke:#F0F0F0;stroke-width:9.72"/>
	<line x1="2338.88" y1="1137.38" x2="2403.68" y2="1137.38" style="stroke:#F0F0F0;stroke-width:9.72"/>
	<line x1="2436.07" y1="1137.38" x2="2500.88" y2="1137.38" style="stroke:#F0F0F0;stroke-width:9.72"/>
	<line x1="2533.28" y1="1137.38" x2="2598.07" y2="1137.38" style="stroke:#F0F0F0;stroke-width:9.72"/>
	<line x1="2630.48" y1="1137.38" x2="2695.28" y2="1137.38" style="stroke:#F0F0F0;stroke-width:9.72"/>
	<line x1="2727.68" y1="1137.38" x2="2792.48" y2="1137.38" style="stroke:#F0F0F0;stroke-width:9.72"/>
	<line x1="2824.88" y1="1137.38" x2="2889.68" y2="1137.38" style="stroke:#F0F0F0;stroke-width:9.72"/>
	<line x1="2922.08" y1="1137.38" x2="2986.88" y2="1137.38" style="stroke:#F0F0F0;stroke-width:9.72"/>
	<line x1="3019.28" y1="1137.38" x2="3084.08" y2="1137.38" style="stroke:#F0F0F0;stroke-width:9.72"/>
	<line x1="3116.48" y1="1137.38" x2="3181.28" y2="1137.38" style="stroke:#F0F0F0;stroke-width:9.72"/>
	<line x1="3213.68" y1="1137.38" x2="3278.48" y2="1137.38" style="stroke:#F0F0F0;stroke-width:9.72"/>
	<line x1="3310.88" y1="1137.38" x2="3375.68" y2="1137.38" style="stroke:#F0F0F0;stroke-width:9.72"/>
	<line x1="3408.08" y1="1137.38" x2="3472.88" y2="1137.38" style="stroke:#F0F0F0;stroke-width:9.72"/>
	<line x1="3505.28" y1="1137.38" x2="3570.08" y2="1137.38" style="stroke:#F0F0F0;stroke-width:9.72"/>
	<line x1="3602.48" y1="1137.38" x2="3667.28" y2="1137.38" style="stroke:#F0F0F0;stroke-width:9.72"/>
	<line x1="3699.68" y1="1137.38" x2="3764.48" y2="1137.38" style="stroke:#F0F0F0;stroke-width:9.72"/>
	<line x1="3796.88" y1="1137.38" x2="3861.68" y2="1137.38" style="stroke:#F0F0F0;stroke-width:9.72"/>
	<line x1="3894.08" y1="1137.38" x2="3958.88" y2="1137.38" style="stroke:#F0F0F0;stroke-width:9.72"/>
	<line x1="3991.28" y1="1137.38" x2="4056.08" y2="1137.38" style="stroke:#F0F0F0;stroke-width:9.72"/>
	<line x1="4088.48" y1="1137.38" x2="4153.27" y2="1137.38" style="stroke:#F0F0F0;stroke-width:9.72"/>
	<line x1="4185.68" y1="1137.38" x2="4250.48" y2="1137.38" style="stroke:#F0F0F0;stroke-width:9.72"/>
	<line x1="4282.88" y1="1137.38" x2="4347.68" y2="1137.38" style="stroke:#F0F0F0;stroke-width:9.72"/>
	<line x1="4380.08" y1="1137.38" x2="4444.88" y2="1137.38" style="stroke:#F0F0F0;stroke-width:9.72"/>
	<line x1="4477.27" y1="1137.38" x2="4542.08" y2="1137.38" style="stroke:#F0F0F0;stroke-width:9.72"/>
	<line x1="4574.48" y1="1137.38" x2="4639.27" y2="1137.38" style="stroke:#F0F0F0;stroke-width:9.72"/>
	<line x1="4671.68" y1="1137.38" x2="4736.48" y2="1137.38" style="stroke:#F0F0F0;stroke-width:9.72"/>
	<line x1="4768.88" y1="1137.38" x2="4833.68" y2="1137.38" style="stroke:#F0F0F0;stroke-width:9.72"/>
	<line x1="4866.08" y1="1137.38" x2="4930.88" y2="1137.38" style="stroke:#F0F0F0;stroke-width:9.72"/>
	<line x1="4963.27" y1="1137.38" x2="5028.08" y2="1137.38" style="stroke:#F0F0F0;stroke-width:9.72"/>
	<line x1="5060.48" y1="1137.38" x2="5125.27" y2="1137.38" style="stroke:#F0F0F0;stroke-width:9.72"/>
	<line x1="5157.68" y1="1137.38" x2="5222.48" y2="1137.38" style="stroke:#F0F0F0;stroke-width:9.72"/>
	<line x1="5254.88" y1="1137.38" x2="5286.60" y2="1137.38" style="stroke:#F0F0F0;stroke-width:9.72"/>
	<line x1="492.08" y1="660.99" x2="556.88" y2="660.99" style="stroke:#F0F0F0;stroke-width:9.72"/>
	<line x1="589.28" y1="660.99" x2="654.08" y2="660.99" style="stroke:#F0F0F0;stroke-width:9.72"/>
	<line x1="686.48" y1="660.99" x2="751.28" y2="660.99" style="stroke:#F0F0F0;stroke-width:9.72"/>
	<line x1="783.68" y1="660.99" x2="848.48" y2="660.99" style="stroke:#F0F0F0;stroke-width:9.72"/>
	<line x1="880.88" y1="660.99" x2="945.68" y2="660.99" style="stroke:#F0F0F0;stroke-width:9.72"/>
	<line x1="978.08" y1="660.99" x2="1042.88" y2="660.99" style="stroke:#F0F0F0;stroke-width:9.72"/>
	<line x1="1075.28" y1="660.99" x2="1140.08" y2="660.99" style="stroke:#F0F0F0;stroke-width:9.72"/>
	<line x1="1172.47" y1="660.99" x2="1237.28" y2="660.99" style="stroke:#F0F0F0;stroke-width:9.72"/>
	<line x1="1269.68" y1="660.99" x2="1334.48" y2="660.99" style="stroke:#F0F0F0;stroke-width:9.72"/>
	<line x1="1366.88" y1="660.99" x2="1431.68" y2="660.99" style="stroke:#F0F0F0;stroke-width:9.72"/>
	<line x1="1464.08" y1="660.99" x2="1528.88" y2="660.99" style="stroke:#F0F0F0;stroke-width:9.72"/>
	<line x1="1561.28" y1="660.99" x2="1626.08" y2="660.99" style="stroke:#F0F0F0;stroke-width:9.72"/>
	<line x1="1658.48" y1="660.99" x2="1723.28" y2="660.99" style="stroke:#F0F0F0;stroke-width:9.72"/>
	<line x1="1755.68" y1="660.99" x2="1820.48" y2="660.99" style="stroke:#F0F0F0;stroke-width:9.72"/>
	<line x1="1852.88" y1="660.99" x2="1917.68" y2="660.99" style="stroke:#F0F0F0;stroke-width:9.72"/>
	<line x1="1950.08" y1="660.99" x2="2014.88" y2="660.99" style="stroke:#F0F0F0;stroke-width:9.72"/>
	<line x1="2047.28" y1="660.99" x2="2112.07" y2="660.99" style="stroke:#F0F0F0;stroke-width:9.72"/>
	<line x1="2144.48" y1="660.99" x2="2209.28" y2="660.99" style="stroke:#F0F0F0;stroke-width:9.72"/>
	<line x1="2241.68" y1="660.99" x2="2306.48" y2="660.99" style="stroke:#F0F0F0;stroke-width:9.72"/>
	<line x1="2338.88" y1="660.99" x2="2403.68" y2="660.99" style="stroke:#F0F0F0;stroke-width:9.72"/>
	<line x1="2436.07" y1="660.99" x2="2500.88" y2="660.99" style="stroke:#F0F0F0;stroke-width:9.72"/>
	<line x1="2533.28" y1="660.99" x2="2598.07" y2="660.99" style="stroke:#F0F0F0;stroke-width:9.72"/>
	<line x1="2630.48" y1="660.99" x2="2695.28" y2="660.99" style="stroke:#F0F0F0;stroke-width:9.72"/>
	<line x1="2727.68" y1="660.99" x2="2792.48" y2="660.99" style="stroke:#F0F0F0;stroke-width:9.72"/>
	<line x1="2824.88" y1="660.99" x2="2889.68" y2="660.99" style="stroke:#F0F0F0;stroke-width:9.72"/>
	<line x1="2922.08" y1="660.99" x2="2986.88" y2="660.99" style="stroke:#F0F0F0;stroke-width:9.72"/>
	<line x1="3019.28" y1="660.99" x2="3084.08" y2="660.99" style="stroke:#F0F0F0;stroke-width:9.72"/>
	<line x1="3116.48" y1="660.99" x2="3181.28" y2="660.99" style="stroke:#F0F0F0;stroke-width:9.72"/>
	<line x1="3213.68" y1="660.99" x2="3278.48" y2="660.99" style="stroke:#F0F0F0;stroke-width:9.72"/>
	<line x1="3310.88" y1="660.99" x2="3375.68" y2="660.99" style="stroke:#F0F0F0;stroke-width:9.72"/>
	<line x1="3408.08" y1="660.99" x2="3472.88" y2="660.99" style="stroke:#F0F0F0;stroke-width:9.72"/>
	<line x1="3505.28" y1="660.99" x2="3570.08" y2="660.99" style="stroke:#F0F0F0;stroke-width:9.72"/>
	<line x1="3602.48" y1="660.99" x2="3667.28" y2="660.99" style="stroke:#F0F0F0;stroke-width:9.72"/>
	<line x1="3699.68" y1="660.99" x2="3764.48" y2="660.99" style="stroke:#F0F0F0;stroke-width:9.72"/>
	<line x1="3796.88" y1="660.99" x2="3861.68" y2="660.99" style="stroke:#F0F0F0;stroke-width:9.72"/>
	<line x1="3894.08" y1="660.99" x2="3958.88" y2="660.99" style="stroke:#F0F0F0;stroke-width:9.72"/>
	<line x1="3991.28" y1="660.99" x2="4056.08" y2="660.99" style="stroke:#F0F0F0;stroke-width:9.72"/>
	<line x1="4088.48" y1="660.99" x2="4153.27" y2="660.99" style="stroke:#F0F0F0;stroke-width:9.72"/>
	<line x1="4185.68" y1="660.99" x2="4250.48" y2="660.99" style="stroke:#F0F0F0;stroke-width:9.72"/>
	<line x1="4282.88" y1="660.99" x2="4347.68" y2="660.99" style="stroke:#F0F0F0;stroke-width:9.72"/>
	<line x1="4380.08" y1="660.99" x2="4444.88" y2="660.99" style="stroke:#F0F0F0;stroke-width:9.72"/>
	<line x1="4477.27" y1="660.99" x2="4542.08" y2="660.99" style="stroke:#F0F0F0;stroke-width:9.72"/>
	<line x1="4574.48" y1="660.99" x2="4639.27" y2="660.99" style="stroke:#F0F0F0;stroke-width:9.72"/>
	<line x1="4671.68" y1="660.99" x2="4736.48" y2="660.99" style="stroke:#F0F0F0;stroke-width:9.72"/>
	<line x1="4768.88" y1="660.99" x2="4833.68" y2="660.99" style="stroke:#F0F0F0;stroke-width:9.72"/>
	<line x1="4866.08" y1="660.99" x2="4930.88" y2="660.99" style="stroke:#F0F0F0;stroke-width:9.72"/>
	<line x1="4963.27" y1="660.99" x2="5028.08" y2="660.99" style="stroke:#F0F0F0;stroke-width:9.72"/>
	<line x1="5060.48" y1="660.99" x2="5125.27" y2="660.99" style="stroke:#F0F0F0;stroke-width:9.72"/>
	<line x1="5157.68" y1="660.99" x2="5222.48" y2="660.99" style="stroke:#F0F0F0;stroke-width:9.72"/>
	<line x1="5254.88" y1="660.99" x2="5286.60" y2="660.99" style="stroke:#F0F0F0;stroke-width:9.72"/>
	<line x1="492.08" y1="184.61" x2="556.88" y2="184.61" style="stroke:#F0F0F0;stroke-width:9.72"/>
	<line x1="589.28" y1="184.61" x2="654.08" y2="184.61" style="stroke:#F0F0F0;stroke-width:9.72"/>
	<line x1="686.48" y1="184.61" x2="751.28" y2="184.61" style="stroke:#F0F0F0;stroke-width:9.72"/>
	<line x1="783.68" y1="184.61" x2="848.48" y2="184.61" style="stroke:#F0F0F0;stroke-width:9.72"/>
	<line x1="880.88" y1="184.61" x2="945.68" y2="184.61" style="stroke:#F0F0F0;stroke-width:9.72"/>
	<line x1="978.08" y1="184.61" x2="1042.88" y2="184.61" style="stroke:#F0F0F0;stroke-width:9.72"/>
	<line x1="1075.28" y1="184.61" x2="1140.08" y2="184.61" style="stroke:#F0F0F0;stroke-width:9.72"/>
	<line x1="1172.47" y1="184.61" x2="1237.28" y2="184.61" style="stroke:#F0F0F0;stroke-width:9.72"/>
	<line x1="1269.68" y1="184.61" x2="1334.48" y2="184.61" style="stroke:#F0F0F0;stroke-width:9.72"/>
	<line x1="1366.88" y1="184.61" x2="1431.68" y2="184.61" style="stroke:#F0F0F0;stroke-width:9.72"/>
	<line x1="1464.08" y1="184.61" x2="1528.88" y2="184.61" style="stroke:#F0F0F0;stroke-width:9.72"/>
	<line x1="1561.28" y1="184.61" x2="1626.08" y2="184.61" style="stroke:#F0F0F0;stroke-width:9.72"/>
	<line x1="1658.48" y1="184.61" x2="1723.28" y2="184.61" style="stroke:#F0F0F0;stroke-width:9.72"/>
	<line x1="1755.68" y1="184.61" x2="1820.48" y2="184.61" style="stroke:#F0F0F0;stroke-width:9.72"/>
	<line x1="1852.88" y1="184.61" x2="1917.68" y2="184.61" style="stroke:#F0F0F0;stroke-width:9.72"/>
	<line x1="1950.08" y1="184.61" x2="2014.88" y2="184.61" style="stroke:#F0F0F0;stroke-width:9.72"/>
	<line x1="2047.28" y1="184.61" x2="2112.07" y2="184.61" style="stroke:#F0F0F0;stroke-width:9.72"/>
	<line x1="2144.48" y1="184.61" x2="2209.28" y2="184.61" style="stroke:#F0F0F0;stroke-width:9.72"/>
	<line x1="2241.68" y1="184.61" x2="2306.48" y2="184.61" style="stroke:#F0F0F0;stroke-width:9.72"/>
	<line x1="2338.88" y1="184.61" x2="2403.68" y2="184.61" style="stroke:#F0F0F0;stroke-width:9.72"/>
	<line x1="2436.07" y1="184.61" x2="2500.88" y2="184.61" style="stroke:#F0F0F0;stroke-width:9.72"/>
	<line x1="2533.28" y1="184.61" x2="2598.07" y2="184.61" style="stroke:#F0F0F0;stroke-width:9.72"/>
	<line x1="2630.48" y1="184.61" x2="2695.28" y2="184.61" style="stroke:#F0F0F0;stroke-width:9.72"/>
	<line x1="2727.68" y1="184.61" x2="2792.48" y2="184.61" style="stroke:#F0F0F0;stroke-width:9.72"/>
	<line x1="2824.88" y1="184.61" x2="2889.68" y2="184.61" style="stroke:#F0F0F0;stroke-width:9.72"/>
	<line x1="2922.08" y1="184.61" x2="2986.88" y2="184.61" style="stroke:#F0F0F0;stroke-width:9.72"/>
	<line x1="3019.28" y1="184.61" x2="3084.08" y2="184.61" style="stroke:#F0F0F0;stroke-width:9.72"/>
	<line x1="3116.48" y1="184.61" x2="3181.28" y2="184.61" style="stroke:#F0F0F0;stroke-width:9.72"/>
	<line x1="3213.68" y1="184.61" x2="3278.48" y2="184.61" style="stroke:#F0F0F0;stroke-width:9.72"/>
	<line x1="3310.88" y1="184.61" x2="3375.68" y2="184.61" style="stroke:#F0F0F0;stroke-width:9.72"/>
	<line x1="3408.08" y1="184.61" x2="3472.88" y2="184.61" style="stroke:#F0F0F0;stroke-width:9.72"/>
	<line x1="3505.28" y1="184.61" x2="3570.08" y2="184.61" style="stroke:#F0F0F0;stroke-width:9.72"/>
	<line x1="3602.48" y1="184.61" x2="3667.28" y2="184.61" style="stroke:#F0F0F0;stroke-width:9.72"/>
	<line x1="3699.68" y1="184.61" x2="3764.48" y2="184.61" style="stroke:#F0F0F0;stroke-width:9.72"/>
	<line x1="3796.88" y1="184.61" x2="3861.68" y2="184.61" style="stroke:#F0F0F0;stroke-width:9.72"/>
	<line x1="3894.08" y1="184.61" x2="3958.88" y2="184.61" style="stroke:#F0F0F0;stroke-width:9.72"/>
	<line x1="3991.28" y1="184.61" x2="4056.08" y2="184.61" style="stroke:#F0F0F0;stroke-width:9.72"/>
	<line x1="4088.48" y1="184.61" x2="4153.27" y2="184.61" style="stroke:#F0F0F0;stroke-width:9.72"/>
	<line x1="4185.68" y1="184.61" x2="4250.48" y2="184.61" style="stroke:#F0F0F0;stroke-width:9.72"/>
	<line x1="4282.88" y1="184.61" x2="4347.68" y2="184.61" style="stroke:#F0F0F0;stroke-width:9.72"/>
	<line x1="4380.08" y1="184.61" x2="4444.88" y2="184.61" style="stroke:#F0F0F0;stroke-width:9.72"/>
	<line x1="4477.27" y1="184.61" x2="4542.08" y2="184.61" style="stroke:#F0F0F0;stroke-width:9.72"/>
	<line x1="4574.48" y1="184.61" x2="4639.27" y2="184.61" style="stroke:#F0F0F0;stroke-width:9.72"/>
	<line x1="4671.68" y1="184.61" x2="4736.48" y2="184.61" style="stroke:#F0F0F0;stroke-width:9.72"/>
	<line x1="4768.88" y1="184.61" x2="4833.68" y2="184.61" style="stroke:#F0F0F0;stroke-width:9.72"/>
	<line x1="4866.08" y1="184.61" x2="4930.88" y2="184.61" style="stroke:#F0F0F0;stroke-width:9.72"/>
	<line x1="4963.27" y1="184.61" x2="5028.08" y2="184.61" style="stroke:#F0F0F0;stroke-width:9.72"/>
	<line x1="5060.48" y1="184.61" x2="5125.27" y2="184.61" style="stroke:#F0F0F0;stroke-width:9.72"/>
	<line x1="5157.68" y1="184.61" x2="5222.48" y2="184.61" style="stroke:#F0F0F0;stroke-width:9.72"/>
	<line x1="5254.88" y1="184.61" x2="5286.60" y2="184.61" style="stroke:#F0F0F0;stroke-width:9.72"/>
	<line x1="563.46" y1="2637.73" x2="563.46" y2="2572.93" style="stroke:#F0F0F0;stroke-width:9.72"/>
	<line x1="563.46" y1="2540.53" x2="563.46" y2="2475.73" style="stroke:#F0F0F0;stroke-width:9.72"/>
	<line x1="563.46" y1="2443.33" x2="563.46" y2="2378.53" style="stroke:#F0F0F0;stroke-width:9.72"/>
	<line x1="563.46" y1="2346.13" x2="563.46" y2="2281.33" style="stroke:#F0F0F0;stroke-width:9.72"/>
	<line x1="563.46" y1="2248.93" x2="563.46" y2="2184.13" style="stroke:#F0F0F0;stroke-width:9.72"/>
	<line x1="563.46" y1="2151.73" x2="563.46" y2="2086.93" style="stroke:#F0F0F0;stroke-width:9.72"/>
	<line x1="563.46" y1="2054.53" x2="563.46" y2="1989.73" style="stroke:#F0F0F0;stroke-width:9.72"/>
	<line x1="563.46" y1="1957.33" x2="563.46" y2="1892.53" style="stroke:#F0F0F0;stroke-width:9.72"/>
	<line x1="563.46" y1="1860.13" x2="563.46" y2="1795.33" style="stroke:#F0F0F0;stroke-width:9.72"/>
	<line x1="563.46" y1="1762.93" x2="563.46" y2="1698.13" style="stroke:#F0F0F0;stroke-width:9.72"/>
	<line x1="563.46" y1="1665.73" x2="563.46" y2="1600.93" style="stroke:#F0F0F0;stroke-width:9.72"/>
	<line x1="563.46" y1="1568.53" x2="563.46" y2="1503.73" style="stroke:#F0F0F0;stroke-width:9.72"/>
	<line x1="563.46" y1="1471.33" x2="563.46" y2="1406.53" style="stroke:#F0F0F0;stroke-width:9.72"/>
	<line x1="563.46" y1="1374.13" x2="563.46" y2="1309.33" style="stroke:#F0F0F0;stroke-width:9.72"/>
	<line x1="563.46" y1="1276.93" x2="563.46" y2="1212.13" style="stroke:#F0F0F0;stroke-width:9.72"/>
	<line x1="563.46" y1="1179.73" x2="563.46" y2="1114.93" style="stroke:#F0F0F0;stroke-width:9.72"/>
	<line x1="563.46" y1="1082.53" x2="563.46" y2="1017.73" style="stroke:#F0F0F0;stroke-width:9.72"/>
	<line x1="563.46" y1="985.33" x2="563.46" y2="920.53" style="stroke:#F0F0F0;stroke-width:9.72"/>
	<line x1="563.46" y1="888.13" x2="563.46" y2="823.33" style="stroke:#F0F0F0;stroke-width:9.72"/>
	<line x1="563.46" y1="790.93" x2="563.46" y2="726.13" style="stroke:#F0F0F0;stroke-width:9.72"/>
	<line x1="563.46" y1="693.73" x2="563.46" y2="628.93" style="stroke:#F0F0F0;stroke-width:9.72"/>
	<line x1="563.46" y1="596.53" x2="563.46" y2="531.73" style="stroke:#F0F0F0;stroke-width:9.72"/>
	<line x1="563.46" y1="499.33" x2="563.46" y2="434.53" style="stroke:#F0F0F0;stroke-width:9.72"/>
	<line x1="563.46" y1="402.13" x2="563.46" y2="337.33" style="stroke:#F0F0F0;stroke-width:9.72"/>
	<line x1="563.46" y1="304.93" x2="563.46" y2="240.13" style="stroke:#F0F0F0;stroke-width:9.72"/>
	<line x1="563.46" y1="207.73" x2="563.46" y2="142.93" style="stroke:#F0F0F0;stroke-width:9.72"/>
	<line x1="1144.97" y1="2637.73" x2="1144.97" y2="2572.93" style="stroke:#F0F0F0;stroke-width:9.72"/>
	<line x1="1144.97" y1="2540.53" x2="1144.97" y2="2475.73" style="stroke:#F0F0F0;stroke-width:9.72"/>
	<line x1="1144.97" y1="2443.33" x2="1144.97" y2="2378.53" style="stroke:#F0F0F0;stroke-width:9.72"/>
	<line x1="1144.97" y1="2346.13" x2="1144.97" y2="2281.33" style="stroke:#F0F0F0;stroke-width:9.72"/>
	<line x1="1144.97" y1="2248.93" x2="1144.97" y2="2184.13" style="stroke:#F0F0F0;stroke-width:9.72"/>
	<line x1="1144.97" y1="2151.73" x2="1144.97" y2="2086.93" style="stroke:#F0F0F0;stroke-width:9.72"/>
	<line x1="1144.97" y1="2054.53" x2="1144.97" y2="1989.73" style="stroke:#F0F0F0;stroke-width:9.72"/>
	<line x1="1144.97" y1="1957.33" x2="1144.97" y2="1892.53" style="stroke:#F0F0F0;stroke-width:9.72"/>
	<line x1="1144.97" y1="1860.13" x2="1144.97" y2="1795.33" style="stroke:#F0F0F0;stroke-width:9.72"/>
	<line x1="1144.97" y1="1762.93" x2="1144.97" y2="1698.13" style="stroke:#F0F0F0;stroke-width:9.72"/>
	<line x1="1144.97" y1="1665.73" x2="1144.97" y2="1600.93" style="stroke:#F0F0F0;stroke-width:9.72"/>
	<line x1="1144.97" y1="1568.53" x2="1144.97" y2="1503.73" style="stroke:#F0F0F0;stroke-width:9.72"/>
	<line x1="1144.97" y1="1471.33" x2="1144.97" y2="1406.53" style="stroke:#F0F0F0;stroke-width:9.72"/>
	<line x1="1144.97" y1="1374.13" x2="1144.97" y2="1309.33" style="stroke:#F0F0F0;stroke-width:9.72"/>
	<line x1="1144.97" y1="1276.93" x2="1144.97" y2="1212.13" style="stroke:#F0F0F0;stroke-width:9.72"/>
	<line x1="1144.97" y1="1179.73" x2="1144.97" y2="1114.93" style="stroke:#F0F0F0;stroke-width:9.72"/>
	<line x1="1144.97" y1="1082.53" x2="1144.97" y2="1017.73" style="stroke:#F0F0F0;stroke-width:9.72"/>
	<line x1="1144.97" y1="985.33" x2="1144.97" y2="920.53" style="stroke:#F0F0F0;stroke-width:9.72"/>
	<line x1="1144.97" y1="888.13" x2="1144.97" y2="823.33" style="stroke:#F0F0F0;stroke-width:9.72"/>
	<line x1="1144.97" y1="790.93" x2="1144.97" y2="726.13" style="stroke:#F0F0F0;stroke-width:9.72"/>
	<line x1="1144.97" y1="693.73" x2="1144.97" y2="628.93" style="stroke:#F0F0F0;stroke-width:9.72"/>
	<line x1="1144.97" y1="596.53" x2="1144.97" y2="531.73" style="stroke:#F0F0F0;stroke-width:9.72"/>
	<line x1="1144.97" y1="499.33" x2="1144.97" y2="434.53" style="stroke:#F0F0F0;stroke-width:9.72"/>
	<line x1="1144.97" y1="402.13" x2="1144.97" y2="337.33" style="stroke:#F0F0F0;stroke-width:9.72"/>
	<line x1="1144.97" y1="304.93" x2="1144.97" y2="240.13" style="stroke:#F0F0F0;stroke-width:9.72"/>
	<line x1="1144.97" y1="207.73" x2="1144.97" y2="142.93" style="stroke:#F0F0F0;stroke-width:9.72"/>
	<line x1="1726.31" y1="2637.73" x2="1726.31" y2="2572.93" style="stroke:#F0F0F0;stroke-width:9.72"/>
	<line x1="1726.31" y1="2540.53" x2="1726.31" y2="2475.73" style="stroke:#F0F0F0;stroke-width:9.72"/>
	<line x1="1726.31" y1="2443.33" x2="1726.31" y2="2378.53" style="stroke:#F0F0F0;stroke-width:9.72"/>
	<line x1="1726.31" y1="2346.13" x2="1726.31" y2="2281.33" style="stroke:#F0F0F0;stroke-width:9.72"/>
	<line x1="1726.31" y1="2248.93" x2="1726.31" y2="2184.13" style="stroke:#F0F0F0;stroke-width:9.72"/>
	<line x1="1726.31" y1="2151.73" x2="1726.31" y2="2086.93" style="stroke:#F0F0F0;stroke-width:9.72"/>
	<line x1="1726.31" y1="2054.53" x2="1726.31" y2="1989.73" style="stroke:#F0F0F0;stroke-width:9.72"/>
	<line x1="1726.31" y1="1957.33" x2="1726.31" y2="1892.53" style="stroke:#F0F0F0;stroke-width:9.72"/>
	<line x1="1726.31" y1="1860.13" x2="1726.31" y2="1795.33" style="stroke:#F0F0F0;stroke-width:9.72"/>
	<line x1="1726.31" y1="1762.93" x2="1726.31" y2="1698.13" style="stroke:#F0F0F0;stroke-width:9.72"/>
	<line x1="1726.31" y1="1665.73" x2="1726.31" y2="1600.93" style="stroke:#F0F0F0;stroke-width:9.72"/>
	<line x1="1726.31" y1="1568.53" x2="1726.31" y2="1503.73" style="stroke:#F0F0F0;stroke-width:9.72"/>
	<line x1="1726.31" y1="1471.33" x2="1726.31" y2="1406.53" style="stroke:#F0F0F0;stroke-width:9.72"/>
	<line x1="1726.31" y1="1374.13" x2="1726.31" y2="1309.33" style="stroke:#F0F0F0;stroke-width:9.72"/>
	<line x1="1726.31" y1="1276.93" x2="1726.31" y2="1212.13" style="stroke:#F0F0F0;stroke-width:9.72"/>
	<line x1="1726.31" y1="1179.73" x2="1726.31" y2="1114.93" style="stroke:#F0F0F0;stroke-width:9.72"/>
	<line x1="1726.31" y1="1082.53" x2="1726.31" y2="1017.73" style="stroke:#F0F0F0;stroke-width:9.72"/>
	<line x1="1726.31" y1="985.33" x2="1726.31" y2="920.53" style="stroke:#F0F0F0;stroke-width:9.72"/>
	<line x1="1726.31" y1="888.13" x2="1726.31" y2="823.33" style="stroke:#F0F0F0;stroke-width:9.72"/>
	<line x1="1726.31" y1="790.93" x2="1726.31" y2="726.13" style="stroke:#F0F0F0;stroke-width:9.72"/>
	<line x1="1726.31" y1="693.73" x2="1726.31" y2="628.93" style="stroke:#F0F0F0;stroke-width:9.72"/>
	<line x1="1726.31" y1="596.53" x2="1726.31" y2="531.73" style="stroke:#F0F0F0;stroke-width:9.72"/>
	<line x1="1726.31" y1="499.33" x2="1726.31" y2="434.53" style="stroke:#F0F0F0;stroke-width:9.72"/>
	<line x1="1726.31" y1="402.13" x2="1726.31" y2="337.33" style="stroke:#F0F0F0;stroke-width:9.72"/>
	<line x1="1726.31" y1="304.93" x2="1726.31" y2="240.13" style="stroke:#F0F0F0;stroke-width:9.72"/>
	<line x1="1726.31" y1="207.73" x2="1726.31" y2="142.93" style="stroke:#F0F0F0;stroke-width:9.72"/>
	<line x1="2307.82" y1="2637.73" x2="2307.82" y2="2572.93" style="stroke:#F0F0F0;stroke-width:9.72"/>
	<line x1="2307.82" y1="2540.53" x2="2307.82" y2="2475.73" style="stroke:#F0F0F0;stroke-width:9.72"/>
	<line x1="2307.82" y1="2443.33" x2="2307.82" y2="2378.53" style="stroke:#F0F0F0;stroke-width:9.72"/>
	<line x1="2307.82" y1="2346.13" x2="2307.82" y2="2281.33" style="stroke:#F0F0F0;stroke-width:9.72"/>
	<line x1="2307.82" y1="2248.93" x2="2307.82" y2="2184.13" style="stroke:#F0F0F0;stroke-width:9.72"/>
	<line x1="2307.82" y1="2151.73" x2="2307.82" y2="2086.93" style="stroke:#F0F0F0;stroke-width:9.72"/>
	<line x1="2307.82" y1="2054.53" x2="2307.82" y2="1989.73" style="stroke:#F0F0F0;stroke-width:9.72"/>
	<line x1="2307.82" y1="1957.33" x2="2307.82" y2="1892.53" style="stroke:#F0F0F0;stroke-width:9.72"/>
	<line x1="2307.82" y1="1860.13" x2="2307.82" y2="1795.33" style="stroke:#F0F0F0;stroke-width:9.72"/>
	<line x1="2307.82" y1="1762.93" x2="2307.82" y2="1698.13" style="stroke:#F0F0F0;stroke-width:9.72"/>
	<line x1="2307.82" y1="1665.73" x2="2307.82" y2="1600.93" style="stroke:#F0F0F0;stroke-width:9.72"/>
	<line x1="2307.82" y1="1568.53" x2="2307.82" y2="1503.73" style="stroke:#F0F0F0;stroke-width:9.72"/>
	<line x1="2307.82" y1="1471.33" x2="2307.82" y2="1406.53" style="stroke:#F0F0F0;stroke-width:9.72"/>
	<line x1="2307.82" y1="1374.13" x2="2307.82" y2="1309.33" style="stroke:#F0F0F0;stroke-width:9.72"/>
	<line x1="2307.82" y1="1276.93" x2="2307.82" y2="1212.13" style="stroke:#F0F0F0;stroke-width:9.72"/>
	<line x1="2307.82" y1="1179.73" x2="2307.82" y2="1114.93" style="stroke:#F0F0F0;stroke-width:9.72"/>
	<line x1="2307.82" y1="1082.53" x2="2307.82" y2="1017.73" style="stroke:#F0F0F0;stroke-width:9.72"/>
	<line x1="2307.82" y1="985.33" x2="2307.82" y2="920.53" style="stroke:#F0F0F0;stroke-width:9.72"/>
	<line x1="2307.82" y1="888.13" x2="2307.82" y2="823.33" style="stroke:#F0F0F0;stroke-width:9.72"/>
	<line x1="2307.82" y1="790.93" x2="2307.82" y2="726.13" style="stroke:#F0F0F0;stroke-width:9.72"/>
	<line x1="2307.82" y1="693.73" x2="2307.82" y2="628.93" style="stroke:#F0F0F0;stroke-width:9.72"/>
	<line x1="2307.82" y1="596.53" x2="2307.82" y2="531.73" style="stroke:#F0F0F0;stroke-width:9.72"/>
	<line x1="2307.82" y1="499.33" x2="2307.82" y2="434.53" style="stroke:#F0F0F0;stroke-width:9.72"/>
	<line x1="2307.82" y1="402.13" x2="2307.82" y2="337.33" style="stroke:#F0F0F0;stroke-width:9.72"/>
	<line x1="2307.82" y1="304.93" x2="2307.82" y2="240.13" style="stroke:#F0F0F0;stroke-width:9.72"/>
	<line x1="2307.82" y1="207.73" x2="2307.82" y2="142.93" style="stroke:#F0F0F0;stroke-width:9.72"/>
	<line x1="2889.34" y1="2637.73" x2="2889.34" y2="2572.93" style="stroke:#F0F0F0;stroke-width:9.72"/>
	<line x1="2889.34" y1="2540.53" x2="2889.34" y2="2475.73" style="stroke:#F0F0F0;stroke-width:9.72"/>
	<line x1="2889.34" y1="2443.33" x2="2889.34" y2="2378.53" style="stroke:#F0F0F0;stroke-width:9.72"/>
	<line x1="2889.34" y1="2346.13" x2="2889.34" y2="2281.33" style="stroke:#F0F0F0;stroke-width:9.72"/>
	<line x1="2889.34" y1="2248.93" x2="2889.34" y2="2184.13" style="stroke:#F0F0F0;stroke-width:9.72"/>
	<line x1="2889.34" y1="2151.73" x2="2889.34" y2="2086.93" style="stroke:#F0F0F0;stroke-width:9.72"/>
	<line x1="2889.34" y1="2054.53" x2="2889.34" y2="1989.73" style="stroke:#F0F0F0;stroke-width:9.72"/>
	<line x1="2889.34" y1="1957.33" x2="2889.34" y2="1892.53" style="stroke:#F0F0F0;stroke-width:9.72"/>
	<line x1="2889.34" y1="1860.13" x2="2889.34" y2="1795.33" style="stroke:#F0F0F0;stroke-width:9.72"/>
	<line x1="2889.34" y1="1762.93" x2="2889.34" y2="1698.13" style="stroke:#F0F0F0;stroke-width:9.72"/>
	<line x1="2889.34" y1="1665.73" x2="2889.34" y2="1600.93" style="stroke:#F0F0F0;stroke-width:9.72"/>
	<line x1="2889.34" y1="1568.53" x2="2889.34" y2="1503.73" style="stroke:#F0F0F0;stroke-width:9.72"/>
	<line x1="2889.34" y1="1471.33" x2="2889.34" y2="1406.53" style="stroke:#F0F0F0;stroke-width:9.72"/>
	<line x1="2889.34" y1="1374.13" x2="2889.34" y2="1309.33" style="stroke:#F0F0F0;stroke-width:9.72"/>
	<line x1="2889.34" y1="1276.93" x2="2889.34" y2="1212.13" style="stroke:#F0F0F0;stroke-width:9.72"/>
	<line x1="2889.34" y1="1179.73" x2="2889.34" y2="1114.93" style="stroke:#F0F0F0;stroke-width:9.72"/>
	<line x1="2889.34" y1="1082.53" x2="2889.34" y2="1017.73" style="stroke:#F0F0F0;stroke-width:9.72"/>
	<line x1="2889.34" y1="985.33" x2="2889.34" y2="920.53" style="stroke:#F0F0F0;stroke-width:9.72"/>
	<line x1="2889.34" y1="888.13" x2="2889.34" y2="823.33" style="stroke:#F0F0F0;stroke-width:9.72"/>
	<line x1="2889.34" y1="790.93" x2="2889.34" y2="726.13" style="stroke:#F0F0F0;stroke-width:9.72"/>
	<line x1="2889.34" y1="693.73" x2="2889.34" y2="628.93" style="stroke:#F0F0F0;stroke-width:9.72"/>
	<line x1="2889.34" y1="596.53" x2="2889.34" y2="531.73" style="stroke:#F0F0F0;stroke-width:9.72"/>
	<line x1="2889.34" y1="499.33" x2="2889.34" y2="434.53" style="stroke:#F0F0F0;stroke-width:9.72"/>
	<line x1="2889.34" y1="402.13" x2="2889.34" y2="337.33" style="stroke:#F0F0F0;stroke-width:9.72"/>
	<line x1="2889.34" y1="304.93" x2="2889.34" y2="240.13" style="stroke:#F0F0F0;stroke-width:9.72"/>
	<line x1="2889.34" y1="207.73" x2="2889.34" y2="142.93" style="stroke:#F0F0F0;stroke-width:9.72"/>
	<line x1="3470.85" y1="2637.73" x2="3470.85" y2="2572.93" style="stroke:#F0F0F0;stroke-width:9.72"/>
	<line x1="3470.85" y1="2540.53" x2="3470.85" y2="2475.73" style="stroke:#F0F0F0;stroke-width:9.72"/>
	<line x1="3470.85" y1="2443.33" x2="3470.85" y2="2378.53" style="stroke:#F0F0F0;stroke-width:9.72"/>
	<line x1="3470.85" y1="2346.13" x2="3470.85" y2="2281.33" style="stroke:#F0F0F0;stroke-width:9.72"/>
	<line x1="3470.85" y1="2248.93" x2="3470.85" y2="2184.13" style="stroke:#F0F0F0;stroke-width:9.72"/>
	<line x1="3470.85" y1="2151.73" x2="3470.85" y2="2086.93" style="stroke:#F0F0F0;stroke-width:9.72"/>
	<line x1="3470.85" y1="2054.53" x2="3470.85" y2="1989.73" style="stroke:#F0F0F0;stroke-width:9.72"/>
	<line x1="3470.85" y1="1957.33" x2="3470.85" y2="1892.53" style="stroke:#F0F0F0;stroke-width:9.72"/>
	<line x1="3470.85" y1="1860.13" x2="3470.85" y2="1795.33" style="stroke:#F0F0F0;stroke-width:9.72"/>
	<line x1="3470.85" y1="1762.93" x2="3470.85" y2="1698.13" style="stroke:#F0F0F0;stroke-width:9.72"/>
	<line x1="3470.85" y1="1665.73" x2="3470.85" y2="1600.93" style="stroke:#F0F0F0;stroke-width:9.72"/>
	<line x1="3470.85" y1="1568.53" x2="3470.85" y2="1503.73" style="stroke:#F0F0F0;stroke-width:9.72"/>
	<line x1="3470.85" y1="1471.33" x2="3470.85" y2="1406.53" style="stroke:#F0F0F0;stroke-width:9.72"/>
	<line x1="3470.85" y1="1374.13" x2="3470.85" y2="1309.33" style="stroke:#F0F0F0;stroke-width:9.72"/>
	<line x1="3470.85" y1="1276.93" x2="3470.85" y2="1212.13" style="stroke:#F0F0F0;stroke-width:9.72"/>
	<line x1="3470.85" y1="1179.73" x2="3470.85" y2="1114.93" style="stroke:#F0F0F0;stroke-width:9.72"/>
	<line x1="3470.85" y1="1082.53" x2="3470.85" y2="1017.73" style="stroke:#F0F0F0;stroke-width:9.72"/>
	<line x1="3470.85" y1="985.33" x2="3470.85" y2="920.53" style="stroke:#F0F0F0;stroke-width:9.72"/>
	<line x1="3470.85" y1="888.13" x2="3470.85" y2="823.33" style="stroke:#F0F0F0;stroke-width:9.72"/>
	<line x1="3470.85" y1="790.93" x2="3470.85" y2="726.13" style="stroke:#F0F0F0;stroke-width:9.72"/>
	<line x1="3470.85" y1="693.73" x2="3470.85" y2="628.93" style="stroke:#F0F0F0;stroke-width:9.72"/>
	<line x1="3470.85" y1="596.53" x2="3470.85" y2="531.73" style="stroke:#F0F0F0;stroke-width:9.72"/>
	<line x1="3470.85" y1="499.33" x2="3470.85" y2="434.53" style="stroke:#F0F0F0;stroke-width:9.72"/>
	<line x1="3470.85" y1="402.13" x2="3470.85" y2="337.33" style="stroke:#F0F0F0;stroke-width:9.72"/>
	<line x1="3470.85" y1="304.93" x2="3470.85" y2="240.13" style="stroke:#F0F0F0;stroke-width:9.72"/>
	<line x1="3470.85" y1="207.73" x2="3470.85" y2="142.93" style="stroke:#F0F0F0;stroke-width:9.72"/>
	<line x1="4052.36" y1="2637.73" x2="4052.36" y2="2572.93" style="stroke:#F0F0F0;stroke-width:9.72"/>
	<line x1="4052.36" y1="2540.53" x2="4052.36" y2="2475.73" style="stroke:#F0F0F0;stroke-width:9.72"/>
	<line x1="4052.36" y1="2443.33" x2="4052.36" y2="2378.53" style="stroke:#F0F0F0;stroke-width:9.72"/>
	<line x1="4052.36" y1="2346.13" x2="4052.36" y2="2281.33" style="stroke:#F0F0F0;stroke-width:9.72"/>
	<line x1="4052.36" y1="2248.93" x2="4052.36" y2="2184.13" style="stroke:#F0F0F0;stroke-width:9.72"/>
	<line x1="4052.36" y1="2151.73" x2="4052.36" y2="2086.93" style="stroke:#F0F0F0;stroke-width:9.72"/>
	<line x1="4052.36" y1="2054.53" x2="4052.36" y2="1989.73" style="stroke:#F0F0F0;stroke-width:9.72"/>
	<line x1="4052.36" y1="1957.33" x2="4052.36" y2="1892.53" style="stroke:#F0F0F0;stroke-width:9.72"/>
	<line x1="4052.36" y1="1860.13" x2="4052.36" y2="1795.33" style="stroke:#F0F0F0;stroke-width:9.72"/>
	<line x1="4052.36" y1="1762.93" x2="4052.36" y2="1698.13" style="stroke:#F0F0F0;stroke-width:9.72"/>
	<line x1="4052.36" y1="1665.73" x2="4052.36" y2="1600.93" style="stroke:#F0F0F0;stroke-width:9.72"/>
	<line x1="4052.36" y1="1568.53" x2="4052.36" y2="1503.73" style="stroke:#F0F0F0;stroke-width:9.72"/>
	<line x1="4052.36" y1="1471.33" x2="4052.36" y2="1406.53" style="stroke:#F0F0F0;stroke-width:9.72"/>
	<line x1="4052.36" y1="1374.13" x2="4052.36" y2="1309.33" style="stroke:#F0F0F0;stroke-width:9.72"/>
	<line x1="4052.36" y1="1276.93" x2="4052.36" y2="1212.13" style="stroke:#F0F0F0;stroke-width:9.72"/>
	<line x1="4052.36" y1="1179.73" x2="4052.36" y2="1114.93" style="stroke:#F0F0F0;stroke-width:9.72"/>
	<line x1="4052.36" y1="1082.53" x2="4052.36" y2="1017.73" style="stroke:#F0F0F0;stroke-width:9.72"/>
	<line x1="4052.36" y1="985.33" x2="4052.36" y2="920.53" style="stroke:#F0F0F0;stroke-width:9.72"/>
	<line x1="4052.36" y1="888.13" x2="4052.36" y2="823.33" style="stroke:#F0F0F0;stroke-width:9.72"/>
	<line x1="4052.36" y1="790.93" x2="4052.36" y2="726.13" style="stroke:#F0F0F0;stroke-width:9.72"/>
	<line x1="4052.36" y1="693.73" x2="4052.36" y2="628.93" style="stroke:#F0F0F0;stroke-width:9.72"/>
	<line x1="4052.36" y1="596.53" x2="4052.36" y2="531.73" style="stroke:#F0F0F0;stroke-width:9.72"/>
	<line x1="4052.36" y1="499.33" x2="4052.36" y2="434.53" style="stroke:#F0F0F0;stroke-width:9.72"/>
	<line x1="4052.36" y1="402.13" x2="4052.36" y2="337.33" style="stroke:#F0F0F0;stroke-width:9.72"/>
	<line x1="4052.36" y1="304.93" x2="4052.36" y2="240.13" style="stroke:#F0F0F0;stroke-width:9.72"/>
	<line x1="4052.36" y1="207.73" x2="4052.36" y2="142.93" style="stroke:#F0F0F0;stroke-width:9.72"/>
	<line x1="4633.88" y1="2637.73" x2="4633.88" y2="2572.93" style="stroke:#F0F0F0;stroke-width:9.72"/>
	<line x1="4633.88" y1="2540.53" x2="4633.88" y2="2475.73" style="stroke:#F0F0F0;stroke-width:9.72"/>
	<line x1="4633.88" y1="2443.33" x2="4633.88" y2="2378.53" style="stroke:#F0F0F0;stroke-width:9.72"/>
	<line x1="4633.88" y1="2346.13" x2="4633.88" y2="2281.33" style="stroke:#F0F0F0;stroke-width:9.72"/>
	<line x1="4633.88" y1="2248.93" x2="4633.88" y2="2184.13" style="stroke:#F0F0F0;stroke-width:9.72"/>
	<line x1="4633.88" y1="2151.73" x2="4633.88" y2="2086.93" style="stroke:#F0F0F0;stroke-width:9.72"/>
	<line x1="4633.88" y1="2054.53" x2="4633.88" y2="1989.73" style="stroke:#F0F0F0;stroke-width:9.72"/>
	<line x1="4633.88" y1="1957.33" x2="4633.88" y2="1892.53" style="stroke:#F0F0F0;stroke-width:9.72"/>
	<line x1="4633.88" y1="1860.13" x2="4633.88" y2="1795.33" style="stroke:#F0F0F0;stroke-width:9.72"/>
	<line x1="4633.88" y1="1762.93" x2="4633.88" y2="1698.13" style="stroke:#F0F0F0;stroke-width:9.72"/>
	<line x1="4633.88" y1="1665.73" x2="4633.88" y2="1600.93" style="stroke:#F0F0F0;stroke-width:9.72"/>
	<line x1="4633.88" y1="1568.53" x2="4633.88" y2="1503.73" style="stroke:#F0F0F0;stroke-width:9.72"/>
	<line x1="4633.88" y1="1471.33" x2="4633.88" y2="1406.53" style="stroke:#F0F0F0;stroke-width:9.72"/>
	<line x1="4633.88" y1="1374.13" x2="4633.88" y2="1309.33" style="stroke:#F0F0F0;stroke-width:9.72"/>
	<line x1="4633.88" y1="1276.93" x2="4633.88" y2="1212.13" style="stroke:#F0F0F0;stroke-width:9.72"/>
	<line x1="4633.88" y1="1179.73" x2="4633.88" y2="1114.93" style="stroke:#F0F0F0;stroke-width:9.72"/>
	<line x1="4633.88" y1="1082.53" x2="4633.88" y2="1017.73" style="stroke:#F0F0F0;stroke-width:9.72"/>
	<line x1="4633.88" y1="985.33" x2="4633.88" y2="920.53" style="stroke:#F0F0F0;stroke-width:9.72"/>
	<line x1="4633.88" y1="888.13" x2="4633.88" y2="823.33" style="stroke:#F0F0F0;stroke-width:9.72"/>
	<line x1="4633.88" y1="790.93" x2="4633.88" y2="726.13" style="stroke:#F0F0F0;stroke-width:9.72"/>
	<line x1="4633.88" y1="693.73" x2="4633.88" y2="628.93" style="stroke:#F0F0F0;stroke-width:9.72"/>
	<line x1="4633.88" y1="596.53" x2="4633.88" y2="531.73" style="stroke:#F0F0F0;stroke-width:9.72"/>
	<line x1="4633.88" y1="499.33" x2="4633.88" y2="434.53" style="stroke:#F0F0F0;stroke-width:9.72"/>
	<line x1="4633.88" y1="402.13" x2="4633.88" y2="337.33" style="stroke:#F0F0F0;stroke-width:9.72"/>
	<line x1="4633.88" y1="304.93" x2="4633.88" y2="240.13" style="stroke:#F0F0F0;stroke-width:9.72"/>
	<line x1="4633.88" y1="207.73" x2="4633.88" y2="142.93" style="stroke:#F0F0F0;stroke-width:9.72"/>
	<line x1="5215.39" y1="2637.73" x2="5215.39" y2="2572.93" style="stroke:#F0F0F0;stroke-width:9.72"/>
	<line x1="5215.39" y1="2540.53" x2="5215.39" y2="2475.73" style="stroke:#F0F0F0;stroke-width:9.72"/>
	<line x1="5215.39" y1="2443.33" x2="5215.39" y2="2378.53" style="stroke:#F0F0F0;stroke-width:9.72"/>
	<line x1="5215.39" y1="2346.13" x2="5215.39" y2="2281.33" style="stroke:#F0F0F0;stroke-width:9.72"/>
	<line x1="5215.39" y1="2248.93" x2="5215.39" y2="2184.13" style="stroke:#F0F0F0;stroke-width:9.72"/>
	<line x1="5215.39" y1="2151.73" x2="5215.39" y2="2086.93" style="stroke:#F0F0F0;stroke-width:9.72"/>
	<line x1="5215.39" y1="2054.53" x2="5215.39" y2="1989.73" style="stroke:#F0F0F0;stroke-width:9.72"/>
	<line x1="5215.39" y1="1957.33" x2="5215.39" y2="1892.53" style="stroke:#F0F0F0;stroke-width:9.72"/>
	<line x1="5215.39" y1="1860.13" x2="5215.39" y2="1795.33" style="stroke:#F0F0F0;stroke-width:9.72"/>
	<line x1="5215.39" y1="1762.93" x2="5215.39" y2="1698.13" style="stroke:#F0F0F0;stroke-width:9.72"/>
	<line x1="5215.39" y1="1665.73" x2="5215.39" y2="1600.93" style="stroke:#F0F0F0;stroke-width:9.72"/>
	<line x1="5215.39" y1="1568.53" x2="5215.39" y2="1503.73" style="stroke:#F0F0F0;stroke-width:9.72"/>
	<line x1="5215.39" y1="1471.33" x2="5215.39" y2="1406.53" style="stroke:#F0F0F0;stroke-width:9.72"/>
	<line x1="5215.39" y1="1374.13" x2="5215.39" y2="1309.33" style="stroke:#F0F0F0;stroke-width:9.72"/>
	<line x1="5215.39" y1="1276.93" x2="5215.39" y2="1212.13" style="stroke:#F0F0F0;stroke-width:9.72"/>
	<line x1="5215.39" y1="1179.73" x2="5215.39" y2="1114.93" style="stroke:#F0F0F0;stroke-width:9.72"/>
	<line x1="5215.39" y1="1082.53" x2="5215.39" y2="1017.73" style="stroke:#F0F0F0;stroke-width:9.72"/>
	<line x1="5215.39" y1="985.33" x2="5215.39" y2="920.53" style="stroke:#F0F0F0;stroke-width:9.72"/>
	<line x1="5215.39" y1="888.13" x2="5215.39" y2="823.33" style="stroke:#F0F0F0;stroke-width:9.72"/>
	<line x1="5215.39" y1="790.93" x2="5215.39" y2="726.13" style="stroke:#F0F0F0;stroke-width:9.72"/>
	<line x1="5215.39" y1="693.73" x2="5215.39" y2="628.93" style="stroke:#F0F0F0;stroke-width:9.72"/>
	<line x1="5215.39" y1="596.53" x2="5215.39" y2="531.73" style="stroke:#F0F0F0;stroke-width:9.72"/>
	<line x1="5215.39" y1="499.33" x2="5215.39" y2="434.53" style="stroke:#F0F0F0;stroke-width:9.72"/>
	<line x1="5215.39" y1="402.13" x2="5215.39" y2="337.33" style="stroke:#F0F0F0;stroke-width:9.72"/>
	<line x1="5215.39" y1="304.93" x2="5215.39" y2="240.13" style="stroke:#F0F0F0;stroke-width:9.72"/>
	<line x1="5215.39" y1="207.73" x2="5215.39" y2="142.93" style="stroke:#F0F0F0;stroke-width:9.72"/>
	<defs>
		<path id="path_AtEexmDi" d="M3261.60 1018.74 L3261.60 1018.74 L3273.08 1038.66 L3284.72 1059.07 L3296.36 1079.66 L3308.01 1100.76 L3319.65 1122.02 L3331.29 1143.45 L3342.94 1165.22 L3354.58 1187.16 L3366.23 1209.43 L3377.87 1231.71 L3389.51 1254.15 L3401.16 1276.93 L3412.63 1299.54 L3424.28 1322.49 L3435.92 1345.44 L3447.56 1368.39 L3459.21 1391.34 L3470.85 1414.46 L3482.49 1437.41 L3494.14 1460.53 L3505.78 1483.48 L3517.43 1506.43 L3529.07 1529.21 L3540.71 1551.99 L3552.19 1574.61 L3563.83 1597.22 L3575.48 1619.66 L3587.12 1641.94 L3598.76 1664.04 L3610.41 1685.98 L3622.05 1707.58 L3633.69 1729.18 L3645.34 1750.44 L3656.98 1771.54 L3668.63 1792.46 L3680.27 1813.05 L3691.74 1833.30 L3703.39 1853.38 L3715.03 1873.29 L3726.68 1892.70 L3738.32 1911.94 L3749.96 1931.01 L3761.61 1949.57 L3773.25 1967.96 L3784.89 1985.85 L3796.54 2003.57 L3808.18 2020.95 L3819.83 2037.99 L3831.30 2054.70 L3842.94 2071.07 L3854.59 2087.27 L3866.23 2102.96 L3877.88 2118.32 L3889.52 2133.34 L3901.16 2148.02 L3912.81 2162.36 L3924.45 2176.37 L3936.09 2190.04 L3947.74 2203.37 L3959.38 2216.53 L3970.86 2229.19 L3982.50 2241.51 L3994.14 2253.49 L4005.79 2265.13 L4017.43 2276.61 L4029.08 2287.57 L4040.72 2298.38 L4052.36 2308.84 L4064.01 2318.96 L4075.65 2328.75 L4087.29 2338.20 L4098.94 2347.48 L4110.41 2356.43 L4122.06 2365.03 L4133.70 2373.47 L4145.34 2381.57 L4156.99 2389.33 L4168.63 2396.93 L4180.27 2404.18 L4191.92 2411.27 L4203.56 2418.02 L4215.21 2424.60 L4226.85 2431.01 L4238.49 2437.09 L4249.97 2442.82 L4261.61 2448.56 L4273.26 2453.96 L4284.90 2459.19 L4296.54 2464.26 L4308.19 2468.98 L4319.83 2473.71 L4331.48 2478.09 L4343.12 2482.48 L4354.76 2486.53 L4366.41 2490.41 L4378.05 2494.13 L4389.52 2497.84 L4401.17 2501.21 L4412.81 2504.59 L4424.46 2507.63 L4436.10 2510.66 L4447.74 2513.53 L4459.39 2516.40 L4471.03 2518.93 L4482.68 2521.46 L4494.32 2523.82 L4505.96 2526.19 L4517.61 2528.38 L4529.08 2530.41 L4540.73 2532.43 L4552.37 2534.29 L4564.01 2535.98 L4575.66 2537.66 L4587.30 2539.35 L4598.94 2540.87 L4610.59 2542.39 L4622.23 2543.74 L4633.88 2545.09 L4645.52 2546.27 L4657.16 2547.45 L4668.81 2548.63 L4680.28 2549.64 L4691.93 2550.66 L4703.57 2551.50 L4715.21 2552.51 L4726.86 2553.36 L4738.50 2554.03 L4750.14 2554.88 L4761.79 2555.55 L4773.43 2556.23 L4785.08 2556.90 L4796.72 2557.57 L4808.36 2558.08 L4819.84 2558.59 L4831.48 2559.09 L4843.13 2559.60 L4854.77 2559.94 L4866.41 2560.44 L4878.06 2560.78 L4889.70 2561.12 L4901.34 2561.63 L4912.99 2561.79 L4924.63 2562.13 L4936.27 2562.47 L4947.92 2562.81 L4959.39 2562.98 L4971.04 2563.14 L4982.68 2563.48 L4994.33 2563.65 L5005.97 2563.82 L5017.61 2563.99 L5029.26 2564.16 L5040.90 2564.32 L5052.54 2564.49 L5064.19 2564.66 L5075.83 2564.83 L5087.48 2564.83 L5098.95 2565.00 L5110.59 2565.17 L5122.24 2565.17 L5133.88 2565.34 L5145.52 2565.34 L5157.17 2565.51 L5168.81 2565.51 L5180.46 2565.68 L5192.10 2565.68 L5203.74 2565.68 L5215.39 2565.84 L5215.39 2566.52 L5203.74 2566.52 L5192.10 2566.52 L5180.46 2566.52 L5168.81 2566.52 L5157.17 2566.52 L5145.52 2566.52 L5133.88 2566.52 L5122.24 2566.52 L5110.59 2566.52 L5098.95 2566.52 L5087.48 2566.52 L5075.83 2566.52 L5064.19 2566.52 L5052.54 2566.52 L5040.90 2566.52 L5029.26 2566.52 L5017.61 2566.52 L5005.97 2566.52 L4994.33 2566.52 L4982.68 2566.52 L4971.04 2566.52 L4959.39 2566.52 L4947.92 2566.52 L4936.27 2566.52 L4924.63 2566.52 L4912.99 2566.52 L4901.34 2566.52 L4889.70 2566.52 L4878.06 2566.52 L4866.41 2566.52 L4854.77 2566.52 L4843.13 2566.52 L4831.48 2566.52 L4819.84 2566.52 L4808.36 2566.52 L4796.72 2566.52 L4785.08 2566.52 L4773.43 2566.52 L4761.79 2566.52 L4750.14 2566.52 L4738.50 2566.52 L4726.86 2566.52 L4715.21 2566.52 L4703.57 2566.52 L4691.93 2566.52 L4680.28 2566.52 L4668.81 2566.52 L4657.16 2566.52 L4645.52 2566.52 L4633.88 2566.52 L4622.23 2566.52 L4610.59 2566.52 L4598.94 2566.52 L4587.30 2566.52 L4575.66 2566.52 L4564.01 2566.52 L4552.37 2566.52 L4540.73 2566.52 L4529.08 2566.52 L4517.61 2566.52 L4505.96 2566.52 L4494.32 2566.52 L4482.68 2566.52 L4471.03 2566.52 L4459.39 2566.52 L4447.74 2566.52 L4436.10 2566.52 L4424.46 2566.52 L4412.81 2566.52 L4401.17 2566.52 L4389.52 2566.52 L4378.05 2566.52 L4366.41 2566.52 L4354.76 2566.52 L4343.12 2566.52 L4331.48 2566.52 L4319.83 2566.52 L4308.19 2566.52 L4296.54 2566.52 L4284.90 2566.52 L4273.26 2566.52 L4261.61 2566.52 L4249.97 2566.52 L4238.49 2566.52 L4226.85 2566.52 L4215.21 2566.52 L4203.56 2566.52 L4191.92 2566.52 L4180.27 2566.52 L4168.63 2566.52 L4156.99 2566.52 L4145.34 2566.52 L4133.70 2566.52 L4122.06 2566.52 L4110.41 2566.52 L4098.94 2566.52 L4087.29 2566.52 L4075.65 2566.52 L4064.01 2566.52 L4052.36 2566.52 L4040.72 2566.52 L4029.08 2566.52 L4017.43 2566.52 L4005.79 2566.52 L3994.14 2566.52 L3982.50 2566.52 L3970.86 2566.52 L3959.38 2566.52 L3947.74 2566.52 L3936.09 2566.52 L3924.45 2566.52 L3912.81 2566.52 L3901.16 2566.52 L3889.52 2566.52 L3877.88 2566.52 L3866.23 2566.52 L3854.59 2566.52 L3842.94 2566.52 L3831.30 2566.52 L3819.83 2566.52 L3808.18 2566.52 L3796.54 2566.52 L3784.89 2566.52 L3773.25 2566.52 L3761.61 2566.52 L3749.96 2566.52 L3738.32 2566.52 L3726.68 2566.52 L3715.03 2566.52 L3703.39 2566.52 L3691.74 2566.52 L3680.27 2566.52 L3668.63 2566.52 L3656.98 2566.52 L3645.34 2566.52 L3633.69 2566.52 L3622.05 2566.52 L3610.41 2566.52 L3598.76 2566.52 L3587.12 2566.52 L3575.48 2566.52 L3563.83 2566.52 L3552.19 2566.52 L3540.71 2566.52 L3529.07 2566.52 L3517.43 2566.52 L3505.78 2566.52 L3494.14 2566.52 L3482.49 2566.52 L3470.85 2566.52 L3459.21 2566.52 L3447.56 2566.52 L3435.92 2566.52 L3424.28 2566.52 L3412.63 2566.52 L3401.16 2566.52 L3389.51 2566.52 L3377.87 2566.52 L3366.23 2566.52 L3354.58 2566.52 L3342.94 2566.52 L3331.29 2566.52 L3319.65 2566.52 L3308.01 2566.52 L3296.36 2566.52 L3284.72 2566.52 L3273.08 2566.52 L3261.60 2566.52 L3261.60 1018.74 Z" stroke-linejoin="round"/>
	</defs>
	<defs>
		<clipPath id="clipPath_PZvkkKqa">
			<use xlink:href="#path_AtEexmDi"/>
		</clipPath>
	</defs>
	<use xlink:href="#path_AtEexmDi" style="stroke:none;fill:#FF3333;fill-opacity:0.30"/>
	<use xlink:href="#path_AtEexmDi" style="fill:none;stroke:#FFFFFF;stroke-opacity:0.30;stroke-width:19.44" clip-path="url(#clipPath_PZvkkKqa)"/>
	<defs>
		<path id="path_wpXindyq" d="M563.46 2565.84 L563.46 2565.84 L575.10 2565.68 L586.74 2565.68 L598.39 2565.68 L609.86 2565.51 L621.51 2565.51 L633.15 2565.34 L644.79 2565.34 L656.44 2565.17 L668.08 2565.17 L679.73 2565.00 L691.37 2564.83 L703.01 2564.83 L714.66 2564.66 L726.30 2564.49 L737.94 2564.32 L749.42 2564.16 L761.06 2563.99 L772.71 2563.82 L784.35 2563.65 L795.99 2563.48 L807.64 2563.14 L819.28 2562.98 L830.93 2562.81 L842.57 2562.47 L854.21 2562.13 L865.86 2561.79 L877.50 2561.63 L888.98 2561.12 L900.62 2560.78 L912.26 2560.44 L923.91 2559.94 L935.55 2559.60 L947.19 2559.09 L958.84 2558.59 L970.48 2558.08 L982.13 2557.57 L993.77 2556.90 L1005.41 2556.23 L1017.06 2555.55 L1028.53 2554.88 L1040.18 2554.03 L1051.82 2553.36 L1063.46 2552.51 L1075.11 2551.50 L1086.75 2550.66 L1098.39 2549.64 L1110.04 2548.63 L1121.68 2547.45 L1133.33 2546.27 L1144.97 2545.09 L1156.61 2543.74 L1168.09 2542.39 L1179.73 2540.87 L1191.38 2539.35 L1203.02 2537.66 L1214.66 2535.98 L1226.31 2534.29 L1237.95 2532.43 L1249.59 2530.41 L1261.24 2528.38 L1272.88 2526.19 L1284.53 2523.82 L1296.17 2521.46 L1307.64 2518.93 L1319.29 2516.40 L1330.93 2513.53 L1342.58 2510.66 L1354.22 2507.63 L1365.86 2504.59 L1377.51 2501.21 L1389.15 2497.84 L1400.79 2494.13 L1412.44 2490.41 L1424.08 2486.53 L1435.73 2482.48 L1447.20 2478.09 L1458.84 2473.71 L1470.49 2468.98 L1482.13 2464.26 L1493.78 2459.19 L1505.42 2453.96 L1517.06 2448.56 L1528.71 2442.82 L1540.35 2437.09 L1551.99 2431.01 L1563.64 2424.60 L1575.28 2418.02 L1586.76 2411.27 L1598.40 2404.18 L1610.04 2396.93 L1621.69 2389.33 L1633.33 2381.57 L1644.98 2373.47 L1656.62 2365.03 L1668.26 2356.43 L1679.91 2347.48 L1691.55 2338.20 L1703.19 2328.75 L1714.84 2318.96 L1726.31 2308.84 L1737.96 2298.38 L1749.60 2287.57 L1761.24 2276.61 L1772.89 2265.13 L1784.53 2253.49 L1796.18 2241.51 L1807.82 2229.19 L1819.46 2216.53 L1831.11 2203.37 L1842.75 2190.04 L1854.39 2176.37 L1865.87 2162.36 L1877.51 2148.02 L1889.16 2133.34 L1900.80 2118.32 L1912.44 2102.96 L1924.09 2087.27 L1935.73 2071.07 L1947.38 2054.70 L1959.02 2037.99 L1970.66 2020.95 L1982.31 2003.57 L1993.95 1985.85 L2005.43 1967.96 L2017.07 1949.57 L2028.71 1931.01 L2040.36 1911.94 L2052.00 1892.70 L2063.64 1873.29 L2075.29 1853.38 L2086.93 1833.30 L2098.57 1813.05 L2110.22 1792.46 L2121.86 1771.54 L2133.51 1750.44 L2145.15 1729.18 L2156.63 1707.58 L2168.27 1685.98 L2179.91 1664.04 L2191.56 1641.94 L2203.20 1619.66 L2214.84 1597.22 L2226.49 1574.61 L2238.13 1551.99 L2249.78 1529.21 L2261.42 1506.43 L2273.06 1483.48 L2284.71 1460.53 L2296.18 1437.41 L2307.82 1414.46 L2319.47 1391.34 L2331.11 1368.39 L2342.76 1345.44 L2354.40 1322.49 L2366.04 1299.54 L2377.69 1276.93 L2389.33 1254.15 L2400.98 1231.71 L2412.62 1209.43 L2424.26 1187.16 L2435.74 1165.22 L2447.38 1143.45 L2459.03 1122.02 L2470.67 1100.76 L2482.31 1079.66 L2493.96 1059.07 L2505.60 1038.66 L2517.24 1018.74 L2517.24 2566.52 L2505.60 2566.52 L2493.96 2566.52 L2482.31 2566.52 L2470.67 2566.52 L2459.03 2566.52 L2447.38 2566.52 L2435.74 2566.52 L2424.26 2566.52 L2412.62 2566.52 L2400.98 2566.52 L2389.33 2566.52 L2377.69 2566.52 L2366.04 2566.52 L2354.40 2566.52 L2342.76 2566.52 L2331.11 2566.52 L2319.47 2566.52 L2307.82 2566.52 L2296.18 2566.52 L2284.71 2566.52 L2273.06 2566.52 L2261.42 2566.52 L2249.78 2566.52 L2238.13 2566.52 L2226.49 2566.52 L2214.84 2566.52 L2203.20 2566.52 L2191.56 2566.52 L2179.91 2566.52 L2168.27 2566.52 L2156.63 2566.52 L2145.15 2566.52 L2133.51 2566.52 L2121.86 2566.52 L2110.22 2566.52 L2098.57 2566.52 L2086.93 2566.52 L2075.29 2566.52 L2063.64 2566.52 L2052.00 2566.52 L2040.36 2566.52 L2028.71 2566.52 L2017.07 2566.52 L2005.43 2566.52 L1993.95 2566.52 L1982.31 2566.52 L1970.66 2566.52 L1959.02 2566.52 L1947.38 2566.52 L1935.73 2566.52 L1924.09 2566.52 L1912.44 2566.52 L1900.80 2566.52 L1889.16 2566.52 L1877.51 2566.52 L1865.87 2566.52 L1854.39 2566.52 L1842.75 2566.52 L1831.11 2566.52 L1819.46 2566.52 L1807.82 2566.52 L1796.18 2566.52 L1784.53 2566.52 L1772.89 2566.52 L1761.24 2566.52 L1749.60 2566.52 L1737.96 2566.52 L1726.31 2566.52 L1714.84 2566.52 L1703.19 2566.52 L1691.55 2566.52 L1679.91 2566.52 L1668.26 2566.52 L1656.62 2566.52 L1644.98 2566.52 L1633.33 2566.52 L1621.69 2566.52 L1610.04 2566.52 L1598.40 2566.52 L1586.76 2566.52 L1575.28 2566.52 L1563.64 2566.52 L1551.99 2566.52 L1540.35 2566.52 L1528.71 2566.52 L1517.06 2566.52 L1505.42 2566.52 L1493.78 2566.52 L1482.13 2566.52 L1470.49 2566.52 L1458.84 2566.52 L1447.20 2566.52 L1435.73 2566.52 L1424.08 2566.52 L1412.44 2566.52 L1400.79 2566.52 L1389.15 2566.52 L1377.51 2566.52 L1365.86 2566.52 L1354.22 2566.52 L1342.58 2566.52 L1330.93 2566.52 L1319.29 2566.52 L1307.64 2566.52 L1296.17 2566.52 L1284.53 2566.52 L1272.88 2566.52 L1261.24 2566.52 L1249.59 2566.52 L1237.95 2566.52 L1226.31 2566.52 L1214.66 2566.52 L1203.02 2566.52 L1191.38 2566.52 L1179.73 2566.52 L1168.09 2566.52 L1156.61 2566.52 L1144.97 2566.52 L1133.33 2566.52 L1121.68 2566.52 L1110.04 2566.52 L1098.39 2566.52 L1086.75 2566.52 L1075.11 2566.52 L1063.46 2566.52 L1051.82 2566.52 L1040.18 2566.52 L1028.53 2566.52 L1017.06 2566.52 L1005.41 2566.52 L993.77 2566.52 L982.13 2566.52 L970.48 2566.52 L958.84 2566.52 L947.19 2566.52 L935.55 2566.52 L923.91 2566.52 L912.26 2566.52 L900.62 2566.52 L888.98 2566.52 L877.50 2566.52 L865.86 2566.52 L854.21 2566.52 L842.57 2566.52 L830.93 2566.52 L819.28 2566.52 L807.64 2566.52 L795.99 2566.52 L784.35 2566.52 L772.71 2566.52 L761.06 2566.52 L749.42 2566.52 L737.94 2566.52 L726.30 2566.52 L714.66 2566.52 L703.01 2566.52 L691.37 2566.52 L679.73 2566.52 L668.08 2566.52 L656.44 2566.52 L644.79 2566.52 L633.15 2566.52 L621.51 2566.52 L609.86 2566.52 L598.39 2566.52 L586.74 2566.52 L575.10 2566.52 L563.46 2566.52 L563.46 2565.84 Z" stroke-linejoin="round"/>
	</defs>
	<defs>
		<clipPath id="clipPath_HejnkPAG">
			<use xlink:href="#path_wpXindyq"/>
		</clipPath>
	</defs>
	<use xlink:href="#path_wpXindyq" style="stroke:none;fill:#FF3333;fill-opacity:0.30"/>
	<use xlink:href="#path_wpXindyq" style="fill:none;stroke:#FFFFFF;stroke-opacity:0.30;stroke-width:19.44" clip-path="url(#clipPath_HejnkPAG)"/>
	<path d=" M563.29 2565.84 L574.93 2565.84 L586.58 2565.84 L598.22 2565.68 L609.86 2565.68 L621.51 2565.51 L633.15 2565.51 L644.79 2565.34 L656.44 2565.34 L668.08 2565.17 L679.56 2565.17 L691.20 2565.00 L702.84 2564.83 L714.49 2564.66 L726.13 2564.66 L737.78 2564.49 L749.42 2564.32 L761.06 2564.16 L772.71 2563.99 L784.35 2563.82 L795.99 2563.48 L807.64 2563.31 L819.11 2563.14 L830.76 2562.81 L842.40 2562.47 L854.04 2562.30 L865.69 2561.96 L877.33 2561.63 L888.98 2561.29 L900.62 2560.95 L912.26 2560.44 L923.91 2560.11 L935.55 2559.60 L947.19 2559.26 L958.67 2558.76 L970.31 2558.08 L981.96 2557.57 L993.60 2556.90 L1005.24 2556.39 L1016.89 2555.72 L1028.53 2554.88 L1040.18 2554.20 L1051.82 2553.36 L1063.46 2552.51 L1075.11 2551.67 L1086.75 2550.66 L1098.22 2549.64 L1109.87 2548.63 L1121.51 2547.45 L1133.16 2546.27 L1144.80 2545.09 L1156.44 2543.74 L1168.09 2542.39 L1179.73 2540.87 L1191.38 2539.35 L1203.02 2537.83 L1214.66 2536.14 L1226.31 2534.29 L1237.78 2532.43 L1249.43 2530.41 L1261.07 2528.38 L1272.71 2526.19 L1284.36 2523.99 L1296.00 2521.63 L1307.64 2519.10 L1319.29 2516.40 L1330.93 2513.70 L1342.58 2510.83 L1354.22 2507.79 L1365.86 2504.59 L1377.34 2501.38 L1388.98 2497.84 L1400.63 2494.29 L1412.27 2490.58 L1423.91 2486.53 L1435.56 2482.48 L1447.20 2478.26 L1458.84 2473.71 L1470.49 2469.15 L1482.13 2464.26 L1493.78 2459.36 L1505.42 2454.13 L1516.89 2448.56 L1528.54 2442.99 L1540.18 2437.09 L1551.83 2431.01 L1563.47 2424.77 L1575.11 2418.19 L1586.76 2411.27 L1598.40 2404.35 L1610.04 2396.93 L1621.69 2389.50 L1633.33 2381.57 L1644.98 2373.47 L1656.45 2365.20 L1668.09 2356.43 L1679.74 2347.65 L1691.38 2338.37 L1703.03 2328.75 L1714.67 2318.96 L1726.31 2308.84 L1737.96 2298.54 L1749.60 2287.74 L1761.24 2276.61 L1772.89 2265.30 L1784.53 2253.66 L1796.01 2241.51 L1807.65 2229.19 L1819.29 2216.53 L1830.94 2203.54 L1842.58 2190.21 L1854.23 2176.54 L1865.87 2162.53 L1877.51 2148.02 L1889.16 2133.34 L1900.80 2118.32 L1912.44 2102.96 L1924.09 2087.27 L1935.56 2071.24 L1947.21 2054.87 L1958.85 2038.16 L1970.49 2021.12 L1982.14 2003.74 L1993.78 1986.02 L2005.43 1967.96 L2017.07 1949.74 L2028.71 1931.01 L2040.36 1912.11 L2052.00 1892.87 L2063.64 1873.29 L2075.29 1853.55 L2086.76 1833.47 L2098.41 1813.05 L2110.05 1792.46 L2121.69 1771.71 L2133.34 1750.61 L2144.98 1729.18 L2156.63 1707.75 L2168.27 1685.98 L2179.91 1664.04 L2191.56 1641.94 L2203.20 1619.66 L2214.84 1597.39 L2226.32 1574.78 L2237.96 1552.16 L2249.61 1529.38 L2261.25 1506.43 L2272.89 1483.48 L2284.54 1460.53 L2296.18 1437.58 L2307.82 1414.46 L2319.47 1391.51 L2331.11 1368.39 L2342.76 1345.44 L2354.40 1322.49 L2365.88 1299.71 L2377.52 1276.93 L2389.16 1254.32 L2400.81 1231.88 L2412.45 1209.43 L2424.09 1187.32 L2435.74 1165.39 L2447.38 1143.62 L2459.03 1122.02 L2470.67 1100.76 L2482.31 1079.83 L2493.96 1059.07 L2505.43 1038.82 L2517.07 1018.74 L2528.72 999.17 L2540.36 979.93 L2552.01 961.03 L2563.65 942.64 L2575.29 924.58 L2586.94 907.20 L2598.58 890.16 L2610.23 873.62 L2621.87 857.59 L2633.51 842.06 L2644.99 827.21 L2656.63 812.87 L2668.28 799.20 L2679.92 786.04 L2691.56 773.55 L2703.21 761.57 L2714.85 750.43 L2726.49 739.80 L2738.14 729.84 L2749.78 720.73 L2761.43 712.13 L2773.07 704.36 L2784.54 697.28 L2796.19 690.86 L2807.83 685.29 L2819.48 680.40 L2831.12 676.18 L2842.76 672.81 L2854.41 670.11 L2866.05 668.25 L2877.69 667.07 L2889.34 666.73 L2900.98 667.07 L2912.63 668.25 L2924.10 670.11 L2935.74 672.81 L2947.39 676.18 L2959.03 680.40 L2970.68 685.29 L2982.32 690.86 L2993.96 697.28 L3005.61 704.36 L3017.25 712.13 L3028.89 720.73 L3040.54 729.84 L3052.18 739.80 L3063.66 750.43 L3075.30 761.57 L3086.94 773.55 L3098.59 786.04 L3110.23 799.20 L3121.88 812.87 L3133.52 827.21 L3145.16 842.06 L3156.81 857.59 L3168.45 873.62 L3180.09 890.16 L3191.74 907.20 L3203.21 924.58 L3214.86 942.64 L3226.50 961.03 L3238.14 979.93 L3249.79 999.17 L3261.43 1018.74 L3273.08 1038.82 L3284.72 1059.07 L3296.36 1079.83 L3308.01 1100.76 L3319.65 1122.02 L3331.29 1143.62 L3342.77 1165.39 L3354.41 1187.32 L3366.06 1209.43 L3377.70 1231.88 L3389.34 1254.32 L3400.99 1276.93 L3412.63 1299.71 L3424.28 1322.49 L3435.92 1345.44 L3447.56 1368.39 L3459.21 1391.51 L3470.85 1414.46 L3482.33 1437.58 L3493.97 1460.53 L3505.61 1483.48 L3517.26 1506.43 L3528.90 1529.38 L3540.54 1552.16 L3552.19 1574.78 L3563.83 1597.39 L3575.48 1619.66 L3587.12 1641.94 L3598.76 1664.04 L3610.41 1685.98 L3621.88 1707.75 L3633.53 1729.18 L3645.17 1750.61 L3656.81 1771.71 L3668.46 1792.46 L3680.10 1813.05 L3691.74 1833.47 L3703.39 1853.55 L3715.03 1873.29 L3726.68 1892.87 L3738.32 1912.11 L3749.96 1931.01 L3761.44 1949.74 L3773.08 1967.96 L3784.73 1986.02 L3796.37 2003.74 L3808.01 2021.12 L3819.66 2038.16 L3831.30 2054.87 L3842.94 2071.24 L3854.59 2087.27 L3866.23 2102.96 L3877.88 2118.32 L3889.52 2133.34 L3900.99 2148.02 L3912.64 2162.53 L3924.28 2176.54 L3935.93 2190.21 L3947.57 2203.54 L3959.21 2216.53 L3970.86 2229.19 L3982.50 2241.51 L3994.14 2253.66 L4005.79 2265.30 L4017.43 2276.61 L4029.08 2287.74 L4040.55 2298.54 L4052.19 2308.84 L4063.84 2318.96 L4075.48 2328.75 L4087.13 2338.37 L4098.77 2347.65 L4110.41 2356.43 L4122.06 2365.20 L4133.70 2373.47 L4145.34 2381.57 L4156.99 2389.50 L4168.63 2396.93 L4180.11 2404.35 L4191.75 2411.27 L4203.39 2418.19 L4215.04 2424.77 L4226.68 2431.01 L4238.33 2437.09 L4249.97 2442.99 L4261.61 2448.56 L4273.26 2454.13 L4284.90 2459.36 L4296.54 2464.26 L4308.19 2469.15 L4319.66 2473.71 L4331.31 2478.26 L4342.95 2482.48 L4354.59 2486.53 L4366.24 2490.58 L4377.88 2494.29 L4389.52 2497.84 L4401.17 2501.38 L4412.81 2504.59 L4424.46 2507.79 L4436.10 2510.83 L4447.74 2513.70 L4459.22 2516.40 L4470.86 2519.10 L4482.51 2521.63 L4494.15 2523.99 L4505.79 2526.19 L4517.44 2528.38 L4529.08 2530.41 L4540.73 2532.43 L4552.37 2534.29 L4564.01 2536.14 L4575.66 2537.83 L4587.30 2539.35 L4598.94 2540.87 L4610.42 2542.39 L4622.06 2543.74 L4633.71 2545.09 L4645.35 2546.27 L4656.99 2547.45 L4668.64 2548.63 L4680.28 2549.64 L4691.93 2550.66 L4703.57 2551.67 L4715.21 2552.51 L4726.86 2553.36 L4738.50 2554.20 L4749.98 2554.88 L4761.62 2555.72 L4773.26 2556.39 L4784.91 2556.90 L4796.55 2557.57 L4808.19 2558.08 L4819.84 2558.76 L4831.48 2559.26 L4843.13 2559.60 L4854.77 2560.11 L4866.41 2560.44 L4878.06 2560.95 L4889.53 2561.29 L4901.18 2561.63 L4912.82 2561.96 L4924.46 2562.30 L4936.11 2562.47 L4947.75 2562.81 L4959.39 2563.14 L4971.04 2563.31 L4982.68 2563.48 L4994.33 2563.82 L5005.97 2563.99 L5017.61 2564.16 L5029.09 2564.32 L5040.73 2564.49 L5052.38 2564.66 L5064.02 2564.66 L5075.66 2564.83 L5087.31 2565.00 L5098.95 2565.17 L5110.59 2565.17 L5122.24 2565.34 L5133.88 2565.34 L5145.52 2565.51 L5157.17 2565.51 L5168.64 2565.68 L5180.29 2565.68 L5191.93 2565.84 L5203.58 2565.84 L5215.22 2565.84" stroke-linejoin="round" style="fill:none;stroke:#000000;stroke-width:9.72"/>
	<line x1="3255.36" y1="2566.52" x2="3255.36" y2="2501.72" style="stroke:#FF0000;stroke-width:9.72"/>
	<line x1="3255.36" y1="2469.32" x2="3255.36" y2="2404.52" style="stroke:#FF0000;stroke-width:9.72"/>
	<line x1="3255.36" y1="2372.12" x2="3255.36" y2="2307.32" style="stroke:#FF0000;stroke-width:9.72"/>
	<line x1="3255.36" y1="2274.92" x2="3255.36" y2="2210.12" style="stroke:#FF0000;stroke-width:9.72"/>
	<line x1="3255.36" y1="2177.72" x2="3255.36" y2="2112.92" style="stroke:#FF0000;stroke-width:9.72"/>
	<line x1="3255.36" y1="2080.52" x2="3255.36" y2="2015.72" style="stroke:#FF0000;stroke-width:9.72"/>
	<line x1="3255.36" y1="1983.32" x2="3255.36" y2="1918.52" style="stroke:#FF0000;stroke-width:9.72"/>
	<line x1="3255.36" y1="1886.12" x2="3255.36" y2="1821.32" style="stroke:#FF0000;stroke-width:9.72"/>
	<line x1="3255.36" y1="1788.92" x2="3255.36" y2="1724.12" style="stroke:#FF0000;stroke-width:9.72"/>
	<line x1="3255.36" y1="1691.72" x2="3255.36" y2="1626.92" style="stroke:#FF0000;stroke-width:9.72"/>
	<line x1="3255.36" y1="1594.52" x2="3255.36" y2="1529.72" style="stroke:#FF0000;stroke-width:9.72"/>
	<line x1="3255.36" y1="1497.32" x2="3255.36" y2="1432.52" style="stroke:#FF0000;stroke-width:9.72"/>
	<line x1="3255.36" y1="1400.12" x2="3255.36" y2="1335.32" style="stroke:#FF0000;stroke-width:9.72"/>
	<line x1="3255.36" y1="1302.92" x2="3255.36" y2="1238.12" style="stroke:#FF0000;stroke-width:9.72"/>
	<line x1="3255.36" y1="1205.72" x2="3255.36" y2="1140.92" style="stroke:#FF0000;stroke-width:9.72"/>
	<line x1="3255.36" y1="1108.52" x2="3255.36" y2="1043.72" style="stroke:#FF0000;stroke-width:9.72"/>
	<line x1="3255.36" y1="1011.32" x2="3255.36" y2="1008.28" style="stroke:#FF0000;stroke-width:9.72"/>
	<circle cx="3255.36" cy="2566.52" r="21.74" style="fill:#FF0000"/>
	<circle cx="3255.36" cy="2566.52" r="16.88" style="fill:none;stroke:#FF0000;stroke-width:9.72"/>
	<text x="3221.27" y="2546.78" style="font-family:'Times New Roman';font-size:89.94px;fill:#000000" text-anchor="end">|t|</text>
	<line x1="2523.32" y1="2566.52" x2="2523.32" y2="2501.72" style="stroke:#FF0000;stroke-width:9.72"/>
	<line x1="2523.32" y1="2469.32" x2="2523.32" y2="2404.52" style="stroke:#FF0000;stroke-width:9.72"/>
	<line x1="2523.32" y1="2372.12" x2="2523.32" y2="2307.32" style="stroke:#FF0000;stroke-width:9.72"/>
	<line x1="2523.32" y1="2274.92" x2="2523.32" y2="2210.12" style="stroke:#FF0000;stroke-width:9.72"/>
	<line x1="2523.32" y1="2177.72" x2="2523.32" y2="2112.92" style="stroke:#FF0000;stroke-width:9.72"/>
	<line x1="2523.32" y1="2080.52" x2="2523.32" y2="2015.72" style="stroke:#FF0000;stroke-width:9.72"/>
	<line x1="2523.32" y1="1983.32" x2="2523.32" y2="1918.52" style="stroke:#FF0000;stroke-width:9.72"/>
	<line x1="2523.32" y1="1886.12" x2="2523.32" y2="1821.32" style="stroke:#FF0000;stroke-width:9.72"/>
	<line x1="2523.32" y1="1788.92" x2="2523.32" y2="1724.12" style="stroke:#FF0000;stroke-width:9.72"/>
	<line x1="2523.32" y1="1691.72" x2="2523.32" y2="1626.92" style="stroke:#FF0000;stroke-width:9.72"/>
	<line x1="2523.32" y1="1594.52" x2="2523.32" y2="1529.72" style="stroke:#FF0000;stroke-width:9.72"/>
	<line x1="2523.32" y1="1497.32" x2="2523.32" y2="1432.52" style="stroke:#FF0000;stroke-width:9.72"/>
	<line x1="2523.32" y1="1400.12" x2="2523.32" y2="1335.32" style="stroke:#FF0000;stroke-width:9.72"/>
	<line x1="2523.32" y1="1302.92" x2="2523.32" y2="1238.12" style="stroke:#FF0000;stroke-width:9.72"/>
	<line x1="2523.32" y1="1205.72" x2="2523.32" y2="1140.92" style="stroke:#FF0000;stroke-width:9.72"/>
	<line x1="2523.32" y1="1108.52" x2="2523.32" y2="1043.72" style="stroke:#FF0000;stroke-width:9.72"/>
	<line x1="2523.32" y1="1011.32" x2="2523.32" y2="1008.28" style="stroke:#FF0000;stroke-width:9.72"/>
	<circle cx="2523.32" cy="2566.52" r="21.74" style="fill:#FF0000"/>
	<circle cx="2523.32" cy="2566.52" r="16.88" style="fill:none;stroke:#FF0000;stroke-width:9.72"/>
	<text x="2557.41" y="2546.78" style="font-family:'Times New Roman';font-size:89.94px;fill:#000000">-|t|</text>
	<line x1="492.08" y1="2637.73" x2="492.08" y2="113.40" style="stroke:#000000;stroke-width:6.48"/>
	<line x1="492.08" y1="2566.52" x2="469.63" y2="2566.52" style="stroke:#000000;stroke-width:6.48"/>
	<line x1="492.08" y1="2328.24" x2="469.63" y2="2328.24" style="stroke:#000000;stroke-width:6.48"/>
	<line x1="492.08" y1="2090.14" x2="469.63" y2="2090.14" style="stroke:#000000;stroke-width:6.48"/>
	<line x1="492.08" y1="1851.86" x2="469.63" y2="1851.86" style="stroke:#000000;stroke-width:6.48"/>
	<line x1="492.08" y1="1613.76" x2="469.63" y2="1613.76" style="stroke:#000000;stroke-width:6.48"/>
	<line x1="492.08" y1="1375.65" x2="469.63" y2="1375.65" style="stroke:#000000;stroke-width:6.48"/>
	<line x1="492.08" y1="1137.38" x2="469.63" y2="1137.38" style="stroke:#000000;stroke-width:6.48"/>
	<line x1="492.08" y1="899.27" x2="469.63" y2="899.27" style="stroke:#000000;stroke-width:6.48"/>
	<line x1="492.08" y1="660.99" x2="469.63" y2="660.99" style="stroke:#000000;stroke-width:6.48"/>
	<line x1="492.08" y1="422.89" x2="469.63" y2="422.89" style="stroke:#000000;stroke-width:6.48"/>
	<line x1="492.08" y1="184.61" x2="469.63" y2="184.61" style="stroke:#000000;stroke-width:6.48"/>
	<line x1="492.08" y1="2566.52" x2="447.19" y2="2566.52" style="stroke:#000000;stroke-width:6.48"/>
	<text x="424.58" y="2605.96" style="font-family:'Times New Roman';font-size:112.56px;fill:#000000" text-anchor="end">0</text>
	<line x1="492.08" y1="2090.14" x2="447.19" y2="2090.14" style="stroke:#000000;stroke-width:6.48"/>
	<text x="424.58" y="2129.57" style="font-family:'Times New Roman';font-size:112.56px;fill:#000000" text-anchor="end">.1</text>
	<line x1="492.08" y1="1613.76" x2="447.19" y2="1613.76" style="stroke:#000000;stroke-width:6.48"/>
	<text x="424.58" y="1653.19" style="font-family:'Times New Roman';font-size:112.56px;fill:#000000" text-anchor="end">.2</text>
	<line x1="492.08" y1="1137.38" x2="447.19" y2="1137.38" style="stroke:#000000;stroke-width:6.48"/>
	<text x="424.58" y="1176.81" style="font-family:'Times New Roman';font-size:112.56px;fill:#000000" text-anchor="end">.3</text>
	<line x1="492.08" y1="660.99" x2="447.19" y2="660.99" style="stroke:#000000;stroke-width:6.48"/>
	<text x="424.58" y="700.43" style="font-family:'Times New Roman';font-size:112.56px;fill:#000000" text-anchor="end">.4</text>
	<line x1="492.08" y1="184.61" x2="447.19" y2="184.61" style="stroke:#000000;stroke-width:6.48"/>
	<text x="424.58" y="224.05" style="font-family:'Times New Roman';font-size:112.56px;fill:#000000" text-anchor="end">.5</text>
	<text x="214.55" y="1375.65" style="font-family:'Times New Roman';font-size:112.56px;fill:#000000" transform="rotate(-90 214.55,1375.65)" text-anchor="middle">Density</text>
	<line x1="492.08" y1="2637.73" x2="5286.60" y2="2637.73" style="stroke:#000000;stroke-width:6.48"/>
	<line x1="563.46" y1="2637.73" x2="563.46" y2="2660.18" style="stroke:#000000;stroke-width:6.48"/>
	<line x1="854.21" y1="2637.73" x2="854.21" y2="2660.18" style="stroke:#000000;stroke-width:6.48"/>
	<line x1="1144.97" y1="2637.73" x2="1144.97" y2="2660.18" style="stroke:#000000;stroke-width:6.48"/>
	<line x1="1435.73" y1="2637.73" x2="1435.73" y2="2660.18" style="stroke:#000000;stroke-width:6.48"/>
	<line x1="1726.31" y1="2637.73" x2="1726.31" y2="2660.18" style="stroke:#000000;stroke-width:6.48"/>
	<line x1="2017.07" y1="2637.73" x2="2017.07" y2="2660.18" style="stroke:#000000;stroke-width:6.48"/>
	<line x1="2307.82" y1="2637.73" x2="2307.82" y2="2660.18" style="stroke:#000000;stroke-width:6.48"/>
	<line x1="2598.58" y1="2637.73" x2="2598.58" y2="2660.18" style="stroke:#000000;stroke-width:6.48"/>
	<line x1="2889.34" y1="2637.73" x2="2889.34" y2="2660.18" style="stroke:#000000;stroke-width:6.48"/>
	<line x1="3180.09" y1="2637.73" x2="3180.09" y2="2660.18" style="stroke:#000000;stroke-width:6.48"/>
	<line x1="3470.85" y1="2637.73" x2="3470.85" y2="2660.18" style="stroke:#000000;stroke-width:6.48"/>
	<line x1="3761.61" y1="2637.73" x2="3761.61" y2="2660.18" style="stroke:#000000;stroke-width:6.48"/>
	<line x1="4052.36" y1="2637.73" x2="4052.36" y2="2660.18" style="stroke:#000000;stroke-width:6.48"/>
	<line x1="4343.12" y1="2637.73" x2="4343.12" y2="2660.18" style="stroke:#000000;stroke-width:6.48"/>
	<line x1="4633.88" y1="2637.73" x2="4633.88" y2="2660.18" style="stroke:#000000;stroke-width:6.48"/>
	<line x1="4924.63" y1="2637.73" x2="4924.63" y2="2660.18" style="stroke:#000000;stroke-width:6.48"/>
	<line x1="5215.39" y1="2637.73" x2="5215.39" y2="2660.18" style="stroke:#000000;stroke-width:6.48"/>
	<line x1="563.46" y1="2637.73" x2="563.46" y2="2682.79" style="stroke:#000000;stroke-width:6.48"/>
	<text x="563.46" y="2783.94" style="font-family:'Times New Roman';font-size:112.56px;fill:#000000" text-anchor="middle">-4</text>
	<line x1="1144.97" y1="2637.73" x2="1144.97" y2="2682.79" style="stroke:#000000;stroke-width:6.48"/>
	<text x="1144.97" y="2783.94" style="font-family:'Times New Roman';font-size:112.56px;fill:#000000" text-anchor="middle">-3</text>
	<line x1="1726.31" y1="2637.73" x2="1726.31" y2="2682.79" style="stroke:#000000;stroke-width:6.48"/>
	<text x="1726.31" y="2783.94" style="font-family:'Times New Roman';font-size:112.56px;fill:#000000" text-anchor="middle">-2</text>
	<line x1="2307.82" y1="2637.73" x2="2307.82" y2="2682.79" style="stroke:#000000;stroke-width:6.48"/>
	<text x="2307.82" y="2783.94" style="font-family:'Times New Roman';font-size:112.56px;fill:#000000" text-anchor="middle">-1</text>
	<line x1="2889.34" y1="2637.73" x2="2889.34" y2="2682.79" style="stroke:#000000;stroke-width:6.48"/>
	<text x="2889.34" y="2783.94" style="font-family:'Times New Roman';font-size:112.56px;fill:#000000" text-anchor="middle">0</text>
	<line x1="3470.85" y1="2637.73" x2="3470.85" y2="2682.79" style="stroke:#000000;stroke-width:6.48"/>
	<text x="3470.85" y="2783.94" style="font-family:'Times New Roman';font-size:112.56px;fill:#000000" text-anchor="middle">1</text>
	<line x1="4052.36" y1="2637.73" x2="4052.36" y2="2682.79" style="stroke:#000000;stroke-width:6.48"/>
	<text x="4052.36" y="2783.94" style="font-family:'Times New Roman';font-size:112.56px;fill:#000000" text-anchor="middle">2</text>
	<line x1="4633.88" y1="2637.73" x2="4633.88" y2="2682.79" style="stroke:#000000;stroke-width:6.48"/>
	<text x="4633.88" y="2783.94" style="font-family:'Times New Roman';font-size:112.56px;fill:#000000" text-anchor="middle">3</text>
	<line x1="5215.39" y1="2637.73" x2="5215.39" y2="2682.79" style="stroke:#000000;stroke-width:6.48"/>
	<text x="5215.39" y="2783.94" style="font-family:'Times New Roman';font-size:112.56px;fill:#000000" text-anchor="middle">4</text>
	<text x="2889.34" y="2941.38" style="font-family:'Times New Roman';font-size:112.56px;fill:#000000" text-anchor="middle">t</text>
	<text x="511.65" y="3080.13" style="font-family:'Times New Roman';font-size:89.94px;fill:#000000">t-statistic: 0.63 // p-value: 0.53</text>
</svg>
