<?xml version="1.0" encoding="UTF-8" standalone="no"?>
<!-- This is a Stata 19.5 generated SVG file (http://www.stata.com) -->

<svg version="1.1" width="1600px" height="960px" viewBox="0 0 5400 3240" xmlns="http://www.w3.org/2000/svg" xmlns:xlink="http://www.w3.org/1999/xlink">
	<desc>Stata Graph - Graph</desc>
	<rect x="0" y="0" width="5400" height="3240" style="fill:#FFFFFF;stroke:none"/>
	<rect x="0.00" y="0.00" width="5400.00" height="3240.00" style="fill:#FFFFFF"/>
	<rect x="3.24" y="3.24" width="5393.52" height="3233.52" style="fill:none;stroke:#FFFFFF;stroke-width:6.48"/>
	<rect x="492.08" y="113.40" width="4794.53" height="2478.26" style="fill:#FFFFFF"/>
	<rect x="495.32" y="116.64" width="4788.05" height="2471.78" style="fill:none;stroke:#FFFFFF;stroke-width:6.48"/>
	<line x1="492.08" y1="2520.45" x2="556.88" y2="2520.45" style="stroke:#E8E8E8;stroke-width:9.72"/>
	<line x1="589.28" y1="2520.45" x2="654.08" y2="2520.45" style="stroke:#E8E8E8;stroke-width:9.72"/>
	<line x1="686.48" y1="2520.45" x2="751.28" y2="2520.45" style="stroke:#E8E8E8;stroke-width:9.72"/>
	<line x1="783.68" y1="2520.45" x2="848.48" y2="2520.45" style="stroke:#E8E8E8;stroke-width:9.72"/>
	<line x1="880.88" y1="2520.45" x2="945.68" y2="2520.45" style="stroke:#E8E8E8;stroke-width:9.72"/>
	<line x1="978.08" y1="2520.45" x2="1042.88" y2="2520.45" style="stroke:#E8E8E8;stroke-width:9.72"/>
	<line x1="1075.28" y1="2520.45" x2="1140.08" y2="2520.45" style="stroke:#E8E8E8;stroke-width:9.72"/>
	<line x1="1172.47" y1="2520.45" x2="1237.28" y2="2520.45" style="stroke:#E8E8E8;stroke-width:9.72"/>
	<line x1="1269.68" y1="2520.45" x2="1334.48" y2="2520.45" style="stroke:#E8E8E8;stroke-width:9.72"/>
	<line x1="1366.88" y1="2520.45" x2="1431.68" y2="2520.45" style="stroke:#E8E8E8;stroke-width:9.72"/>
	<line x1="1464.08" y1="2520.45" x2="1528.88" y2="2520.45" style="stroke:#E8E8E8;stroke-width:9.72"/>
	<line x1="1561.28" y1="2520.45" x2="1626.08" y2="2520.45" style="stroke:#E8E8E8;stroke-width:9.72"/>
	<line x1="1658.48" y1="2520.45" x2="1723.28" y2="2520.45" style="stroke:#E8E8E8;stroke-width:9.72"/>
	<line x1="1755.68" y1="2520.45" x2="1820.48" y2="2520.45" style="stroke:#E8E8E8;stroke-width:9.72"/>
	<line x1="1852.88" y1="2520.45" x2="1917.68" y2="2520.45" style="stroke:#E8E8E8;stroke-width:9.72"/>
	<line x1="1950.08" y1="2520.45" x2="2014.88" y2="2520.45" style="stroke:#E8E8E8;stroke-width:9.72"/>
	<line x1="2047.28" y1="2520.45" x2="2112.07" y2="2520.45" style="stroke:#E8E8E8;stroke-width:9.72"/>
	<line x1="2144.48" y1="2520.45" x2="2209.28" y2="2520.45" style="stroke:#E8E8E8;stroke-width:9.72"/>
	<line x1="2241.68" y1="2520.45" x2="2306.48" y2="2520.45" style="stroke:#E8E8E8;stroke-width:9.72"/>
	<line x1="2338.88" y1="2520.45" x2="2403.68" y2="2520.45" style="stroke:#E8E8E8;stroke-width:9.72"/>
	<line x1="2436.07" y1="2520.45" x2="2500.88" y2="2520.45" style="stroke:#E8E8E8;stroke-width:9.72"/>
	<line x1="2533.28" y1="2520.45" x2="2598.07" y2="2520.45" style="stroke:#E8E8E8;stroke-width:9.72"/>
	<line x1="2630.48" y1="2520.45" x2="2695.28" y2="2520.45" style="stroke:#E8E8E8;stroke-width:9.72"/>
	<line x1="2727.68" y1="2520.45" x2="2792.48" y2="2520.45" style="stroke:#E8E8E8;stroke-width:9.72"/>
	<line x1="2824.88" y1="2520.45" x2="2889.68" y2="2520.45" style="stroke:#E8E8E8;stroke-width:9.72"/>
	<line x1="2922.08" y1="2520.45" x2="2986.88" y2="2520.45" style="stroke:#E8E8E8;stroke-width:9.72"/>
	<line x1="3019.28" y1="2520.45" x2="3084.08" y2="2520.45" style="stroke:#E8E8E8;stroke-width:9.72"/>
	<line x1="3116.48" y1="2520.45" x2="3181.28" y2="2520.45" style="stroke:#E8E8E8;stroke-width:9.72"/>
	<line x1="3213.68" y1="2520.45" x2="3278.48" y2="2520.45" style="stroke:#E8E8E8;stroke-width:9.72"/>
	<line x1="3310.88" y1="2520.45" x2="3375.68" y2="2520.45" style="stroke:#E8E8E8;stroke-width:9.72"/>
	<line x1="3408.08" y1="2520.45" x2="3472.88" y2="2520.45" style="stroke:#E8E8E8;stroke-width:9.72"/>
	<line x1="3505.28" y1="2520.45" x2="3570.08" y2="2520.45" style="stroke:#E8E8E8;stroke-width:9.72"/>
	<line x1="3602.48" y1="2520.45" x2="3667.28" y2="2520.45" style="stroke:#E8E8E8;stroke-width:9.72"/>
	<line x1="3699.68" y1="2520.45" x2="3764.48" y2="2520.45" style="stroke:#E8E8E8;stroke-width:9.72"/>
	<line x1="3796.88" y1="2520.45" x2="3861.68" y2="2520.45" style="stroke:#E8E8E8;stroke-width:9.72"/>
	<line x1="3894.08" y1="2520.45" x2="3958.88" y2="2520.45" style="stroke:#E8E8E8;stroke-width:9.72"/>
	<line x1="3991.28" y1="2520.45" x2="4056.08" y2="2520.45" style="stroke:#E8E8E8;stroke-width:9.72"/>
	<line x1="4088.48" y1="2520.45" x2="4153.27" y2="2520.45" style="stroke:#E8E8E8;stroke-width:9.72"/>
	<line x1="4185.68" y1="2520.45" x2="4250.48" y2="2520.45" style="stroke:#E8E8E8;stroke-width:9.72"/>
	<line x1="4282.88" y1="2520.45" x2="4347.68" y2="2520.45" style="stroke:#E8E8E8;stroke-width:9.72"/>
	<line x1="4380.08" y1="2520.45" x2="4444.88" y2="2520.45" style="stroke:#E8E8E8;stroke-width:9.72"/>
	<line x1="4477.27" y1="2520.45" x2="4542.08" y2="2520.45" style="stroke:#E8E8E8;stroke-width:9.72"/>
	<line x1="4574.48" y1="2520.45" x2="4639.27" y2="2520.45" style="stroke:#E8E8E8;stroke-width:9.72"/>
	<line x1="4671.68" y1="2520.45" x2="4736.48" y2="2520.45" style="stroke:#E8E8E8;stroke-width:9.72"/>
	<line x1="4768.88" y1="2520.45" x2="4833.68" y2="2520.45" style="stroke:#E8E8E8;stroke-width:9.72"/>
	<line x1="4866.08" y1="2520.45" x2="4930.88" y2="2520.45" style="stroke:#E8E8E8;stroke-width:9.72"/>
	<line x1="4963.27" y1="2520.45" x2="5028.08" y2="2520.45" style="stroke:#E8E8E8;stroke-width:9.72"/>
	<line x1="5060.48" y1="2520.45" x2="5125.27" y2="2520.45" style="stroke:#E8E8E8;stroke-width:9.72"/>
	<line x1="5157.68" y1="2520.45" x2="5222.48" y2="2520.45" style="stroke:#E8E8E8;stroke-width:9.72"/>
	<line x1="5254.88" y1="2520.45" x2="5286.60" y2="2520.45" style="stroke:#E8E8E8;stroke-width:9.72"/>
	<line x1="492.08" y1="2001.38" x2="556.88" y2="2001.38" style="stroke:#E8E8E8;stroke-width:9.72"/>
	<line x1="589.28" y1="2001.38" x2="654.08" y2="2001.38" style="stroke:#E8E8E8;stroke-width:9.72"/>
	<line x1="686.48" y1="2001.38" x2="751.28" y2="2001.38" style="stroke:#E8E8E8;stroke-width:9.72"/>
	<line x1="783.68" y1="2001.38" x2="848.48" y2="2001.38" style="stroke:#E8E8E8;stroke-width:9.72"/>
	<line x1="880.88" y1="2001.38" x2="945.68" y2="2001.38" style="stroke:#E8E8E8;stroke-width:9.72"/>
	<line x1="978.08" y1="2001.38" x2="1042.88" y2="2001.38" style="stroke:#E8E8E8;stroke-width:9.72"/>
	<line x1="1075.28" y1="2001.38" x2="1140.08" y2="2001.38" style="stroke:#E8E8E8;stroke-width:9.72"/>
	<line x1="1172.47" y1="2001.38" x2="1237.28" y2="2001.38" style="stroke:#E8E8E8;stroke-width:9.72"/>
	<line x1="1269.68" y1="2001.38" x2="1334.48" y2="2001.38" style="stroke:#E8E8E8;stroke-width:9.72"/>
	<line x1="1366.88" y1="2001.38" x2="1431.68" y2="2001.38" style="stroke:#E8E8E8;stroke-width:9.72"/>
	<line x1="1464.08" y1="2001.38" x2="1528.88" y2="2001.38" style="stroke:#E8E8E8;stroke-width:9.72"/>
	<line x1="1561.28" y1="2001.38" x2="1626.08" y2="2001.38" style="stroke:#E8E8E8;stroke-width:9.72"/>
	<line x1="1658.48" y1="2001.38" x2="1723.28" y2="2001.38" style="stroke:#E8E8E8;stroke-width:9.72"/>
	<line x1="1755.68" y1="2001.38" x2="1820.48" y2="2001.38" style="stroke:#E8E8E8;stroke-width:9.72"/>
	<line x1="1852.88" y1="2001.38" x2="1917.68" y2="2001.38" style="stroke:#E8E8E8;stroke-width:9.72"/>
	<line x1="1950.08" y1="2001.38" x2="2014.88" y2="2001.38" style="stroke:#E8E8E8;stroke-width:9.72"/>
	<line x1="2047.28" y1="2001.38" x2="2112.07" y2="2001.38" style="stroke:#E8E8E8;stroke-width:9.72"/>
	<line x1="2144.48" y1="2001.38" x2="2209.28" y2="2001.38" style="stroke:#E8E8E8;stroke-width:9.72"/>
	<line x1="2241.68" y1="2001.38" x2="2306.48" y2="2001.38" style="stroke:#E8E8E8;stroke-width:9.72"/>
	<line x1="2338.88" y1="2001.38" x2="2403.68" y2="2001.38" style="stroke:#E8E8E8;stroke-width:9.72"/>
	<line x1="2436.07" y1="2001.38" x2="2500.88" y2="2001.38" style="stroke:#E8E8E8;stroke-width:9.72"/>
	<line x1="2533.28" y1="2001.38" x2="2598.07" y2="2001.38" style="stroke:#E8E8E8;stroke-width:9.72"/>
	<line x1="2630.48" y1="2001.38" x2="2695.28" y2="2001.38" style="stroke:#E8E8E8;stroke-width:9.72"/>
	<line x1="2727.68" y1="2001.38" x2="2792.48" y2="2001.38" style="stroke:#E8E8E8;stroke-width:9.72"/>
	<line x1="2824.88" y1="2001.38" x2="2889.68" y2="2001.38" style="stroke:#E8E8E8;stroke-width:9.72"/>
	<line x1="2922.08" y1="2001.38" x2="2986.88" y2="2001.38" style="stroke:#E8E8E8;stroke-width:9.72"/>
	<line x1="3019.28" y1="2001.38" x2="3084.08" y2="2001.38" style="stroke:#E8E8E8;stroke-width:9.72"/>
	<line x1="3116.48" y1="2001.38" x2="3181.28" y2="2001.38" style="stroke:#E8E8E8;stroke-width:9.72"/>
	<line x1="3213.68" y1="2001.38" x2="3278.48" y2="2001.38" style="stroke:#E8E8E8;stroke-width:9.72"/>
	<line x1="3310.88" y1="2001.38" x2="3375.68" y2="2001.38" style="stroke:#E8E8E8;stroke-width:9.72"/>
	<line x1="3408.08" y1="2001.38" x2="3472.88" y2="2001.38" style="stroke:#E8E8E8;stroke-width:9.72"/>
	<line x1="3505.28" y1="2001.38" x2="3570.08" y2="2001.38" style="stroke:#E8E8E8;stroke-width:9.72"/>
	<line x1="3602.48" y1="2001.38" x2="3667.28" y2="2001.38" style="stroke:#E8E8E8;stroke-width:9.72"/>
	<line x1="3699.68" y1="2001.38" x2="3764.48" y2="2001.38" style="stroke:#E8E8E8;stroke-width:9.72"/>
	<line x1="3796.88" y1="2001.38" x2="3861.68" y2="2001.38" style="stroke:#E8E8E8;stroke-width:9.72"/>
	<line x1="3894.08" y1="2001.38" x2="3958.88" y2="2001.38" style="stroke:#E8E8E8;stroke-width:9.72"/>
	<line x1="3991.28" y1="2001.38" x2="4056.08" y2="2001.38" style="stroke:#E8E8E8;stroke-width:9.72"/>
	<line x1="4088.48" y1="2001.38" x2="4153.27" y2="2001.38" style="stroke:#E8E8E8;stroke-width:9.72"/>
	<line x1="4185.68" y1="2001.38" x2="4250.48" y2="2001.38" style="stroke:#E8E8E8;stroke-width:9.72"/>
	<line x1="4282.88" y1="2001.38" x2="4347.68" y2="2001.38" style="stroke:#E8E8E8;stroke-width:9.72"/>
	<line x1="4380.08" y1="2001.38" x2="4444.88" y2="2001.38" style="stroke:#E8E8E8;stroke-width:9.72"/>
	<line x1="4477.27" y1="2001.38" x2="4542.08" y2="2001.38" style="stroke:#E8E8E8;stroke-width:9.72"/>
	<line x1="4574.48" y1="2001.38" x2="4639.27" y2="2001.38" style="stroke:#E8E8E8;stroke-width:9.72"/>
	<line x1="4671.68" y1="2001.38" x2="4736.48" y2="2001.38" style="stroke:#E8E8E8;stroke-width:9.72"/>
	<line x1="4768.88" y1="2001.38" x2="4833.68" y2="2001.38" style="stroke:#E8E8E8;stroke-width:9.72"/>
	<line x1="4866.08" y1="2001.38" x2="4930.88" y2="2001.38" style="stroke:#E8E8E8;stroke-width:9.72"/>
	<line x1="4963.27" y1="2001.38" x2="5028.08" y2="2001.38" style="stroke:#E8E8E8;stroke-width:9.72"/>
	<line x1="5060.48" y1="2001.38" x2="5125.27" y2="2001.38" style="stroke:#E8E8E8;stroke-width:9.72"/>
	<line x1="5157.68" y1="2001.38" x2="5222.48" y2="2001.38" style="stroke:#E8E8E8;stroke-width:9.72"/>
	<line x1="5254.88" y1="2001.38" x2="5286.60" y2="2001.38" style="stroke:#E8E8E8;stroke-width:9.72"/>
	<line x1="492.08" y1="1482.30" x2="556.88" y2="1482.30" style="stroke:#E8E8E8;stroke-width:9.72"/>
	<line x1="589.28" y1="1482.30" x2="654.08" y2="1482.30" style="stroke:#E8E8E8;stroke-width:9.72"/>
	<line x1="686.48" y1="1482.30" x2="751.28" y2="1482.30" style="stroke:#E8E8E8;stroke-width:9.72"/>
	<line x1="783.68" y1="1482.30" x2="848.48" y2="1482.30" style="stroke:#E8E8E8;stroke-width:9.72"/>
	<line x1="880.88" y1="1482.30" x2="945.68" y2="1482.30" style="stroke:#E8E8E8;stroke-width:9.72"/>
	<line x1="978.08" y1="1482.30" x2="1042.88" y2="1482.30" style="stroke:#E8E8E8;stroke-width:9.72"/>
	<line x1="1075.28" y1="1482.30" x2="1140.08" y2="1482.30" style="stroke:#E8E8E8;stroke-width:9.72"/>
	<line x1="1172.47" y1="1482.30" x2="1237.28" y2="1482.30" style="stroke:#E8E8E8;stroke-width:9.72"/>
	<line x1="1269.68" y1="1482.30" x2="1334.48" y2="1482.30" style="stroke:#E8E8E8;stroke-width:9.72"/>
	<line x1="1366.88" y1="1482.30" x2="1431.68" y2="1482.30" style="stroke:#E8E8E8;stroke-width:9.72"/>
	<line x1="1464.08" y1="1482.30" x2="1528.88" y2="1482.30" style="stroke:#E8E8E8;stroke-width:9.72"/>
	<line x1="1561.28" y1="1482.30" x2="1626.08" y2="1482.30" style="stroke:#E8E8E8;stroke-width:9.72"/>
	<line x1="1658.48" y1="1482.30" x2="1723.28" y2="1482.30" style="stroke:#E8E8E8;stroke-width:9.72"/>
	<line x1="1755.68" y1="1482.30" x2="1820.48" y2="1482.30" style="stroke:#E8E8E8;stroke-width:9.72"/>
	<line x1="1852.88" y1="1482.30" x2="1917.68" y2="1482.30" style="stroke:#E8E8E8;stroke-width:9.72"/>
	<line x1="1950.08" y1="1482.30" x2="2014.88" y2="1482.30" style="stroke:#E8E8E8;stroke-width:9.72"/>
	<line x1="2047.28" y1="1482.30" x2="2112.07" y2="1482.30" style="stroke:#E8E8E8;stroke-width:9.72"/>
	<line x1="2144.48" y1="1482.30" x2="2209.28" y2="1482.30" style="stroke:#E8E8E8;stroke-width:9.72"/>
	<line x1="2241.68" y1="1482.30" x2="2306.48" y2="1482.30" style="stroke:#E8E8E8;stroke-width:9.72"/>
	<line x1="2338.88" y1="1482.30" x2="2403.68" y2="1482.30" style="stroke:#E8E8E8;stroke-width:9.72"/>
	<line x1="2436.07" y1="1482.30" x2="2500.88" y2="1482.30" style="stroke:#E8E8E8;stroke-width:9.72"/>
	<line x1="2533.28" y1="1482.30" x2="2598.07" y2="1482.30" style="stroke:#E8E8E8;stroke-width:9.72"/>
	<line x1="2630.48" y1="1482.30" x2="2695.28" y2="1482.30" style="stroke:#E8E8E8;stroke-width:9.72"/>
	<line x1="2727.68" y1="1482.30" x2="2792.48" y2="1482.30" style="stroke:#E8E8E8;stroke-width:9.72"/>
	<line x1="2824.88" y1="1482.30" x2="2889.68" y2="1482.30" style="stroke:#E8E8E8;stroke-width:9.72"/>
	<line x1="2922.08" y1="1482.30" x2="2986.88" y2="1482.30" style="stroke:#E8E8E8;stroke-width:9.72"/>
	<line x1="3019.28" y1="1482.30" x2="3084.08" y2="1482.30" style="stroke:#E8E8E8;stroke-width:9.72"/>
	<line x1="3116.48" y1="1482.30" x2="3181.28" y2="1482.30" style="stroke:#E8E8E8;stroke-width:9.72"/>
	<line x1="3213.68" y1="1482.30" x2="3278.48" y2="1482.30" style="stroke:#E8E8E8;stroke-width:9.72"/>
	<line x1="3310.88" y1="1482.30" x2="3375.68" y2="1482.30" style="stroke:#E8E8E8;stroke-width:9.72"/>
	<line x1="3408.08" y1="1482.30" x2="3472.88" y2="1482.30" style="stroke:#E8E8E8;stroke-width:9.72"/>
	<line x1="3505.28" y1="1482.30" x2="3570.08" y2="1482.30" style="stroke:#E8E8E8;stroke-width:9.72"/>
	<line x1="3602.48" y1="1482.30" x2="3667.28" y2="1482.30" style="stroke:#E8E8E8;stroke-width:9.72"/>
	<line x1="3699.68" y1="1482.30" x2="3764.48" y2="1482.30" style="stroke:#E8E8E8;stroke-width:9.72"/>
	<line x1="3796.88" y1="1482.30" x2="3861.68" y2="1482.30" style="stroke:#E8E8E8;stroke-width:9.72"/>
	<line x1="3894.08" y1="1482.30" x2="3958.88" y2="1482.30" style="stroke:#E8E8E8;stroke-width:9.72"/>
	<line x1="3991.28" y1="1482.30" x2="4056.08" y2="1482.30" style="stroke:#E8E8E8;stroke-width:9.72"/>
	<line x1="4088.48" y1="1482.30" x2="4153.27" y2="1482.30" style="stroke:#E8E8E8;stroke-width:9.72"/>
	<line x1="4185.68" y1="1482.30" x2="4250.48" y2="1482.30" style="stroke:#E8E8E8;stroke-width:9.72"/>
	<line x1="4282.88" y1="1482.30" x2="4347.68" y2="1482.30" style="stroke:#E8E8E8;stroke-width:9.72"/>
	<line x1="4380.08" y1="1482.30" x2="4444.88" y2="1482.30" style="stroke:#E8E8E8;stroke-width:9.72"/>
	<line x1="4477.27" y1="1482.30" x2="4542.08" y2="1482.30" style="stroke:#E8E8E8;stroke-width:9.72"/>
	<line x1="4574.48" y1="1482.30" x2="4639.27" y2="1482.30" style="stroke:#E8E8E8;stroke-width:9.72"/>
	<line x1="4671.68" y1="1482.30" x2="4736.48" y2="1482.30" style="stroke:#E8E8E8;stroke-width:9.72"/>
	<line x1="4768.88" y1="1482.30" x2="4833.68" y2="1482.30" style="stroke:#E8E8E8;stroke-width:9.72"/>
	<line x1="4866.08" y1="1482.30" x2="4930.88" y2="1482.30" style="stroke:#E8E8E8;stroke-width:9.72"/>
	<line x1="4963.27" y1="1482.30" x2="5028.08" y2="1482.30" style="stroke:#E8E8E8;stroke-width:9.72"/>
	<line x1="5060.48" y1="1482.30" x2="5125.27" y2="1482.30" style="stroke:#E8E8E8;stroke-width:9.72"/>
	<line x1="5157.68" y1="1482.30" x2="5222.48" y2="1482.30" style="stroke:#E8E8E8;stroke-width:9.72"/>
	<line x1="5254.88" y1="1482.30" x2="5286.60" y2="1482.30" style="stroke:#E8E8E8;stroke-width:9.72"/>
	<line x1="492.08" y1="963.22" x2="556.88" y2="963.22" style="stroke:#E8E8E8;stroke-width:9.72"/>
	<line x1="589.28" y1="963.22" x2="654.08" y2="963.22" style="stroke:#E8E8E8;stroke-width:9.72"/>
	<line x1="686.48" y1="963.22" x2="751.28" y2="963.22" style="stroke:#E8E8E8;stroke-width:9.72"/>
	<line x1="783.68" y1="963.22" x2="848.48" y2="963.22" style="stroke:#E8E8E8;stroke-width:9.72"/>
	<line x1="880.88" y1="963.22" x2="945.68" y2="963.22" style="stroke:#E8E8E8;stroke-width:9.72"/>
	<line x1="978.08" y1="963.22" x2="1042.88" y2="963.22" style="stroke:#E8E8E8;stroke-width:9.72"/>
	<line x1="1075.28" y1="963.22" x2="1140.08" y2="963.22" style="stroke:#E8E8E8;stroke-width:9.72"/>
	<line x1="1172.47" y1="963.22" x2="1237.28" y2="963.22" style="stroke:#E8E8E8;stroke-width:9.72"/>
	<line x1="1269.68" y1="963.22" x2="1334.48" y2="963.22" style="stroke:#E8E8E8;stroke-width:9.72"/>
	<line x1="1366.88" y1="963.22" x2="1431.68" y2="963.22" style="stroke:#E8E8E8;stroke-width:9.72"/>
	<line x1="1464.08" y1="963.22" x2="1528.88" y2="963.22" style="stroke:#E8E8E8;stroke-width:9.72"/>
	<line x1="1561.28" y1="963.22" x2="1626.08" y2="963.22" style="stroke:#E8E8E8;stroke-width:9.72"/>
	<line x1="1658.48" y1="963.22" x2="1723.28" y2="963.22" style="stroke:#E8E8E8;stroke-width:9.72"/>
	<line x1="1755.68" y1="963.22" x2="1820.48" y2="963.22" style="stroke:#E8E8E8;stroke-width:9.72"/>
	<line x1="1852.88" y1="963.22" x2="1917.68" y2="963.22" style="stroke:#E8E8E8;stroke-width:9.72"/>
	<line x1="1950.08" y1="963.22" x2="2014.88" y2="963.22" style="stroke:#E8E8E8;stroke-width:9.72"/>
	<line x1="2047.28" y1="963.22" x2="2112.07" y2="963.22" style="stroke:#E8E8E8;stroke-width:9.72"/>
	<line x1="2144.48" y1="963.22" x2="2209.28" y2="963.22" style="stroke:#E8E8E8;stroke-width:9.72"/>
	<line x1="2241.68" y1="963.22" x2="2306.48" y2="963.22" style="stroke:#E8E8E8;stroke-width:9.72"/>
	<line x1="2338.88" y1="963.22" x2="2403.68" y2="963.22" style="stroke:#E8E8E8;stroke-width:9.72"/>
	<line x1="2436.07" y1="963.22" x2="2500.88" y2="963.22" style="stroke:#E8E8E8;stroke-width:9.72"/>
	<line x1="2533.28" y1="963.22" x2="2598.07" y2="963.22" style="stroke:#E8E8E8;stroke-width:9.72"/>
	<line x1="2630.48" y1="963.22" x2="2695.28" y2="963.22" style="stroke:#E8E8E8;stroke-width:9.72"/>
	<line x1="2727.68" y1="963.22" x2="2792.48" y2="963.22" style="stroke:#E8E8E8;stroke-width:9.72"/>
	<line x1="2824.88" y1="963.22" x2="2889.68" y2="963.22" style="stroke:#E8E8E8;stroke-width:9.72"/>
	<line x1="2922.08" y1="963.22" x2="2986.88" y2="963.22" style="stroke:#E8E8E8;stroke-width:9.72"/>
	<line x1="3019.28" y1="963.22" x2="3084.08" y2="963.22" style="stroke:#E8E8E8;stroke-width:9.72"/>
	<line x1="3116.48" y1="963.22" x2="3181.28" y2="963.22" style="stroke:#E8E8E8;stroke-width:9.72"/>
	<line x1="3213.68" y1="963.22" x2="3278.48" y2="963.22" style="stroke:#E8E8E8;stroke-width:9.72"/>
	<line x1="3310.88" y1="963.22" x2="3375.68" y2="963.22" style="stroke:#E8E8E8;stroke-width:9.72"/>
	<line x1="3408.08" y1="963.22" x2="3472.88" y2="963.22" style="stroke:#E8E8E8;stroke-width:9.72"/>
	<line x1="3505.28" y1="963.22" x2="3570.08" y2="963.22" style="stroke:#E8E8E8;stroke-width:9.72"/>
	<line x1="3602.48" y1="963.22" x2="3667.28" y2="963.22" style="stroke:#E8E8E8;stroke-width:9.72"/>
	<line x1="3699.68" y1="963.22" x2="3764.48" y2="963.22" style="stroke:#E8E8E8;stroke-width:9.72"/>
	<line x1="3796.88" y1="963.22" x2="3861.68" y2="963.22" style="stroke:#E8E8E8;stroke-width:9.72"/>
	<line x1="3894.08" y1="963.22" x2="3958.88" y2="963.22" style="stroke:#E8E8E8;stroke-width:9.72"/>
	<line x1="3991.28" y1="963.22" x2="4056.08" y2="963.22" style="stroke:#E8E8E8;stroke-width:9.72"/>
	<line x1="4088.48" y1="963.22" x2="4153.27" y2="963.22" style="stroke:#E8E8E8;stroke-width:9.72"/>
	<line x1="4185.68" y1="963.22" x2="4250.48" y2="963.22" style="stroke:#E8E8E8;stroke-width:9.72"/>
	<line x1="4282.88" y1="963.22" x2="4347.68" y2="963.22" style="stroke:#E8E8E8;stroke-width:9.72"/>
	<line x1="4380.08" y1="963.22" x2="4444.88" y2="963.22" style="stroke:#E8E8E8;stroke-width:9.72"/>
	<line x1="4477.27" y1="963.22" x2="4542.08" y2="963.22" style="stroke:#E8E8E8;stroke-width:9.72"/>
	<line x1="4574.48" y1="963.22" x2="4639.27" y2="963.22" style="stroke:#E8E8E8;stroke-width:9.72"/>
	<line x1="4671.68" y1="963.22" x2="4736.48" y2="963.22" style="stroke:#E8E8E8;stroke-width:9.72"/>
	<line x1="4768.88" y1="963.22" x2="4833.68" y2="963.22" style="stroke:#E8E8E8;stroke-width:9.72"/>
	<line x1="4866.08" y1="963.22" x2="4930.88" y2="963.22" style="stroke:#E8E8E8;stroke-width:9.72"/>
	<line x1="4963.27" y1="963.22" x2="5028.08" y2="963.22" style="stroke:#E8E8E8;stroke-width:9.72"/>
	<line x1="5060.48" y1="963.22" x2="5125.27" y2="963.22" style="stroke:#E8E8E8;stroke-width:9.72"/>
	<line x1="5157.68" y1="963.22" x2="5222.48" y2="963.22" style="stroke:#E8E8E8;stroke-width:9.72"/>
	<line x1="5254.88" y1="963.22" x2="5286.60" y2="963.22" style="stroke:#E8E8E8;stroke-width:9.72"/>
	<line x1="492.08" y1="444.15" x2="556.88" y2="444.15" style="stroke:#E8E8E8;stroke-width:9.72"/>
	<line x1="589.28" y1="444.15" x2="654.08" y2="444.15" style="stroke:#E8E8E8;stroke-width:9.72"/>
	<line x1="686.48" y1="444.15" x2="751.28" y2="444.15" style="stroke:#E8E8E8;stroke-width:9.72"/>
	<line x1="783.68" y1="444.15" x2="848.48" y2="444.15" style="stroke:#E8E8E8;stroke-width:9.72"/>
	<line x1="880.88" y1="444.15" x2="945.68" y2="444.15" style="stroke:#E8E8E8;stroke-width:9.72"/>
	<line x1="978.08" y1="444.15" x2="1042.88" y2="444.15" style="stroke:#E8E8E8;stroke-width:9.72"/>
	<line x1="1075.28" y1="444.15" x2="1140.08" y2="444.15" style="stroke:#E8E8E8;stroke-width:9.72"/>
	<line x1="1172.47" y1="444.15" x2="1237.28" y2="444.15" style="stroke:#E8E8E8;stroke-width:9.72"/>
	<line x1="1269.68" y1="444.15" x2="1334.48" y2="444.15" style="stroke:#E8E8E8;stroke-width:9.72"/>
	<line x1="1366.88" y1="444.15" x2="1431.68" y2="444.15" style="stroke:#E8E8E8;stroke-width:9.72"/>
	<line x1="1464.08" y1="444.15" x2="1528.88" y2="444.15" style="stroke:#E8E8E8;stroke-width:9.72"/>
	<line x1="1561.28" y1="444.15" x2="1626.08" y2="444.15" style="stroke:#E8E8E8;stroke-width:9.72"/>
	<line x1="1658.48" y1="444.15" x2="1723.28" y2="444.15" style="stroke:#E8E8E8;stroke-width:9.72"/>
	<line x1="1755.68" y1="444.15" x2="1820.48" y2="444.15" style="stroke:#E8E8E8;stroke-width:9.72"/>
	<line x1="1852.88" y1="444.15" x2="1917.68" y2="444.15" style="stroke:#E8E8E8;stroke-width:9.72"/>
	<line x1="1950.08" y1="444.15" x2="2014.88" y2="444.15" style="stroke:#E8E8E8;stroke-width:9.72"/>
	<line x1="2047.28" y1="444.15" x2="2112.07" y2="444.15" style="stroke:#E8E8E8;stroke-width:9.72"/>
	<line x1="2144.48" y1="444.15" x2="2209.28" y2="444.15" style="stroke:#E8E8E8;stroke-width:9.72"/>
	<line x1="2241.68" y1="444.15" x2="2306.48" y2="444.15" style="stroke:#E8E8E8;stroke-width:9.72"/>
	<line x1="2338.88" y1="444.15" x2="2403.68" y2="444.15" style="stroke:#E8E8E8;stroke-width:9.72"/>
	<line x1="2436.07" y1="444.15" x2="2500.88" y2="444.15" style="stroke:#E8E8E8;stroke-width:9.72"/>
	<line x1="2533.28" y1="444.15" x2="2598.07" y2="444.15" style="stroke:#E8E8E8;stroke-width:9.72"/>
	<line x1="2630.48" y1="444.15" x2="2695.28" y2="444.15" style="stroke:#E8E8E8;stroke-width:9.72"/>
	<line x1="2727.68" y1="444.15" x2="2792.48" y2="444.15" style="stroke:#E8E8E8;stroke-width:9.72"/>
	<line x1="2824.88" y1="444.15" x2="2889.68" y2="444.15" style="stroke:#E8E8E8;stroke-width:9.72"/>
	<line x1="2922.08" y1="444.15" x2="2986.88" y2="444.15" style="stroke:#E8E8E8;stroke-width:9.72"/>
	<line x1="3019.28" y1="444.15" x2="3084.08" y2="444.15" style="stroke:#E8E8E8;stroke-width:9.72"/>
	<line x1="3116.48" y1="444.15" x2="3181.28" y2="444.15" style="stroke:#E8E8E8;stroke-width:9.72"/>
	<line x1="3213.68" y1="444.15" x2="3278.48" y2="444.15" style="stroke:#E8E8E8;stroke-width:9.72"/>
	<line x1="3310.88" y1="444.15" x2="3375.68" y2="444.15" style="stroke:#E8E8E8;stroke-width:9.72"/>
	<line x1="3408.08" y1="444.15" x2="3472.88" y2="444.15" style="stroke:#E8E8E8;stroke-width:9.72"/>
	<line x1="3505.28" y1="444.15" x2="3570.08" y2="444.15" style="stroke:#E8E8E8;stroke-width:9.72"/>
	<line x1="3602.48" y1="444.15" x2="3667.28" y2="444.15" style="stroke:#E8E8E8;stroke-width:9.72"/>
	<line x1="3699.68" y1="444.15" x2="3764.48" y2="444.15" style="stroke:#E8E8E8;stroke-width:9.72"/>
	<line x1="3796.88" y1="444.15" x2="3861.68" y2="444.15" style="stroke:#E8E8E8;stroke-width:9.72"/>
	<line x1="3894.08" y1="444.15" x2="3958.88" y2="444.15" style="stroke:#E8E8E8;stroke-width:9.72"/>
	<line x1="3991.28" y1="444.15" x2="4056.08" y2="444.15" style="stroke:#E8E8E8;stroke-width:9.72"/>
	<line x1="4088.48" y1="444.15" x2="4153.27" y2="444.15" style="stroke:#E8E8E8;stroke-width:9.72"/>
	<line x1="4185.68" y1="444.15" x2="4250.48" y2="444.15" style="stroke:#E8E8E8;stroke-width:9.72"/>
	<line x1="4282.88" y1="444.15" x2="4347.68" y2="444.15" style="stroke:#E8E8E8;stroke-width:9.72"/>
	<line x1="4380.08" y1="444.15" x2="4444.88" y2="444.15" style="stroke:#E8E8E8;stroke-width:9.72"/>
	<line x1="4477.27" y1="444.15" x2="4542.08" y2="444.15" style="stroke:#E8E8E8;stroke-width:9.72"/>
	<line x1="4574.48" y1="444.15" x2="4639.27" y2="444.15" style="stroke:#E8E8E8;stroke-width:9.72"/>
	<line x1="4671.68" y1="444.15" x2="4736.48" y2="444.15" style="stroke:#E8E8E8;stroke-width:9.72"/>
	<line x1="4768.88" y1="444.15" x2="4833.68" y2="444.15" style="stroke:#E8E8E8;stroke-width:9.72"/>
	<line x1="4866.08" y1="444.15" x2="4930.88" y2="444.15" style="stroke:#E8E8E8;stroke-width:9.72"/>
	<line x1="4963.27" y1="444.15" x2="5028.08" y2="444.15" style="stroke:#E8E8E8;stroke-width:9.72"/>
	<line x1="5060.48" y1="444.15" x2="5125.27" y2="444.15" style="stroke:#E8E8E8;stroke-width:9.72"/>
	<line x1="5157.68" y1="444.15" x2="5222.48" y2="444.15" style="stroke:#E8E8E8;stroke-width:9.72"/>
	<line x1="5254.88" y1="444.15" x2="5286.60" y2="444.15" style="stroke:#E8E8E8;stroke-width:9.72"/>
	<line x1="563.46" y1="2591.66" x2="563.46" y2="2526.86" style="stroke:#F0F0F0;stroke-width:9.72"/>
	<line x1="563.46" y1="2494.46" x2="563.46" y2="2429.66" style="stroke:#F0F0F0;stroke-width:9.72"/>
	<line x1="563.46" y1="2397.26" x2="563.46" y2="2332.46" style="stroke:#F0F0F0;stroke-width:9.72"/>
	<line x1="563.46" y1="2300.06" x2="563.46" y2="2235.26" style="stroke:#F0F0F0;stroke-width:9.72"/>
	<line x1="563.46" y1="2202.86" x2="563.46" y2="2138.06" style="stroke:#F0F0F0;stroke-width:9.72"/>
	<line x1="563.46" y1="2105.66" x2="563.46" y2="2040.86" style="stroke:#F0F0F0;stroke-width:9.72"/>
	<line x1="563.46" y1="2008.46" x2="563.46" y2="1943.66" style="stroke:#F0F0F0;stroke-width:9.72"/>
	<line x1="563.46" y1="1911.26" x2="563.46" y2="1846.46" style="stroke:#F0F0F0;stroke-width:9.72"/>
	<line x1="563.46" y1="1814.06" x2="563.46" y2="1749.26" style="stroke:#F0F0F0;stroke-width:9.72"/>
	<line x1="563.46" y1="1716.86" x2="563.46" y2="1652.06" style="stroke:#F0F0F0;stroke-width:9.72"/>
	<line x1="563.46" y1="1619.66" x2="563.46" y2="1554.86" style="stroke:#F0F0F0;stroke-width:9.72"/>
	<line x1="563.46" y1="1522.46" x2="563.46" y2="1457.66" style="stroke:#F0F0F0;stroke-width:9.72"/>
	<line x1="563.46" y1="1425.26" x2="563.46" y2="1360.46" style="stroke:#F0F0F0;stroke-width:9.72"/>
	<line x1="563.46" y1="1328.06" x2="563.46" y2="1263.26" style="stroke:#F0F0F0;stroke-width:9.72"/>
	<line x1="563.46" y1="1230.86" x2="563.46" y2="1166.06" style="stroke:#F0F0F0;stroke-width:9.72"/>
	<line x1="563.46" y1="1133.66" x2="563.46" y2="1068.86" style="stroke:#F0F0F0;stroke-width:9.72"/>
	<line x1="563.46" y1="1036.46" x2="563.46" y2="971.66" style="stroke:#F0F0F0;stroke-width:9.72"/>
	<line x1="563.46" y1="939.26" x2="563.46" y2="874.46" style="stroke:#F0F0F0;stroke-width:9.72"/>
	<line x1="563.46" y1="842.06" x2="563.46" y2="777.26" style="stroke:#F0F0F0;stroke-width:9.72"/>
	<line x1="563.46" y1="744.86" x2="563.46" y2="680.06" style="stroke:#F0F0F0;stroke-width:9.72"/>
	<line x1="563.46" y1="647.66" x2="563.46" y2="582.86" style="stroke:#F0F0F0;stroke-width:9.72"/>
	<line x1="563.46" y1="550.46" x2="563.46" y2="485.66" style="stroke:#F0F0F0;stroke-width:9.72"/>
	<line x1="563.46" y1="453.26" x2="563.46" y2="388.46" style="stroke:#F0F0F0;stroke-width:9.72"/>
	<line x1="563.46" y1="356.06" x2="563.46" y2="291.26" style="stroke:#F0F0F0;stroke-width:9.72"/>
	<line x1="563.46" y1="258.86" x2="563.46" y2="194.06" style="stroke:#F0F0F0;stroke-width:9.72"/>
	<line x1="563.46" y1="161.66" x2="563.46" y2="113.40" style="stroke:#F0F0F0;stroke-width:9.72"/>
	<line x1="1144.97" y1="2591.66" x2="1144.97" y2="2526.86" style="stroke:#F0F0F0;stroke-width:9.72"/>
	<line x1="1144.97" y1="2494.46" x2="1144.97" y2="2429.66" style="stroke:#F0F0F0;stroke-width:9.72"/>
	<line x1="1144.97" y1="2397.26" x2="1144.97" y2="2332.46" style="stroke:#F0F0F0;stroke-width:9.72"/>
	<line x1="1144.97" y1="2300.06" x2="1144.97" y2="2235.26" style="stroke:#F0F0F0;stroke-width:9.72"/>
	<line x1="1144.97" y1="2202.86" x2="1144.97" y2="2138.06" style="stroke:#F0F0F0;stroke-width:9.72"/>
	<line x1="1144.97" y1="2105.66" x2="1144.97" y2="2040.86" style="stroke:#F0F0F0;stroke-width:9.72"/>
	<line x1="1144.97" y1="2008.46" x2="1144.97" y2="1943.66" style="stroke:#F0F0F0;stroke-width:9.72"/>
	<line x1="1144.97" y1="1911.26" x2="1144.97" y2="1846.46" style="stroke:#F0F0F0;stroke-width:9.72"/>
	<line x1="1144.97" y1="1814.06" x2="1144.97" y2="1749.26" style="stroke:#F0F0F0;stroke-width:9.72"/>
	<line x1="1144.97" y1="1716.86" x2="1144.97" y2="1652.06" style="stroke:#F0F0F0;stroke-width:9.72"/>
	<line x1="1144.97" y1="1619.66" x2="1144.97" y2="1554.86" style="stroke:#F0F0F0;stroke-width:9.72"/>
	<line x1="1144.97" y1="1522.46" x2="1144.97" y2="1457.66" style="stroke:#F0F0F0;stroke-width:9.72"/>
	<line x1="1144.97" y1="1425.26" x2="1144.97" y2="1360.46" style="stroke:#F0F0F0;stroke-width:9.72"/>
	<line x1="1144.97" y1="1328.06" x2="1144.97" y2="1263.26" style="stroke:#F0F0F0;stroke-width:9.72"/>
	<line x1="1144.97" y1="1230.86" x2="1144.97" y2="1166.06" style="stroke:#F0F0F0;stroke-width:9.72"/>
	<line x1="1144.97" y1="1133.66" x2="1144.97" y2="1068.86" style="stroke:#F0F0F0;stroke-width:9.72"/>
	<line x1="1144.97" y1="1036.46" x2="1144.97" y2="971.66" style="stroke:#F0F0F0;stroke-width:9.72"/>
	<line x1="1144.97" y1="939.26" x2="1144.97" y2="874.46" style="stroke:#F0F0F0;stroke-width:9.72"/>
	<line x1="1144.97" y1="842.06" x2="1144.97" y2="777.26" style="stroke:#F0F0F0;stroke-width:9.72"/>
	<line x1="1144.97" y1="744.86" x2="1144.97" y2="680.06" style="stroke:#F0F0F0;stroke-width:9.72"/>
	<line x1="1144.97" y1="647.66" x2="1144.97" y2="582.86" style="stroke:#F0F0F0;stroke-width:9.72"/>
	<line x1="1144.97" y1="550.46" x2="1144.97" y2="485.66" style="stroke:#F0F0F0;stroke-width:9.72"/>
	<line x1="1144.97" y1="453.26" x2="1144.97" y2="388.46" style="stroke:#F0F0F0;stroke-width:9.72"/>
	<line x1="1144.97" y1="356.06" x2="1144.97" y2="291.26" style="stroke:#F0F0F0;stroke-width:9.72"/>
	<line x1="1144.97" y1="258.86" x2="1144.97" y2="194.06" style="stroke:#F0F0F0;stroke-width:9.72"/>
	<line x1="1144.97" y1="161.66" x2="1144.97" y2="113.40" style="stroke:#F0F0F0;stroke-width:9.72"/>
	<line x1="1726.31" y1="2591.66" x2="1726.31" y2="2526.86" style="stroke:#F0F0F0;stroke-width:9.72"/>
	<line x1="1726.31" y1="2494.46" x2="1726.31" y2="2429.66" style="stroke:#F0F0F0;stroke-width:9.72"/>
	<line x1="1726.31" y1="2397.26" x2="1726.31" y2="2332.46" style="stroke:#F0F0F0;stroke-width:9.72"/>
	<line x1="1726.31" y1="2300.06" x2="1726.31" y2="2235.26" style="stroke:#F0F0F0;stroke-width:9.72"/>
	<line x1="1726.31" y1="2202.86" x2="1726.31" y2="2138.06" style="stroke:#F0F0F0;stroke-width:9.72"/>
	<line x1="1726.31" y1="2105.66" x2="1726.31" y2="2040.86" style="stroke:#F0F0F0;stroke-width:9.72"/>
	<line x1="1726.31" y1="2008.46" x2="1726.31" y2="1943.66" style="stroke:#F0F0F0;stroke-width:9.72"/>
	<line x1="1726.31" y1="1911.26" x2="1726.31" y2="1846.46" style="stroke:#F0F0F0;stroke-width:9.72"/>
	<line x1="1726.31" y1="1814.06" x2="1726.31" y2="1749.26" style="stroke:#F0F0F0;stroke-width:9.72"/>
	<line x1="1726.31" y1="1716.86" x2="1726.31" y2="1652.06" style="stroke:#F0F0F0;stroke-width:9.72"/>
	<line x1="1726.31" y1="1619.66" x2="1726.31" y2="1554.86" style="stroke:#F0F0F0;stroke-width:9.72"/>
	<line x1="1726.31" y1="1522.46" x2="1726.31" y2="1457.66" style="stroke:#F0F0F0;stroke-width:9.72"/>
	<line x1="1726.31" y1="1425.26" x2="1726.31" y2="1360.46" style="stroke:#F0F0F0;stroke-width:9.72"/>
	<line x1="1726.31" y1="1328.06" x2="1726.31" y2="1263.26" style="stroke:#F0F0F0;stroke-width:9.72"/>
	<line x1="1726.31" y1="1230.86" x2="1726.31" y2="1166.06" style="stroke:#F0F0F0;stroke-width:9.72"/>
	<line x1="1726.31" y1="1133.66" x2="1726.31" y2="1068.86" style="stroke:#F0F0F0;stroke-width:9.72"/>
	<line x1="1726.31" y1="1036.46" x2="1726.31" y2="971.66" style="stroke:#F0F0F0;stroke-width:9.72"/>
	<line x1="1726.31" y1="939.26" x2="1726.31" y2="874.46" style="stroke:#F0F0F0;stroke-width:9.72"/>
	<line x1="1726.31" y1="842.06" x2="1726.31" y2="777.26" style="stroke:#F0F0F0;stroke-width:9.72"/>
	<line x1="1726.31" y1="744.86" x2="1726.31" y2="680.06" style="stroke:#F0F0F0;stroke-width:9.72"/>
	<line x1="1726.31" y1="647.66" x2="1726.31" y2="582.86" style="stroke:#F0F0F0;stroke-width:9.72"/>
	<line x1="1726.31" y1="550.46" x2="1726.31" y2="485.66" style="stroke:#F0F0F0;stroke-width:9.72"/>
	<line x1="1726.31" y1="453.26" x2="1726.31" y2="388.46" style="stroke:#F0F0F0;stroke-width:9.72"/>
	<line x1="1726.31" y1="356.06" x2="1726.31" y2="291.26" style="stroke:#F0F0F0;stroke-width:9.72"/>
	<line x1="1726.31" y1="258.86" x2="1726.31" y2="194.06" style="stroke:#F0F0F0;stroke-width:9.72"/>
	<line x1="1726.31" y1="161.66" x2="1726.31" y2="113.40" style="stroke:#F0F0F0;stroke-width:9.72"/>
	<line x1="2307.82" y1="2591.66" x2="2307.82" y2="2526.86" style="stroke:#F0F0F0;stroke-width:9.72"/>
	<line x1="2307.82" y1="2494.46" x2="2307.82" y2="2429.66" style="stroke:#F0F0F0;stroke-width:9.72"/>
	<line x1="2307.82" y1="2397.26" x2="2307.82" y2="2332.46" style="stroke:#F0F0F0;stroke-width:9.72"/>
	<line x1="2307.82" y1="2300.06" x2="2307.82" y2="2235.26" style="stroke:#F0F0F0;stroke-width:9.72"/>
	<line x1="2307.82" y1="2202.86" x2="2307.82" y2="2138.06" style="stroke:#F0F0F0;stroke-width:9.72"/>
	<line x1="2307.82" y1="2105.66" x2="2307.82" y2="2040.86" style="stroke:#F0F0F0;stroke-width:9.72"/>
	<line x1="2307.82" y1="2008.46" x2="2307.82" y2="1943.66" style="stroke:#F0F0F0;stroke-width:9.72"/>
	<line x1="2307.82" y1="1911.26" x2="2307.82" y2="1846.46" style="stroke:#F0F0F0;stroke-width:9.72"/>
	<line x1="2307.82" y1="1814.06" x2="2307.82" y2="1749.26" style="stroke:#F0F0F0;stroke-width:9.72"/>
	<line x1="2307.82" y1="1716.86" x2="2307.82" y2="1652.06" style="stroke:#F0F0F0;stroke-width:9.72"/>
	<line x1="2307.82" y1="1619.66" x2="2307.82" y2="1554.86" style="stroke:#F0F0F0;stroke-width:9.72"/>
	<line x1="2307.82" y1="1522.46" x2="2307.82" y2="1457.66" style="stroke:#F0F0F0;stroke-width:9.72"/>
	<line x1="2307.82" y1="1425.26" x2="2307.82" y2="1360.46" style="stroke:#F0F0F0;stroke-width:9.72"/>
	<line x1="2307.82" y1="1328.06" x2="2307.82" y2="1263.26" style="stroke:#F0F0F0;stroke-width:9.72"/>
	<line x1="2307.82" y1="1230.86" x2="2307.82" y2="1166.06" style="stroke:#F0F0F0;stroke-width:9.72"/>
	<line x1="2307.82" y1="1133.66" x2="2307.82" y2="1068.86" style="stroke:#F0F0F0;stroke-width:9.72"/>
	<line x1="2307.82" y1="1036.46" x2="2307.82" y2="971.66" style="stroke:#F0F0F0;stroke-width:9.72"/>
	<line x1="2307.82" y1="939.26" x2="2307.82" y2="874.46" style="stroke:#F0F0F0;stroke-width:9.72"/>
	<line x1="2307.82" y1="842.06" x2="2307.82" y2="777.26" style="stroke:#F0F0F0;stroke-width:9.72"/>
	<line x1="2307.82" y1="744.86" x2="2307.82" y2="680.06" style="stroke:#F0F0F0;stroke-width:9.72"/>
	<line x1="2307.82" y1="647.66" x2="2307.82" y2="582.86" style="stroke:#F0F0F0;stroke-width:9.72"/>
	<line x1="2307.82" y1="550.46" x2="2307.82" y2="485.66" style="stroke:#F0F0F0;stroke-width:9.72"/>
	<line x1="2307.82" y1="453.26" x2="2307.82" y2="388.46" style="stroke:#F0F0F0;stroke-width:9.72"/>
	<line x1="2307.82" y1="356.06" x2="2307.82" y2="291.26" style="stroke:#F0F0F0;stroke-width:9.72"/>
	<line x1="2307.82" y1="258.86" x2="2307.82" y2="194.06" style="stroke:#F0F0F0;stroke-width:9.72"/>
	<line x1="2307.82" y1="161.66" x2="2307.82" y2="113.40" style="stroke:#F0F0F0;stroke-width:9.72"/>
	<line x1="2889.34" y1="2591.66" x2="2889.34" y2="2526.86" style="stroke:#F0F0F0;stroke-width:9.72"/>
	<line x1="2889.34" y1="2494.46" x2="2889.34" y2="2429.66" style="stroke:#F0F0F0;stroke-width:9.72"/>
	<line x1="2889.34" y1="2397.26" x2="2889.34" y2="2332.46" style="stroke:#F0F0F0;stroke-width:9.72"/>
	<line x1="2889.34" y1="2300.06" x2="2889.34" y2="2235.26" style="stroke:#F0F0F0;stroke-width:9.72"/>
	<line x1="2889.34" y1="2202.86" x2="2889.34" y2="2138.06" style="stroke:#F0F0F0;stroke-width:9.72"/>
	<line x1="2889.34" y1="2105.66" x2="2889.34" y2="2040.86" style="stroke:#F0F0F0;stroke-width:9.72"/>
	<line x1="2889.34" y1="2008.46" x2="2889.34" y2="1943.66" style="stroke:#F0F0F0;stroke-width:9.72"/>
	<line x1="2889.34" y1="1911.26" x2="2889.34" y2="1846.46" style="stroke:#F0F0F0;stroke-width:9.72"/>
	<line x1="2889.34" y1="1814.06" x2="2889.34" y2="1749.26" style="stroke:#F0F0F0;stroke-width:9.72"/>
	<line x1="2889.34" y1="1716.86" x2="2889.34" y2="1652.06" style="stroke:#F0F0F0;stroke-width:9.72"/>
	<line x1="2889.34" y1="1619.66" x2="2889.34" y2="1554.86" style="stroke:#F0F0F0;stroke-width:9.72"/>
	<line x1="2889.34" y1="1522.46" x2="2889.34" y2="1457.66" style="stroke:#F0F0F0;stroke-width:9.72"/>
	<line x1="2889.34" y1="1425.26" x2="2889.34" y2="1360.46" style="stroke:#F0F0F0;stroke-width:9.72"/>
	<line x1="2889.34" y1="1328.06" x2="2889.34" y2="1263.26" style="stroke:#F0F0F0;stroke-width:9.72"/>
	<line x1="2889.34" y1="1230.86" x2="2889.34" y2="1166.06" style="stroke:#F0F0F0;stroke-width:9.72"/>
	<line x1="2889.34" y1="1133.66" x2="2889.34" y2="1068.86" style="stroke:#F0F0F0;stroke-width:9.72"/>
	<line x1="2889.34" y1="1036.46" x2="2889.34" y2="971.66" style="stroke:#F0F0F0;stroke-width:9.72"/>
	<line x1="2889.34" y1="939.26" x2="2889.34" y2="874.46" style="stroke:#F0F0F0;stroke-width:9.72"/>
	<line x1="2889.34" y1="842.06" x2="2889.34" y2="777.26" style="stroke:#F0F0F0;stroke-width:9.72"/>
	<line x1="2889.34" y1="744.86" x2="2889.34" y2="680.06" style="stroke:#F0F0F0;stroke-width:9.72"/>
	<line x1="2889.34" y1="647.66" x2="2889.34" y2="582.86" style="stroke:#F0F0F0;stroke-width:9.72"/>
	<line x1="2889.34" y1="550.46" x2="2889.34" y2="485.66" style="stroke:#F0F0F0;stroke-width:9.72"/>
	<line x1="2889.34" y1="453.26" x2="2889.34" y2="388.46" style="stroke:#F0F0F0;stroke-width:9.72"/>
	<line x1="2889.34" y1="356.06" x2="2889.34" y2="291.26" style="stroke:#F0F0F0;stroke-width:9.72"/>
	<line x1="2889.34" y1="258.86" x2="2889.34" y2="194.06" style="stroke:#F0F0F0;stroke-width:9.72"/>
	<line x1="2889.34" y1="161.66" x2="2889.34" y2="113.40" style="stroke:#F0F0F0;stroke-width:9.72"/>
	<line x1="3470.85" y1="2591.66" x2="3470.85" y2="2526.86" style="stroke:#F0F0F0;stroke-width:9.72"/>
	<line x1="3470.85" y1="2494.46" x2="3470.85" y2="2429.66" style="stroke:#F0F0F0;stroke-width:9.72"/>
	<line x1="3470.85" y1="2397.26" x2="3470.85" y2="2332.46" style="stroke:#F0F0F0;stroke-width:9.72"/>
	<line x1="3470.85" y1="2300.06" x2="3470.85" y2="2235.26" style="stroke:#F0F0F0;stroke-width:9.72"/>
	<line x1="3470.85" y1="2202.86" x2="3470.85" y2="2138.06" style="stroke:#F0F0F0;stroke-width:9.72"/>
	<line x1="3470.85" y1="2105.66" x2="3470.85" y2="2040.86" style="stroke:#F0F0F0;stroke-width:9.72"/>
	<line x1="3470.85" y1="2008.46" x2="3470.85" y2="1943.66" style="stroke:#F0F0F0;stroke-width:9.72"/>
	<line x1="3470.85" y1="1911.26" x2="3470.85" y2="1846.46" style="stroke:#F0F0F0;stroke-width:9.72"/>
	<line x1="3470.85" y1="1814.06" x2="3470.85" y2="1749.26" style="stroke:#F0F0F0;stroke-width:9.72"/>
	<line x1="3470.85" y1="1716.86" x2="3470.85" y2="1652.06" style="stroke:#F0F0F0;stroke-width:9.72"/>
	<line x1="3470.85" y1="1619.66" x2="3470.85" y2="1554.86" style="stroke:#F0F0F0;stroke-width:9.72"/>
	<line x1="3470.85" y1="1522.46" x2="3470.85" y2="1457.66" style="stroke:#F0F0F0;stroke-width:9.72"/>
	<line x1="3470.85" y1="1425.26" x2="3470.85" y2="1360.46" style="stroke:#F0F0F0;stroke-width:9.72"/>
	<line x1="3470.85" y1="1328.06" x2="3470.85" y2="1263.26" style="stroke:#F0F0F0;stroke-width:9.72"/>
	<line x1="3470.85" y1="1230.86" x2="3470.85" y2="1166.06" style="stroke:#F0F0F0;stroke-width:9.72"/>
	<line x1="3470.85" y1="1133.66" x2="3470.85" y2="1068.86" style="stroke:#F0F0F0;stroke-width:9.72"/>
	<line x1="3470.85" y1="1036.46" x2="3470.85" y2="971.66" style="stroke:#F0F0F0;stroke-width:9.72"/>
	<line x1="3470.85" y1="939.26" x2="3470.85" y2="874.46" style="stroke:#F0F0F0;stroke-width:9.72"/>
	<line x1="3470.85" y1="842.06" x2="3470.85" y2="777.26" style="stroke:#F0F0F0;stroke-width:9.72"/>
	<line x1="3470.85" y1="744.86" x2="3470.85" y2="680.06" style="stroke:#F0F0F0;stroke-width:9.72"/>
	<line x1="3470.85" y1="647.66" x2="3470.85" y2="582.86" style="stroke:#F0F0F0;stroke-width:9.72"/>
	<line x1="3470.85" y1="550.46" x2="3470.85" y2="485.66" style="stroke:#F0F0F0;stroke-width:9.72"/>
	<line x1="3470.85" y1="453.26" x2="3470.85" y2="388.46" style="stroke:#F0F0F0;stroke-width:9.72"/>
	<line x1="3470.85" y1="356.06" x2="3470.85" y2="291.26" style="stroke:#F0F0F0;stroke-width:9.72"/>
	<line x1="3470.85" y1="258.86" x2="3470.85" y2="194.06" style="stroke:#F0F0F0;stroke-width:9.72"/>
	<line x1="3470.85" y1="161.66" x2="3470.85" y2="113.40" style="stroke:#F0F0F0;stroke-width:9.72"/>
	<line x1="4052.36" y1="2591.66" x2="4052.36" y2="2526.86" style="stroke:#F0F0F0;stroke-width:9.72"/>
	<line x1="4052.36" y1="2494.46" x2="4052.36" y2="2429.66" style="stroke:#F0F0F0;stroke-width:9.72"/>
	<line x1="4052.36" y1="2397.26" x2="4052.36" y2="2332.46" style="stroke:#F0F0F0;stroke-width:9.72"/>
	<line x1="4052.36" y1="2300.06" x2="4052.36" y2="2235.26" style="stroke:#F0F0F0;stroke-width:9.72"/>
	<line x1="4052.36" y1="2202.86" x2="4052.36" y2="2138.06" style="stroke:#F0F0F0;stroke-width:9.72"/>
	<line x1="4052.36" y1="2105.66" x2="4052.36" y2="2040.86" style="stroke:#F0F0F0;stroke-width:9.72"/>
	<line x1="4052.36" y1="2008.46" x2="4052.36" y2="1943.66" style="stroke:#F0F0F0;stroke-width:9.72"/>
	<line x1="4052.36" y1="1911.26" x2="4052.36" y2="1846.46" style="stroke:#F0F0F0;stroke-width:9.72"/>
	<line x1="4052.36" y1="1814.06" x2="4052.36" y2="1749.26" style="stroke:#F0F0F0;stroke-width:9.72"/>
	<line x1="4052.36" y1="1716.86" x2="4052.36" y2="1652.06" style="stroke:#F0F0F0;stroke-width:9.72"/>
	<line x1="4052.36" y1="1619.66" x2="4052.36" y2="1554.86" style="stroke:#F0F0F0;stroke-width:9.72"/>
	<line x1="4052.36" y1="1522.46" x2="4052.36" y2="1457.66" style="stroke:#F0F0F0;stroke-width:9.72"/>
	<line x1="4052.36" y1="1425.26" x2="4052.36" y2="1360.46" style="stroke:#F0F0F0;stroke-width:9.72"/>
	<line x1="4052.36" y1="1328.06" x2="4052.36" y2="1263.26" style="stroke:#F0F0F0;stroke-width:9.72"/>
	<line x1="4052.36" y1="1230.86" x2="4052.36" y2="1166.06" style="stroke:#F0F0F0;stroke-width:9.72"/>
	<line x1="4052.36" y1="1133.66" x2="4052.36" y2="1068.86" style="stroke:#F0F0F0;stroke-width:9.72"/>
	<line x1="4052.36" y1="1036.46" x2="4052.36" y2="971.66" style="stroke:#F0F0F0;stroke-width:9.72"/>
	<line x1="4052.36" y1="939.26" x2="4052.36" y2="874.46" style="stroke:#F0F0F0;stroke-width:9.72"/>
	<line x1="4052.36" y1="842.06" x2="4052.36" y2="777.26" style="stroke:#F0F0F0;stroke-width:9.72"/>
	<line x1="4052.36" y1="744.86" x2="4052.36" y2="680.06" style="stroke:#F0F0F0;stroke-width:9.72"/>
	<line x1="4052.36" y1="647.66" x2="4052.36" y2="582.86" style="stroke:#F0F0F0;stroke-width:9.72"/>
	<line x1="4052.36" y1="550.46" x2="4052.36" y2="485.66" style="stroke:#F0F0F0;stroke-width:9.72"/>
	<line x1="4052.36" y1="453.26" x2="4052.36" y2="388.46" style="stroke:#F0F0F0;stroke-width:9.72"/>
	<line x1="4052.36" y1="356.06" x2="4052.36" y2="291.26" style="stroke:#F0F0F0;stroke-width:9.72"/>
	<line x1="4052.36" y1="258.86" x2="4052.36" y2="194.06" style="stroke:#F0F0F0;stroke-width:9.72"/>
	<line x1="4052.36" y1="161.66" x2="4052.36" y2="113.40" style="stroke:#F0F0F0;stroke-width:9.72"/>
	<line x1="4633.88" y1="2591.66" x2="4633.88" y2="2526.86" style="stroke:#F0F0F0;stroke-width:9.72"/>
	<line x1="4633.88" y1="2494.46" x2="4633.88" y2="2429.66" style="stroke:#F0F0F0;stroke-width:9.72"/>
	<line x1="4633.88" y1="2397.26" x2="4633.88" y2="2332.46" style="stroke:#F0F0F0;stroke-width:9.72"/>
	<line x1="4633.88" y1="2300.06" x2="4633.88" y2="2235.26" style="stroke:#F0F0F0;stroke-width:9.72"/>
	<line x1="4633.88" y1="2202.86" x2="4633.88" y2="2138.06" style="stroke:#F0F0F0;stroke-width:9.72"/>
	<line x1="4633.88" y1="2105.66" x2="4633.88" y2="2040.86" style="stroke:#F0F0F0;stroke-width:9.72"/>
	<line x1="4633.88" y1="2008.46" x2="4633.88" y2="1943.66" style="stroke:#F0F0F0;stroke-width:9.72"/>
	<line x1="4633.88" y1="1911.26" x2="4633.88" y2="1846.46" style="stroke:#F0F0F0;stroke-width:9.72"/>
	<line x1="4633.88" y1="1814.06" x2="4633.88" y2="1749.26" style="stroke:#F0F0F0;stroke-width:9.72"/>
	<line x1="4633.88" y1="1716.86" x2="4633.88" y2="1652.06" style="stroke:#F0F0F0;stroke-width:9.72"/>
	<line x1="4633.88" y1="1619.66" x2="4633.88" y2="1554.86" style="stroke:#F0F0F0;stroke-width:9.72"/>
	<line x1="4633.88" y1="1522.46" x2="4633.88" y2="1457.66" style="stroke:#F0F0F0;stroke-width:9.72"/>
	<line x1="4633.88" y1="1425.26" x2="4633.88" y2="1360.46" style="stroke:#F0F0F0;stroke-width:9.72"/>
	<line x1="4633.88" y1="1328.06" x2="4633.88" y2="1263.26" style="stroke:#F0F0F0;stroke-width:9.72"/>
	<line x1="4633.88" y1="1230.86" x2="4633.88" y2="1166.06" style="stroke:#F0F0F0;stroke-width:9.72"/>
	<line x1="4633.88" y1="1133.66" x2="4633.88" y2="1068.86" style="stroke:#F0F0F0;stroke-width:9.72"/>
	<line x1="4633.88" y1="1036.46" x2="4633.88" y2="971.66" style="stroke:#F0F0F0;stroke-width:9.72"/>
	<line x1="4633.88" y1="939.26" x2="4633.88" y2="874.46" style="stroke:#F0F0F0;stroke-width:9.72"/>
	<line x1="4633.88" y1="842.06" x2="4633.88" y2="777.26" style="stroke:#F0F0F0;stroke-width:9.72"/>
	<line x1="4633.88" y1="744.86" x2="4633.88" y2="680.06" style="stroke:#F0F0F0;stroke-width:9.72"/>
	<line x1="4633.88" y1="647.66" x2="4633.88" y2="582.86" style="stroke:#F0F0F0;stroke-width:9.72"/>
	<line x1="4633.88" y1="550.46" x2="4633.88" y2="485.66" style="stroke:#F0F0F0;stroke-width:9.72"/>
	<line x1="4633.88" y1="453.26" x2="4633.88" y2="388.46" style="stroke:#F0F0F0;stroke-width:9.72"/>
	<line x1="4633.88" y1="356.06" x2="4633.88" y2="291.26" style="stroke:#F0F0F0;stroke-width:9.72"/>
	<line x1="4633.88" y1="258.86" x2="4633.88" y2="194.06" style="stroke:#F0F0F0;stroke-width:9.72"/>
	<line x1="4633.88" y1="161.66" x2="4633.88" y2="113.40" style="stroke:#F0F0F0;stroke-width:9.72"/>
	<line x1="5215.39" y1="2591.66" x2="5215.39" y2="2526.86" style="stroke:#F0F0F0;stroke-width:9.72"/>
	<line x1="5215.39" y1="2494.46" x2="5215.39" y2="2429.66" style="stroke:#F0F0F0;stroke-width:9.72"/>
	<line x1="5215.39" y1="2397.26" x2="5215.39" y2="2332.46" style="stroke:#F0F0F0;stroke-width:9.72"/>
	<line x1="5215.39" y1="2300.06" x2="5215.39" y2="2235.26" style="stroke:#F0F0F0;stroke-width:9.72"/>
	<line x1="5215.39" y1="2202.86" x2="5215.39" y2="2138.06" style="stroke:#F0F0F0;stroke-width:9.72"/>
	<line x1="5215.39" y1="2105.66" x2="5215.39" y2="2040.86" style="stroke:#F0F0F0;stroke-width:9.72"/>
	<line x1="5215.39" y1="2008.46" x2="5215.39" y2="1943.66" style="stroke:#F0F0F0;stroke-width:9.72"/>
	<line x1="5215.39" y1="1911.26" x2="5215.39" y2="1846.46" style="stroke:#F0F0F0;stroke-width:9.72"/>
	<line x1="5215.39" y1="1814.06" x2="5215.39" y2="1749.26" style="stroke:#F0F0F0;stroke-width:9.72"/>
	<line x1="5215.39" y1="1716.86" x2="5215.39" y2="1652.06" style="stroke:#F0F0F0;stroke-width:9.72"/>
	<line x1="5215.39" y1="1619.66" x2="5215.39" y2="1554.86" style="stroke:#F0F0F0;stroke-width:9.72"/>
	<line x1="5215.39" y1="1522.46" x2="5215.39" y2="1457.66" style="stroke:#F0F0F0;stroke-width:9.72"/>
	<line x1="5215.39" y1="1425.26" x2="5215.39" y2="1360.46" style="stroke:#F0F0F0;stroke-width:9.72"/>
	<line x1="5215.39" y1="1328.06" x2="5215.39" y2="1263.26" style="stroke:#F0F0F0;stroke-width:9.72"/>
	<line x1="5215.39" y1="1230.86" x2="5215.39" y2="1166.06" style="stroke:#F0F0F0;stroke-width:9.72"/>
	<line x1="5215.39" y1="1133.66" x2="5215.39" y2="1068.86" style="stroke:#F0F0F0;stroke-width:9.72"/>
	<line x1="5215.39" y1="1036.46" x2="5215.39" y2="971.66" style="stroke:#F0F0F0;stroke-width:9.72"/>
	<line x1="5215.39" y1="939.26" x2="5215.39" y2="874.46" style="stroke:#F0F0F0;stroke-width:9.72"/>
	<line x1="5215.39" y1="842.06" x2="5215.39" y2="777.26" style="stroke:#F0F0F0;stroke-width:9.72"/>
	<line x1="5215.39" y1="744.86" x2="5215.39" y2="680.06" style="stroke:#F0F0F0;stroke-width:9.72"/>
	<line x1="5215.39" y1="647.66" x2="5215.39" y2="582.86" style="stroke:#F0F0F0;stroke-width:9.72"/>
	<line x1="5215.39" y1="550.46" x2="5215.39" y2="485.66" style="stroke:#F0F0F0;stroke-width:9.72"/>
	<line x1="5215.39" y1="453.26" x2="5215.39" y2="388.46" style="stroke:#F0F0F0;stroke-width:9.72"/>
	<line x1="5215.39" y1="356.06" x2="5215.39" y2="291.26" style="stroke:#F0F0F0;stroke-width:9.72"/>
	<line x1="5215.39" y1="258.86" x2="5215.39" y2="194.06" style="stroke:#F0F0F0;stroke-width:9.72"/>
	<line x1="5215.39" y1="161.66" x2="5215.39" y2="113.40" style="stroke:#F0F0F0;stroke-width:9.72"/>
	<path d=" M563.29 2509.99 L574.93 2509.48 L586.58 2509.14 L598.22 2508.81 L609.86 2508.30 L621.51 2507.96 L633.15 2507.46 L644.79 2507.12 L656.44 2506.61 L668.08 2506.11 L679.56 2505.60 L691.20 2505.09 L702.84 2504.59 L714.49 2504.08 L726.13 2503.41 L737.78 2502.90 L749.42 2502.23 L761.06 2501.55 L772.71 2500.88 L784.35 2500.20 L795.99 2499.53 L807.64 2498.85 L819.11 2498.01 L830.76 2497.33 L842.40 2496.49 L854.04 2495.64 L865.69 2494.80 L877.33 2493.79 L888.98 2492.94 L900.62 2491.93 L912.26 2490.92 L923.91 2489.91 L935.55 2488.73 L947.19 2487.71 L958.67 2486.53 L970.31 2485.35 L981.96 2484.17 L993.60 2482.82 L1005.24 2481.47 L1016.89 2480.12 L1028.53 2478.60 L1040.18 2477.25 L1051.82 2475.73 L1063.46 2474.04 L1075.11 2472.36 L1086.75 2470.67 L1098.22 2468.98 L1109.87 2467.13 L1121.51 2465.27 L1133.16 2463.24 L1144.80 2461.22 L1156.44 2459.19 L1168.09 2457.00 L1179.73 2454.81 L1191.38 2452.44 L1203.02 2450.08 L1214.66 2447.55 L1226.31 2445.02 L1237.78 2442.32 L1249.43 2439.62 L1261.07 2436.75 L1272.71 2433.88 L1284.36 2430.84 L1296.00 2427.64 L1307.64 2424.43 L1319.29 2421.06 L1330.93 2417.51 L1342.58 2413.97 L1354.22 2410.26 L1365.86 2406.38 L1377.34 2402.49 L1388.98 2398.44 L1400.63 2394.23 L1412.27 2389.84 L1423.91 2385.28 L1435.56 2380.56 L1447.20 2375.83 L1458.84 2370.94 L1470.49 2365.71 L1482.13 2360.48 L1493.78 2354.91 L1505.42 2349.34 L1516.89 2343.60 L1528.54 2337.53 L1540.18 2331.45 L1551.83 2325.04 L1563.47 2318.46 L1575.11 2311.71 L1586.76 2304.62 L1598.40 2297.53 L1610.04 2290.11 L1621.69 2282.51 L1633.33 2274.58 L1644.98 2266.48 L1656.45 2258.21 L1668.09 2249.61 L1679.74 2240.83 L1691.38 2231.89 L1703.03 2222.44 L1714.67 2212.99 L1726.31 2203.03 L1737.96 2192.91 L1749.60 2182.61 L1761.24 2171.98 L1772.89 2161.01 L1784.53 2149.71 L1796.01 2138.23 L1807.65 2126.42 L1819.29 2114.27 L1830.94 2101.78 L1842.58 2089.13 L1854.23 2075.96 L1865.87 2062.63 L1877.51 2048.96 L1889.16 2034.96 L1900.80 2020.61 L1912.44 2005.93 L1924.09 1990.91 L1935.56 1975.56 L1947.21 1959.86 L1958.85 1943.83 L1970.49 1927.63 L1982.14 1910.93 L1993.78 1893.88 L2005.43 1876.67 L2017.07 1858.95 L2028.71 1840.89 L2040.36 1822.67 L2052.00 1804.11 L2063.64 1785.04 L2075.29 1765.80 L2086.76 1746.23 L2098.41 1726.31 L2110.05 1706.06 L2121.69 1685.64 L2133.34 1664.89 L2144.98 1643.79 L2156.63 1622.36 L2168.27 1600.76 L2179.91 1578.83 L2191.56 1556.72 L2203.20 1534.44 L2214.84 1511.83 L2226.32 1489.05 L2237.96 1466.10 L2249.61 1442.81 L2261.25 1419.53 L2272.89 1396.07 L2284.54 1372.44 L2296.18 1348.65 L2307.82 1324.86 L2319.47 1300.89 L2331.11 1276.76 L2342.76 1252.80 L2354.40 1228.67 L2365.88 1204.54 L2377.52 1180.41 L2389.16 1156.44 L2400.81 1132.31 L2412.45 1108.52 L2424.09 1084.72 L2435.74 1060.93 L2447.38 1037.47 L2459.03 1014.02 L2470.67 990.90 L2482.31 968.12 L2493.96 945.34 L2505.43 923.06 L2517.07 900.96 L2528.72 879.19 L2540.36 857.76 L2552.01 836.83 L2563.65 816.24 L2575.29 796.16 L2586.94 776.42 L2598.58 757.35 L2610.23 738.62 L2621.87 720.56 L2633.51 703.01 L2644.99 685.97 L2656.63 669.60 L2668.28 653.91 L2679.92 638.89 L2691.56 624.54 L2703.21 610.88 L2714.85 597.88 L2726.49 585.73 L2738.14 574.26 L2749.78 563.63 L2761.43 553.67 L2773.07 544.72 L2784.54 536.46 L2796.19 529.03 L2807.83 522.45 L2819.48 516.71 L2831.12 511.82 L2842.76 507.94 L2854.41 504.73 L2866.05 502.54 L2877.69 501.19 L2889.34 500.85 L2900.98 501.19 L2912.63 502.54 L2924.10 504.73 L2935.74 507.94 L2947.39 511.82 L2959.03 516.71 L2970.68 522.45 L2982.32 529.03 L2993.96 536.46 L3005.61 544.72 L3017.25 553.67 L3028.89 563.63 L3040.54 574.26 L3052.18 585.73 L3063.66 597.88 L3075.30 610.88 L3086.94 624.54 L3098.59 638.89 L3110.23 653.91 L3121.88 669.60 L3133.52 685.97 L3145.16 703.01 L3156.81 720.56 L3168.45 738.62 L3180.09 757.35 L3191.74 776.42 L3203.21 796.16 L3214.86 816.24 L3226.50 836.83 L3238.14 857.76 L3249.79 879.19 L3261.43 900.96 L3273.08 923.06 L3284.72 945.34 L3296.36 968.12 L3308.01 990.90 L3319.65 1014.02 L3331.29 1037.47 L3342.77 1060.93 L3354.41 1084.72 L3366.06 1108.52 L3377.70 1132.31 L3389.34 1156.44 L3400.99 1180.41 L3412.63 1204.54 L3424.28 1228.67 L3435.92 1252.80 L3447.56 1276.76 L3459.21 1300.89 L3470.85 1324.86 L3482.33 1348.65 L3493.97 1372.44 L3505.61 1396.07 L3517.26 1419.53 L3528.90 1442.81 L3540.54 1466.10 L3552.19 1489.05 L3563.83 1511.83 L3575.48 1534.44 L3587.12 1556.72 L3598.76 1578.83 L3610.41 1600.76 L3621.88 1622.36 L3633.53 1643.79 L3645.17 1664.89 L3656.81 1685.64 L3668.46 1706.06 L3680.10 1726.31 L3691.74 1746.23 L3703.39 1765.80 L3715.03 1785.04 L3726.68 1804.11 L3738.32 1822.67 L3749.96 1840.89 L3761.44 1858.95 L3773.08 1876.67 L3784.73 1893.88 L3796.37 1910.93 L3808.01 1927.63 L3819.66 1943.83 L3831.30 1959.86 L3842.94 1975.56 L3854.59 1990.91 L3866.23 2005.93 L3877.88 2020.61 L3889.52 2034.96 L3900.99 2048.96 L3912.64 2062.63 L3924.28 2075.96 L3935.93 2089.13 L3947.57 2101.78 L3959.21 2114.27 L3970.86 2126.42 L3982.50 2138.23 L3994.14 2149.71 L4005.79 2161.01 L4017.43 2171.98 L4029.08 2182.61 L4040.55 2192.91 L4052.19 2203.03 L4063.84 2212.99 L4075.48 2222.44 L4087.13 2231.89 L4098.77 2240.83 L4110.41 2249.61 L4122.06 2258.21 L4133.70 2266.48 L4145.34 2274.58 L4156.99 2282.51 L4168.63 2290.11 L4180.11 2297.53 L4191.75 2304.62 L4203.39 2311.71 L4215.04 2318.46 L4226.68 2325.04 L4238.33 2331.45 L4249.97 2337.53 L4261.61 2343.60 L4273.26 2349.34 L4284.90 2354.91 L4296.54 2360.48 L4308.19 2365.71 L4319.66 2370.94 L4331.31 2375.83 L4342.95 2380.56 L4354.59 2385.28 L4366.24 2389.84 L4377.88 2394.23 L4389.52 2398.44 L4401.17 2402.49 L4412.81 2406.38 L4424.46 2410.26 L4436.10 2413.97 L4447.74 2417.51 L4459.22 2421.06 L4470.86 2424.43 L4482.51 2427.64 L4494.15 2430.84 L4505.79 2433.88 L4517.44 2436.75 L4529.08 2439.62 L4540.73 2442.32 L4552.37 2445.02 L4564.01 2447.55 L4575.66 2450.08 L4587.30 2452.44 L4598.94 2454.81 L4610.42 2457.00 L4622.06 2459.19 L4633.71 2461.22 L4645.35 2463.24 L4656.99 2465.27 L4668.64 2467.13 L4680.28 2468.98 L4691.93 2470.67 L4703.57 2472.36 L4715.21 2474.04 L4726.86 2475.73 L4738.50 2477.25 L4749.98 2478.60 L4761.62 2480.12 L4773.26 2481.47 L4784.91 2482.82 L4796.55 2484.17 L4808.19 2485.35 L4819.84 2486.53 L4831.48 2487.71 L4843.13 2488.73 L4854.77 2489.91 L4866.41 2490.92 L4878.06 2491.93 L4889.53 2492.94 L4901.18 2493.79 L4912.82 2494.80 L4924.46 2495.64 L4936.11 2496.49 L4947.75 2497.33 L4959.39 2498.01 L4971.04 2498.85 L4982.68 2499.53 L4994.33 2500.20 L5005.97 2500.88 L5017.61 2501.55 L5029.09 2502.23 L5040.73 2502.90 L5052.38 2503.41 L5064.02 2504.08 L5075.66 2504.59 L5087.31 2505.09 L5098.95 2505.60 L5110.59 2506.11 L5122.24 2506.61 L5133.88 2507.12 L5145.52 2507.46 L5157.17 2507.96 L5168.64 2508.30 L5180.29 2508.81 L5191.93 2509.14 L5203.58 2509.48 L5215.22 2509.99" stroke-linejoin="round" style="fill:none;stroke:#D0D0D0;stroke-width:9.72"/>
	<path d=" M563.29 2516.23 L574.93 2516.06 L586.58 2515.73 L598.22 2515.56 L609.86 2515.39 L621.51 2515.05 L633.15 2514.88 L644.79 2514.54 L656.44 2514.21 L668.08 2514.04 L679.56 2513.70 L691.20 2513.36 L702.84 2513.03 L714.49 2512.69 L726.13 2512.35 L737.78 2511.84 L749.42 2511.51 L761.06 2511.00 L772.71 2510.66 L784.35 2510.16 L795.99 2509.65 L807.64 2509.14 L819.11 2508.64 L830.76 2508.13 L842.40 2507.46 L854.04 2506.95 L865.69 2506.28 L877.33 2505.60 L888.98 2504.93 L900.62 2504.25 L912.26 2503.41 L923.91 2502.73 L935.55 2501.89 L947.19 2501.04 L958.67 2500.03 L970.31 2499.19 L981.96 2498.18 L993.60 2497.16 L1005.24 2496.15 L1016.89 2494.97 L1028.53 2493.79 L1040.18 2492.61 L1051.82 2491.43 L1063.46 2490.07 L1075.11 2488.73 L1086.75 2487.21 L1098.22 2485.69 L1109.87 2484.17 L1121.51 2482.65 L1133.16 2480.96 L1144.80 2479.11 L1156.44 2477.25 L1168.09 2475.39 L1179.73 2473.37 L1191.38 2471.34 L1203.02 2469.15 L1214.66 2466.96 L1226.31 2464.59 L1237.78 2462.23 L1249.43 2459.70 L1261.07 2457.00 L1272.71 2454.30 L1284.36 2451.43 L1296.00 2448.39 L1307.64 2445.36 L1319.29 2442.15 L1330.93 2438.94 L1342.58 2435.40 L1354.22 2431.86 L1365.86 2428.14 L1377.34 2424.26 L1388.98 2420.38 L1400.63 2416.16 L1412.27 2411.94 L1423.91 2407.39 L1435.56 2402.83 L1447.20 2397.94 L1458.84 2393.04 L1470.49 2387.81 L1482.13 2382.58 L1493.78 2377.01 L1505.42 2371.28 L1516.89 2365.37 L1528.54 2359.29 L1540.18 2353.05 L1551.83 2346.47 L1563.47 2339.72 L1575.11 2332.80 L1586.76 2325.54 L1598.40 2318.12 L1610.04 2310.36 L1621.69 2302.43 L1633.33 2294.16 L1644.98 2285.72 L1656.45 2277.11 L1668.09 2268.00 L1679.74 2258.89 L1691.38 2249.27 L1703.03 2239.48 L1714.67 2229.36 L1726.31 2218.89 L1737.96 2208.26 L1749.60 2197.29 L1761.24 2185.99 L1772.89 2174.34 L1784.53 2162.36 L1796.01 2150.04 L1807.65 2137.56 L1819.29 2124.56 L1830.94 2111.40 L1842.58 2097.73 L1854.23 2083.89 L1865.87 2069.55 L1877.51 2055.04 L1889.16 2040.02 L1900.80 2024.83 L1912.44 2009.14 L1924.09 1993.11 L1935.56 1976.74 L1947.21 1960.20 L1958.85 1943.16 L1970.49 1925.78 L1982.14 1908.06 L1993.78 1890.00 L2005.43 1871.61 L2017.07 1852.88 L2028.71 1833.81 L2040.36 1814.40 L2052.00 1794.66 L2063.64 1774.58 L2075.29 1754.16 L2086.76 1733.57 L2098.41 1712.64 L2110.05 1691.38 L2121.69 1669.78 L2133.34 1648.01 L2144.98 1625.91 L2156.63 1603.46 L2168.27 1580.85 L2179.91 1558.07 L2191.56 1534.95 L2203.20 1511.66 L2214.84 1488.21 L2226.32 1464.58 L2237.96 1440.79 L2249.61 1416.83 L2261.25 1392.69 L2272.89 1368.56 L2284.54 1344.09 L2296.18 1319.79 L2307.82 1295.33 L2319.47 1270.69 L2331.11 1246.22 L2342.76 1221.58 L2354.40 1197.11 L2365.88 1172.64 L2377.52 1148.18 L2389.16 1123.71 L2400.81 1099.57 L2412.45 1075.28 L2424.09 1051.31 L2435.74 1027.52 L2447.38 1003.89 L2459.03 980.44 L2470.67 957.32 L2482.31 934.37 L2493.96 911.76 L2505.43 889.48 L2517.07 867.54 L2528.72 845.94 L2540.36 824.85 L2552.01 804.09 L2563.65 783.68 L2575.29 763.76 L2586.94 744.36 L2598.58 725.63 L2610.23 707.23 L2621.87 689.51 L2633.51 672.30 L2644.99 655.59 L2656.63 639.56 L2668.28 624.21 L2679.92 609.53 L2691.56 595.52 L2703.21 582.19 L2714.85 569.70 L2726.49 557.72 L2738.14 546.75 L2749.78 536.29 L2761.43 526.67 L2773.07 517.89 L2784.54 509.96 L2796.19 502.71 L2807.83 496.46 L2819.48 490.89 L2831.12 486.17 L2842.76 482.29 L2854.41 479.42 L2866.05 477.22 L2877.69 475.88 L2889.34 475.54 L2900.98 475.88 L2912.63 477.22 L2924.10 479.42 L2935.74 482.29 L2947.39 486.17 L2959.03 490.89 L2970.68 496.46 L2982.32 502.71 L2993.96 509.96 L3005.61 517.89 L3017.25 526.67 L3028.89 536.29 L3040.54 546.75 L3052.18 557.72 L3063.66 569.70 L3075.30 582.19 L3086.94 595.52 L3098.59 609.53 L3110.23 624.21 L3121.88 639.56 L3133.52 655.59 L3145.16 672.30 L3156.81 689.51 L3168.45 707.23 L3180.09 725.63 L3191.74 744.36 L3203.21 763.76 L3214.86 783.68 L3226.50 804.09 L3238.14 824.85 L3249.79 845.94 L3261.43 867.54 L3273.08 889.48 L3284.72 911.76 L3296.36 934.37 L3308.01 957.32 L3319.65 980.44 L3331.29 1003.89 L3342.77 1027.52 L3354.41 1051.31 L3366.06 1075.28 L3377.70 1099.57 L3389.34 1123.71 L3400.99 1148.18 L3412.63 1172.64 L3424.28 1197.11 L3435.92 1221.58 L3447.56 1246.22 L3459.21 1270.69 L3470.85 1295.33 L3482.33 1319.79 L3493.97 1344.09 L3505.61 1368.56 L3517.26 1392.69 L3528.90 1416.83 L3540.54 1440.79 L3552.19 1464.58 L3563.83 1488.21 L3575.48 1511.66 L3587.12 1534.95 L3598.76 1558.07 L3610.41 1580.85 L3621.88 1603.46 L3633.53 1625.91 L3645.17 1648.01 L3656.81 1669.78 L3668.46 1691.38 L3680.10 1712.64 L3691.74 1733.57 L3703.39 1754.16 L3715.03 1774.58 L3726.68 1794.66 L3738.32 1814.40 L3749.96 1833.81 L3761.44 1852.88 L3773.08 1871.61 L3784.73 1890.00 L3796.37 1908.06 L3808.01 1925.78 L3819.66 1943.16 L3831.30 1960.20 L3842.94 1976.74 L3854.59 1993.11 L3866.23 2009.14 L3877.88 2024.83 L3889.52 2040.02 L3900.99 2055.04 L3912.64 2069.55 L3924.28 2083.89 L3935.93 2097.73 L3947.57 2111.40 L3959.21 2124.56 L3970.86 2137.56 L3982.50 2150.04 L3994.14 2162.36 L4005.79 2174.34 L4017.43 2185.99 L4029.08 2197.29 L4040.55 2208.26 L4052.19 2218.89 L4063.84 2229.36 L4075.48 2239.48 L4087.13 2249.27 L4098.77 2258.89 L4110.41 2268.00 L4122.06 2277.11 L4133.70 2285.72 L4145.34 2294.16 L4156.99 2302.43 L4168.63 2310.36 L4180.11 2318.12 L4191.75 2325.54 L4203.39 2332.80 L4215.04 2339.72 L4226.68 2346.47 L4238.33 2353.05 L4249.97 2359.29 L4261.61 2365.37 L4273.26 2371.28 L4284.90 2377.01 L4296.54 2382.58 L4308.19 2387.81 L4319.66 2393.04 L4331.31 2397.94 L4342.95 2402.83 L4354.59 2407.39 L4366.24 2411.94 L4377.88 2416.16 L4389.52 2420.38 L4401.17 2424.26 L4412.81 2428.14 L4424.46 2431.86 L4436.10 2435.40 L4447.74 2438.94 L4459.22 2442.15 L4470.86 2445.36 L4482.51 2448.39 L4494.15 2451.43 L4505.79 2454.30 L4517.44 2457.00 L4529.08 2459.70 L4540.73 2462.23 L4552.37 2464.59 L4564.01 2466.96 L4575.66 2469.15 L4587.30 2471.34 L4598.94 2473.37 L4610.42 2475.39 L4622.06 2477.25 L4633.71 2479.11 L4645.35 2480.96 L4656.99 2482.65 L4668.64 2484.17 L4680.28 2485.69 L4691.93 2487.21 L4703.57 2488.73 L4715.21 2490.07 L4726.86 2491.43 L4738.50 2492.61 L4749.98 2493.79 L4761.62 2494.97 L4773.26 2496.15 L4784.91 2497.16 L4796.55 2498.18 L4808.19 2499.19 L4819.84 2500.03 L4831.48 2501.04 L4843.13 2501.89 L4854.77 2502.73 L4866.41 2503.41 L4878.06 2504.25 L4889.53 2504.93 L4901.18 2505.60 L4912.82 2506.28 L4924.46 2506.95 L4936.11 2507.46 L4947.75 2508.13 L4959.39 2508.64 L4971.04 2509.14 L4982.68 2509.65 L4994.33 2510.16 L5005.97 2510.66 L5017.61 2511.00 L5029.09 2511.51 L5040.73 2511.84 L5052.38 2512.35 L5064.02 2512.69 L5075.66 2513.03 L5087.31 2513.36 L5098.95 2513.70 L5110.59 2514.04 L5122.24 2514.21 L5133.88 2514.54 L5145.52 2514.88 L5157.17 2515.05 L5168.64 2515.39 L5180.29 2515.56 L5191.93 2515.73 L5203.58 2516.06 L5215.22 2516.23" stroke-linejoin="round" style="fill:none;stroke:#808080;stroke-width:9.72"/>
	<path d=" M563.29 2518.76 L574.93 2518.59 L586.58 2518.43 L598.22 2518.43 L609.86 2518.26 L621.51 2518.09 L633.15 2517.92 L644.79 2517.75 L656.44 2517.58 L668.08 2517.41 L679.56 2517.24 L691.20 2517.07 L702.84 2516.91 L714.49 2516.57 L726.13 2516.40 L737.78 2516.23 L749.42 2515.89 L761.06 2515.56 L772.71 2515.39 L784.35 2515.05 L795.99 2514.71 L807.64 2514.38 L819.11 2514.04 L830.76 2513.53 L842.40 2513.19 L854.04 2512.69 L865.69 2512.35 L877.33 2511.84 L888.98 2511.34 L900.62 2510.83 L912.26 2510.16 L923.91 2509.65 L935.55 2508.98 L947.19 2508.30 L958.67 2507.63 L970.31 2506.95 L981.96 2506.11 L993.60 2505.26 L1005.24 2504.42 L1016.89 2503.57 L1028.53 2502.56 L1040.18 2501.72 L1051.82 2500.54 L1063.46 2499.53 L1075.11 2498.34 L1086.75 2497.16 L1098.22 2495.98 L1109.87 2494.63 L1121.51 2493.11 L1133.16 2491.76 L1144.80 2490.24 L1156.44 2488.56 L1168.09 2486.87 L1179.73 2485.18 L1191.38 2483.32 L1203.02 2481.30 L1214.66 2479.28 L1226.31 2477.25 L1237.78 2475.06 L1249.43 2472.69 L1261.07 2470.16 L1272.71 2467.63 L1284.36 2465.10 L1296.00 2462.23 L1307.64 2459.36 L1319.29 2456.32 L1330.93 2453.29 L1342.58 2449.91 L1354.22 2446.54 L1365.86 2442.99 L1377.34 2439.28 L1388.98 2435.40 L1400.63 2431.35 L1412.27 2427.13 L1423.91 2422.74 L1435.56 2418.19 L1447.20 2413.46 L1458.84 2408.57 L1470.49 2403.51 L1482.13 2398.11 L1493.78 2392.71 L1505.42 2386.97 L1516.89 2381.06 L1528.54 2374.82 L1540.18 2368.57 L1551.83 2361.82 L1563.47 2355.07 L1575.11 2347.99 L1586.76 2340.56 L1598.40 2332.97 L1610.04 2325.21 L1621.69 2317.11 L1633.33 2308.67 L1644.98 2299.89 L1656.45 2290.95 L1668.09 2281.67 L1679.74 2272.22 L1691.38 2262.43 L1703.03 2252.14 L1714.67 2241.68 L1726.31 2231.04 L1737.96 2219.91 L1749.60 2208.43 L1761.24 2196.62 L1772.89 2184.64 L1784.53 2172.15 L1796.01 2159.49 L1807.65 2146.33 L1819.29 2132.83 L1830.94 2118.99 L1842.58 2104.99 L1854.23 2090.48 L1865.87 2075.63 L1877.51 2060.27 L1889.16 2044.74 L1900.80 2028.88 L1912.44 2012.51 L1924.09 1995.81 L1935.56 1978.76 L1947.21 1961.38 L1958.85 1943.66 L1970.49 1925.61 L1982.14 1907.21 L1993.78 1888.48 L2005.43 1869.24 L2017.07 1849.84 L2028.71 1830.09 L2040.36 1809.84 L2052.00 1789.43 L2063.64 1768.67 L2075.29 1747.58 L2086.76 1726.14 L2098.41 1704.54 L2110.05 1682.61 L2121.69 1660.33 L2133.34 1637.72 L2144.98 1614.94 L2156.63 1591.99 L2168.27 1568.70 L2179.91 1545.24 L2191.56 1521.62 L2203.20 1497.66 L2214.84 1473.69 L2226.32 1449.56 L2237.96 1425.09 L2249.61 1400.63 L2261.25 1376.16 L2272.89 1351.35 L2284.54 1326.71 L2296.18 1301.91 L2307.82 1276.93 L2319.47 1252.13 L2331.11 1227.15 L2342.76 1202.34 L2354.40 1177.54 L2365.88 1152.73 L2377.52 1128.09 L2389.16 1103.63 L2400.81 1079.16 L2412.45 1054.86 L2424.09 1030.72 L2435.74 1006.93 L2447.38 983.14 L2459.03 959.85 L2470.67 936.56 L2482.31 913.78 L2493.96 891.17 L2505.43 868.89 L2517.07 847.13 L2528.72 825.69 L2540.36 804.60 L2552.01 783.84 L2563.65 763.76 L2575.29 744.02 L2586.94 724.78 L2598.58 706.22 L2610.23 687.99 L2621.87 670.44 L2633.51 653.40 L2644.99 637.03 L2656.63 621.34 L2668.28 606.15 L2679.92 591.64 L2691.56 577.97 L2703.21 564.81 L2714.85 552.49 L2726.49 540.84 L2738.14 529.88 L2749.78 519.75 L2761.43 510.30 L2773.07 501.69 L2784.54 493.93 L2796.19 486.84 L2807.83 480.60 L2819.48 475.20 L2831.12 470.64 L2842.76 466.76 L2854.41 463.89 L2866.05 461.70 L2877.69 460.52 L2889.34 460.18 L2900.98 460.52 L2912.63 461.70 L2924.10 463.89 L2935.74 466.76 L2947.39 470.64 L2959.03 475.20 L2970.68 480.60 L2982.32 486.84 L2993.96 493.93 L3005.61 501.69 L3017.25 510.30 L3028.89 519.75 L3040.54 529.88 L3052.18 540.84 L3063.66 552.49 L3075.30 564.81 L3086.94 577.97 L3098.59 591.64 L3110.23 606.15 L3121.88 621.34 L3133.52 637.03 L3145.16 653.40 L3156.81 670.44 L3168.45 687.99 L3180.09 706.22 L3191.74 724.78 L3203.21 744.02 L3214.86 763.76 L3226.50 783.84 L3238.14 804.60 L3249.79 825.69 L3261.43 847.13 L3273.08 868.89 L3284.72 891.17 L3296.36 913.78 L3308.01 936.56 L3319.65 959.85 L3331.29 983.14 L3342.77 1006.93 L3354.41 1030.72 L3366.06 1054.86 L3377.70 1079.16 L3389.34 1103.63 L3400.99 1128.09 L3412.63 1152.73 L3424.28 1177.54 L3435.92 1202.34 L3447.56 1227.15 L3459.21 1252.13 L3470.85 1276.93 L3482.33 1301.91 L3493.97 1326.71 L3505.61 1351.35 L3517.26 1376.16 L3528.90 1400.63 L3540.54 1425.09 L3552.19 1449.56 L3563.83 1473.69 L3575.48 1497.66 L3587.12 1521.62 L3598.76 1545.24 L3610.41 1568.70 L3621.88 1591.99 L3633.53 1614.94 L3645.17 1637.72 L3656.81 1660.33 L3668.46 1682.61 L3680.10 1704.54 L3691.74 1726.14 L3703.39 1747.58 L3715.03 1768.67 L3726.68 1789.43 L3738.32 1809.84 L3749.96 1830.09 L3761.44 1849.84 L3773.08 1869.24 L3784.73 1888.48 L3796.37 1907.21 L3808.01 1925.61 L3819.66 1943.66 L3831.30 1961.38 L3842.94 1978.76 L3854.59 1995.81 L3866.23 2012.51 L3877.88 2028.88 L3889.52 2044.74 L3900.99 2060.27 L3912.64 2075.63 L3924.28 2090.48 L3935.93 2104.99 L3947.57 2118.99 L3959.21 2132.83 L3970.86 2146.33 L3982.50 2159.49 L3994.14 2172.15 L4005.79 2184.64 L4017.43 2196.62 L4029.08 2208.43 L4040.55 2219.91 L4052.19 2231.04 L4063.84 2241.68 L4075.48 2252.14 L4087.13 2262.43 L4098.77 2272.22 L4110.41 2281.67 L4122.06 2290.95 L4133.70 2299.89 L4145.34 2308.67 L4156.99 2317.11 L4168.63 2325.21 L4180.11 2332.97 L4191.75 2340.56 L4203.39 2347.99 L4215.04 2355.07 L4226.68 2361.82 L4238.33 2368.57 L4249.97 2374.82 L4261.61 2381.06 L4273.26 2386.97 L4284.90 2392.71 L4296.54 2398.11 L4308.19 2403.51 L4319.66 2408.57 L4331.31 2413.46 L4342.95 2418.19 L4354.59 2422.74 L4366.24 2427.13 L4377.88 2431.35 L4389.52 2435.40 L4401.17 2439.28 L4412.81 2442.99 L4424.46 2446.54 L4436.10 2449.91 L4447.74 2453.29 L4459.22 2456.32 L4470.86 2459.36 L4482.51 2462.23 L4494.15 2465.10 L4505.79 2467.63 L4517.44 2470.16 L4529.08 2472.69 L4540.73 2475.06 L4552.37 2477.25 L4564.01 2479.28 L4575.66 2481.30 L4587.30 2483.32 L4598.94 2485.18 L4610.42 2486.87 L4622.06 2488.56 L4633.71 2490.24 L4645.35 2491.76 L4656.99 2493.11 L4668.64 2494.63 L4680.28 2495.98 L4691.93 2497.16 L4703.57 2498.34 L4715.21 2499.53 L4726.86 2500.54 L4738.50 2501.72 L4749.98 2502.56 L4761.62 2503.57 L4773.26 2504.42 L4784.91 2505.26 L4796.55 2506.11 L4808.19 2506.95 L4819.84 2507.63 L4831.48 2508.30 L4843.13 2508.98 L4854.77 2509.65 L4866.41 2510.16 L4878.06 2510.83 L4889.53 2511.34 L4901.18 2511.84 L4912.82 2512.35 L4924.46 2512.69 L4936.11 2513.19 L4947.75 2513.53 L4959.39 2514.04 L4971.04 2514.38 L4982.68 2514.71 L4994.33 2515.05 L5005.97 2515.39 L5017.61 2515.56 L5029.09 2515.89 L5040.73 2516.23 L5052.38 2516.40 L5064.02 2516.57 L5075.66 2516.91 L5087.31 2517.07 L5098.95 2517.24 L5110.59 2517.41 L5122.24 2517.58 L5133.88 2517.75 L5145.52 2517.92 L5157.17 2518.09 L5168.64 2518.26 L5180.29 2518.43 L5191.93 2518.43 L5203.58 2518.59 L5215.22 2518.76" stroke-linejoin="round" style="fill:none;stroke:#505050;stroke-width:9.72"/>
	<path d=" M563.29 2519.61 L574.93 2519.44 L586.58 2519.44 L598.22 2519.27 L609.86 2519.27 L621.51 2519.10 L633.15 2519.10 L644.79 2518.93 L656.44 2518.76 L668.08 2518.76 L679.56 2518.59 L691.20 2518.43 L702.84 2518.26 L714.49 2518.09 L726.13 2517.92 L737.78 2517.75 L749.42 2517.58 L761.06 2517.41 L772.71 2517.24 L784.35 2516.91 L795.99 2516.74 L807.64 2516.40 L819.11 2516.23 L830.76 2515.89 L842.40 2515.56 L854.04 2515.22 L865.69 2514.88 L877.33 2514.38 L888.98 2514.04 L900.62 2513.70 L912.26 2513.19 L923.91 2512.69 L935.55 2512.18 L947.19 2511.68 L958.67 2511.00 L970.31 2510.49 L981.96 2509.82 L993.60 2509.14 L1005.24 2508.30 L1016.89 2507.63 L1028.53 2506.78 L1040.18 2505.94 L1051.82 2504.93 L1063.46 2504.08 L1075.11 2503.07 L1086.75 2501.89 L1098.22 2500.88 L1109.87 2499.69 L1121.51 2498.34 L1133.16 2496.99 L1144.80 2495.64 L1156.44 2494.13 L1168.09 2492.61 L1179.73 2491.09 L1191.38 2489.23 L1203.02 2487.54 L1214.66 2485.69 L1226.31 2483.66 L1237.78 2481.64 L1249.43 2479.44 L1261.07 2477.08 L1272.71 2474.72 L1284.36 2472.19 L1296.00 2469.49 L1307.64 2466.79 L1319.29 2463.92 L1330.93 2460.88 L1342.58 2457.68 L1354.22 2454.30 L1365.86 2450.93 L1377.34 2447.21 L1388.98 2443.50 L1400.63 2439.45 L1412.27 2435.40 L1423.91 2431.01 L1435.56 2426.63 L1447.20 2421.90 L1458.84 2417.01 L1470.49 2411.94 L1482.13 2406.71 L1493.78 2401.31 L1505.42 2395.57 L1516.89 2389.67 L1528.54 2383.43 L1540.18 2377.01 L1551.83 2370.43 L1563.47 2363.51 L1575.11 2356.43 L1586.76 2349.00 L1598.40 2341.41 L1610.04 2333.48 L1621.69 2325.21 L1633.33 2316.77 L1644.98 2307.99 L1656.45 2298.88 L1668.09 2289.43 L1679.74 2279.81 L1691.38 2269.69 L1703.03 2259.39 L1714.67 2248.76 L1726.31 2237.79 L1737.96 2226.49 L1749.60 2214.84 L1761.24 2202.86 L1772.89 2190.54 L1784.53 2177.89 L1796.01 2164.89 L1807.65 2151.39 L1819.29 2137.73 L1830.94 2123.55 L1842.58 2109.21 L1854.23 2094.36 L1865.87 2079.17 L1877.51 2063.64 L1889.16 2047.61 L1900.80 2031.41 L1912.44 2014.71 L1924.09 1997.66 L1935.56 1980.28 L1947.21 1962.56 L1958.85 1944.51 L1970.49 1925.94 L1982.14 1907.21 L1993.78 1887.98 L2005.43 1868.40 L2017.07 1848.66 L2028.71 1828.41 L2040.36 1807.82 L2052.00 1787.06 L2063.64 1765.80 L2075.29 1744.37 L2086.76 1722.60 L2098.41 1700.49 L2110.05 1678.22 L2121.69 1655.61 L2133.34 1632.66 L2144.98 1609.54 L2156.63 1586.25 L2168.27 1562.63 L2179.91 1538.83 L2191.56 1514.87 L2203.20 1490.57 L2214.84 1466.27 L2226.32 1441.80 L2237.96 1417.16 L2249.61 1392.53 L2261.25 1367.55 L2272.89 1342.74 L2284.54 1317.77 L2296.18 1292.63 L2307.82 1267.65 L2319.47 1242.68 L2331.11 1217.53 L2342.76 1192.56 L2354.40 1167.58 L2365.88 1142.78 L2377.52 1117.97 L2389.16 1093.33 L2400.81 1068.86 L2412.45 1044.56 L2424.09 1020.26 L2435.74 996.47 L2447.38 972.68 L2459.03 949.22 L2470.67 926.10 L2482.31 903.32 L2493.96 880.71 L2505.43 858.60 L2517.07 836.66 L2528.72 815.23 L2540.36 794.31 L2552.01 773.72 L2563.65 753.64 L2575.29 734.06 L2586.94 714.99 L2598.58 696.43 L2610.23 678.38 L2621.87 660.82 L2633.51 643.95 L2644.99 627.75 L2656.63 612.06 L2668.28 597.04 L2679.92 582.69 L2691.56 569.03 L2703.21 556.03 L2714.85 543.71 L2726.49 532.24 L2738.14 521.44 L2749.78 511.31 L2761.43 502.03 L2773.07 493.59 L2784.54 485.83 L2796.19 478.74 L2807.83 472.67 L2819.48 467.27 L2831.12 462.71 L2842.76 459.00 L2854.41 456.13 L2866.05 454.11 L2877.69 452.76 L2889.34 452.42 L2900.98 452.76 L2912.63 454.11 L2924.10 456.13 L2935.74 459.00 L2947.39 462.71 L2959.03 467.27 L2970.68 472.67 L2982.32 478.74 L2993.96 485.83 L3005.61 493.59 L3017.25 502.03 L3028.89 511.31 L3040.54 521.44 L3052.18 532.24 L3063.66 543.71 L3075.30 556.03 L3086.94 569.03 L3098.59 582.69 L3110.23 597.04 L3121.88 612.06 L3133.52 627.75 L3145.16 643.95 L3156.81 660.82 L3168.45 678.38 L3180.09 696.43 L3191.74 714.99 L3203.21 734.06 L3214.86 753.64 L3226.50 773.72 L3238.14 794.31 L3249.79 815.23 L3261.43 836.66 L3273.08 858.60 L3284.72 880.71 L3296.36 903.32 L3308.01 926.10 L3319.65 949.22 L3331.29 972.68 L3342.77 996.47 L3354.41 1020.26 L3366.06 1044.56 L3377.70 1068.86 L3389.34 1093.33 L3400.99 1117.97 L3412.63 1142.78 L3424.28 1167.58 L3435.92 1192.56 L3447.56 1217.53 L3459.21 1242.68 L3470.85 1267.65 L3482.33 1292.63 L3493.97 1317.77 L3505.61 1342.74 L3517.26 1367.55 L3528.90 1392.53 L3540.54 1417.16 L3552.19 1441.80 L3563.83 1466.27 L3575.48 1490.57 L3587.12 1514.87 L3598.76 1538.83 L3610.41 1562.63 L3621.88 1586.25 L3633.53 1609.54 L3645.17 1632.66 L3656.81 1655.61 L3668.46 1678.22 L3680.10 1700.49 L3691.74 1722.60 L3703.39 1744.37 L3715.03 1765.80 L3726.68 1787.06 L3738.32 1807.82 L3749.96 1828.41 L3761.44 1848.66 L3773.08 1868.40 L3784.73 1887.98 L3796.37 1907.21 L3808.01 1925.94 L3819.66 1944.51 L3831.30 1962.56 L3842.94 1980.28 L3854.59 1997.66 L3866.23 2014.71 L3877.88 2031.41 L3889.52 2047.61 L3900.99 2063.64 L3912.64 2079.17 L3924.28 2094.36 L3935.93 2109.21 L3947.57 2123.55 L3959.21 2137.73 L3970.86 2151.39 L3982.50 2164.89 L3994.14 2177.89 L4005.79 2190.54 L4017.43 2202.86 L4029.08 2214.84 L4040.55 2226.49 L4052.19 2237.79 L4063.84 2248.76 L4075.48 2259.39 L4087.13 2269.69 L4098.77 2279.81 L4110.41 2289.43 L4122.06 2298.88 L4133.70 2307.99 L4145.34 2316.77 L4156.99 2325.21 L4168.63 2333.48 L4180.11 2341.41 L4191.75 2349.00 L4203.39 2356.43 L4215.04 2363.51 L4226.68 2370.43 L4238.33 2377.01 L4249.97 2383.43 L4261.61 2389.67 L4273.26 2395.57 L4284.90 2401.31 L4296.54 2406.71 L4308.19 2411.94 L4319.66 2417.01 L4331.31 2421.90 L4342.95 2426.63 L4354.59 2431.01 L4366.24 2435.40 L4377.88 2439.45 L4389.52 2443.50 L4401.17 2447.21 L4412.81 2450.93 L4424.46 2454.30 L4436.10 2457.68 L4447.74 2460.88 L4459.22 2463.92 L4470.86 2466.79 L4482.51 2469.49 L4494.15 2472.19 L4505.79 2474.72 L4517.44 2477.08 L4529.08 2479.44 L4540.73 2481.64 L4552.37 2483.66 L4564.01 2485.69 L4575.66 2487.54 L4587.30 2489.23 L4598.94 2491.09 L4610.42 2492.61 L4622.06 2494.13 L4633.71 2495.64 L4645.35 2496.99 L4656.99 2498.34 L4668.64 2499.69 L4680.28 2500.88 L4691.93 2501.89 L4703.57 2503.07 L4715.21 2504.08 L4726.86 2504.93 L4738.50 2505.94 L4749.98 2506.78 L4761.62 2507.63 L4773.26 2508.30 L4784.91 2509.14 L4796.55 2509.82 L4808.19 2510.49 L4819.84 2511.00 L4831.48 2511.68 L4843.13 2512.18 L4854.77 2512.69 L4866.41 2513.19 L4878.06 2513.70 L4889.53 2514.04 L4901.18 2514.38 L4912.82 2514.88 L4924.46 2515.22 L4936.11 2515.56 L4947.75 2515.89 L4959.39 2516.23 L4971.04 2516.40 L4982.68 2516.74 L4994.33 2516.91 L5005.97 2517.24 L5017.61 2517.41 L5029.09 2517.58 L5040.73 2517.75 L5052.38 2517.92 L5064.02 2518.09 L5075.66 2518.26 L5087.31 2518.43 L5098.95 2518.59 L5110.59 2518.76 L5122.24 2518.76 L5133.88 2518.93 L5145.52 2519.10 L5157.17 2519.10 L5168.64 2519.27 L5180.29 2519.27 L5191.93 2519.44 L5203.58 2519.44 L5215.22 2519.61" stroke-linejoin="round" style="fill:none;stroke:#000000;stroke-width:9.72"/>
	<line x1="492.08" y1="2591.66" x2="492.08" y2="113.40" style="stroke:#000000;stroke-width:6.48"/>
	<line x1="492.08" y1="2520.45" x2="469.63" y2="2520.45" style="stroke:#000000;stroke-width:6.48"/>
	<line x1="492.08" y1="2260.91" x2="469.63" y2="2260.91" style="stroke:#000000;stroke-width:6.48"/>
	<line x1="492.08" y1="2001.38" x2="469.63" y2="2001.38" style="stroke:#000000;stroke-width:6.48"/>
	<line x1="492.08" y1="1741.84" x2="469.63" y2="1741.84" style="stroke:#000000;stroke-width:6.48"/>
	<line x1="492.08" y1="1482.30" x2="469.63" y2="1482.30" style="stroke:#000000;stroke-width:6.48"/>
	<line x1="492.08" y1="1222.76" x2="469.63" y2="1222.76" style="stroke:#000000;stroke-width:6.48"/>
	<line x1="492.08" y1="963.22" x2="469.63" y2="963.22" style="stroke:#000000;stroke-width:6.48"/>
	<line x1="492.08" y1="703.69" x2="469.63" y2="703.69" style="stroke:#000000;stroke-width:6.48"/>
	<line x1="492.08" y1="444.15" x2="469.63" y2="444.15" style="stroke:#000000;stroke-width:6.48"/>
	<line x1="492.08" y1="184.61" x2="469.63" y2="184.61" style="stroke:#000000;stroke-width:6.48"/>
	<line x1="492.08" y1="2520.45" x2="447.19" y2="2520.45" style="stroke:#000000;stroke-width:6.48"/>
	<text x="424.58" y="2559.89" style="font-family:'Times New Roman';font-size:112.56px;fill:#000000" text-anchor="end">0</text>
	<line x1="492.08" y1="2001.38" x2="447.19" y2="2001.38" style="stroke:#000000;stroke-width:6.48"/>
	<text x="424.58" y="2040.81" style="font-family:'Times New Roman';font-size:112.56px;fill:#000000" text-anchor="end">.1</text>
	<line x1="492.08" y1="1482.30" x2="447.19" y2="1482.30" style="stroke:#000000;stroke-width:6.48"/>
	<text x="424.58" y="1521.74" style="font-family:'Times New Roman';font-size:112.56px;fill:#000000" text-anchor="end">.2</text>
	<line x1="492.08" y1="963.22" x2="447.19" y2="963.22" style="stroke:#000000;stroke-width:6.48"/>
	<text x="424.58" y="1002.66" style="font-family:'Times New Roman';font-size:112.56px;fill:#000000" text-anchor="end">.3</text>
	<line x1="492.08" y1="444.15" x2="447.19" y2="444.15" style="stroke:#000000;stroke-width:6.48"/>
	<text x="424.58" y="483.59" style="font-family:'Times New Roman';font-size:112.56px;fill:#000000" text-anchor="end">.4</text>
	<text x="214.55" y="1352.53" style="font-family:'Times New Roman';font-size:112.56px;fill:#000000" transform="rotate(-90 214.55,1352.53)" text-anchor="middle">Density</text>
	<line x1="492.08" y1="2591.66" x2="5286.60" y2="2591.66" style="stroke:#000000;stroke-width:6.48"/>
	<line x1="563.46" y1="2591.66" x2="563.46" y2="2614.11" style="stroke:#000000;stroke-width:6.48"/>
	<line x1="854.21" y1="2591.66" x2="854.21" y2="2614.11" style="stroke:#000000;stroke-width:6.48"/>
	<line x1="1144.97" y1="2591.66" x2="1144.97" y2="2614.11" style="stroke:#000000;stroke-width:6.48"/>
	<line x1="1435.73" y1="2591.66" x2="1435.73" y2="2614.11" style="stroke:#000000;stroke-width:6.48"/>
	<line x1="1726.31" y1="2591.66" x2="1726.31" y2="2614.11" style="stroke:#000000;stroke-width:6.48"/>
	<line x1="2017.07" y1="2591.66" x2="2017.07" y2="2614.11" style="stroke:#000000;stroke-width:6.48"/>
	<line x1="2307.82" y1="2591.66" x2="2307.82" y2="2614.11" style="stroke:#000000;stroke-width:6.48"/>
	<line x1="2598.58" y1="2591.66" x2="2598.58" y2="2614.11" style="stroke:#000000;stroke-width:6.48"/>
	<line x1="2889.34" y1="2591.66" x2="2889.34" y2="2614.11" style="stroke:#000000;stroke-width:6.48"/>
	<line x1="3180.09" y1="2591.66" x2="3180.09" y2="2614.11" style="stroke:#000000;stroke-width:6.48"/>
	<line x1="3470.85" y1="2591.66" x2="3470.85" y2="2614.11" style="stroke:#000000;stroke-width:6.48"/>
	<line x1="3761.61" y1="2591.66" x2="3761.61" y2="2614.11" style="stroke:#000000;stroke-width:6.48"/>
	<line x1="4052.36" y1="2591.66" x2="4052.36" y2="2614.11" style="stroke:#000000;stroke-width:6.48"/>
	<line x1="4343.12" y1="2591.66" x2="4343.12" y2="2614.11" style="stroke:#000000;stroke-width:6.48"/>
	<line x1="4633.88" y1="2591.66" x2="4633.88" y2="2614.11" style="stroke:#000000;stroke-width:6.48"/>
	<line x1="4924.63" y1="2591.66" x2="4924.63" y2="2614.11" style="stroke:#000000;stroke-width:6.48"/>
	<line x1="5215.39" y1="2591.66" x2="5215.39" y2="2614.11" style="stroke:#000000;stroke-width:6.48"/>
	<line x1="563.46" y1="2591.66" x2="563.46" y2="2636.72" style="stroke:#000000;stroke-width:6.48"/>
	<text x="563.46" y="2737.87" style="font-family:'Times New Roman';font-size:112.56px;fill:#000000" text-anchor="middle">-4</text>
	<line x1="1144.97" y1="2591.66" x2="1144.97" y2="2636.72" style="stroke:#000000;stroke-width:6.48"/>
	<text x="1144.97" y="2737.87" style="font-family:'Times New Roman';font-size:112.56px;fill:#000000" text-anchor="middle">-3</text>
	<line x1="1726.31" y1="2591.66" x2="1726.31" y2="2636.72" style="stroke:#000000;stroke-width:6.48"/>
	<text x="1726.31" y="2737.87" style="font-family:'Times New Roman';font-size:112.56px;fill:#000000" text-anchor="middle">-2</text>
	<line x1="2307.82" y1="2591.66" x2="2307.82" y2="2636.72" style="stroke:#000000;stroke-width:6.48"/>
	<text x="2307.82" y="2737.87" style="font-family:'Times New Roman';font-size:112.56px;fill:#000000" text-anchor="middle">-1</text>
	<line x1="2889.34" y1="2591.66" x2="2889.34" y2="2636.72" style="stroke:#000000;stroke-width:6.48"/>
	<text x="2889.34" y="2737.87" style="font-family:'Times New Roman';font-size:112.56px;fill:#000000" text-anchor="middle">0</text>
	<line x1="3470.85" y1="2591.66" x2="3470.85" y2="2636.72" style="stroke:#000000;stroke-width:6.48"/>
	<text x="3470.85" y="2737.87" style="font-family:'Times New Roman';font-size:112.56px;fill:#000000" text-anchor="middle">1</text>
	<line x1="4052.36" y1="2591.66" x2="4052.36" y2="2636.72" style="stroke:#000000;stroke-width:6.48"/>
	<text x="4052.36" y="2737.87" style="font-family:'Times New Roman';font-size:112.56px;fill:#000000" text-anchor="middle">2</text>
	<line x1="4633.88" y1="2591.66" x2="4633.88" y2="2636.72" style="stroke:#000000;stroke-width:6.48"/>
	<text x="4633.88" y="2737.87" style="font-family:'Times New Roman';font-size:112.56px;fill:#000000" text-anchor="middle">3</text>
	<line x1="5215.39" y1="2591.66" x2="5215.39" y2="2636.72" style="stroke:#000000;stroke-width:6.48"/>
	<text x="5215.39" y="2737.87" style="font-family:'Times New Roman';font-size:112.56px;fill:#000000" text-anchor="middle">4</text>
	<rect x="1383.41" y="2878.03" width="3011.85" height="209.76" style="fill:#FFFFFF"/>
	<rect x="1386.65" y="2881.27" width="3005.37" height="203.28" style="fill:none;stroke:#FFFFFF;stroke-width:6.48"/>
	<line x1="1432.01" y1="2982.83" x2="1561.61" y2="2982.83" style="stroke:#D0D0D0;stroke-width:9.72"/>
	<line x1="2183.63" y1="2982.83" x2="2313.23" y2="2982.83" style="stroke:#808080;stroke-width:9.72"/>
	<line x1="2935.24" y1="2982.83" x2="3064.84" y2="2982.83" style="stroke:#505050;stroke-width:9.72"/>
	<line x1="3687.02" y1="2982.83" x2="3816.62" y2="2982.83" style="stroke:#000000;stroke-width:9.72"/>
	<text x="1629.11" y="3022.26" style="font-family:'Times New Roman';font-size:112.56px;fill:#000000">t, df=10</text>
	<text x="2380.73" y="3022.26" style="font-family:'Times New Roman';font-size:112.56px;fill:#000000">t, df=20</text>
	<text x="3132.34" y="3022.26" style="font-family:'Times New Roman';font-size:112.56px;fill:#000000">t, df=50</text>
	<text x="3883.95" y="3022.26" style="font-family:'Times New Roman';font-size:112.56px;fill:#000000">t, df=200</text>
</svg>
